<svg xmlns="http://www.w3.org/2000/svg" width="26" height="24.387" viewBox="0 0 26 24.387"><path d="M117.177,268.042c0-.864.008-1.736,0-2.608-.008-.652.281-1,.948-1,.986,0,1.979.008,2.964,0a.87.87,0,0,1,.978.986c.008,1.782.008,3.571,0,5.353a.859.859,0,0,1-.986.97c-.963-.008-1.933.008-2.9-.008-.72-.008-.993-.3-1-1.024-.015-.887-.008-1.782-.008-2.669Zm14.079-1.236c0-1.259-.008-2.51,0-3.768.008-.773.265-1.031,1.046-1.039.94-.008,1.88-.008,2.828,0,.728.008,1.016.273,1.016,1.008.015,2.585.008,5.163,0,7.749a.867.867,0,0,1-.986.978c-.963-.008-1.933.008-2.9-.008-.72-.008-1-.3-1.008-1.016C131.249,269.414,131.256,268.11,131.256,266.806Zm-2.168-1.168c0,1.668.008,3.336,0,5,0,.842-.243,1.084-1.069,1.1q-1.376.011-2.752,0c-.751-.008-1.031-.25-1.039-.978q-.023-5.106,0-10.22c0-.735.281-.978,1.031-.986.94-.008,1.888-.008,2.828,0,.728.008.993.281.993,1.016C129.1,262.257,129.088,263.948,129.088,265.638Zm9.219-1.152v-6.164c0-1,.235-1.221,1.243-1.228.849,0,1.691-.008,2.54,0,.781.008,1.069.273,1.069,1.024q.011,6.312,0,12.616c0,.72-.288.986-1.024,1-.94.015-1.888.008-2.828,0-.72-.008-.993-.273-1-1.016,0-2.077.008-4.155,0-6.232Zm-4.663-7.7c2.267-2.578,4.511-5.125,6.884-7.817-1.046,0-1.9-.015-2.76.008-.576.015-1.024-.144-1.077-.8-.045-.523.379-.826,1.115-.826,1.425,0,2.851-.008,4.276,0,.834.008,1.084.243,1.084,1.077.008,1.471-.008,2.949.008,4.42.008.569-.22.986-.8.986s-.826-.4-.819-.978c.008-.788,0-1.577,0-2.563-.349.379-.591.629-.819.895-2.047,2.32-4.087,4.648-6.134,6.96-.644.728-.925.751-1.7.136-2.062-1.638-4.117-3.283-6.217-4.966-.2.174-.394.334-.584.516q-3.537,3.332-7.074,6.657a5.456,5.456,0,0,1-.538.485c-.387.281-.849.288-1.077-.114a1.669,1.669,0,0,1-.008-1.039c.038-.174.288-.311.447-.462q3.958-3.73,7.915-7.453c.705-.66.917-.667,1.668-.068l5.55,4.435C133.2,256.449,133.409,256.609,133.644,256.791Z" transform="translate(-117.175 -247.356)" fill="#7801c1"/></svg>