<svg xmlns="http://www.w3.org/2000/svg" xmlns:xlink="http://www.w3.org/1999/xlink" width="385.275" height="286.411" viewBox="0 0 385.275 286.411"><defs><clipPath id="a"><path d="M178.878-477.728h6.261v6.261h-6.261Z" transform="translate(-178.878 477.728)"/></clipPath><clipPath id="b"><path d="M178.878-500.144h6.261v6.261h-6.261Z" transform="translate(-178.878 500.144)"/></clipPath><clipPath id="c"><path d="M178.878-522.561h6.261v6.261h-6.261Z" transform="translate(-178.878 522.561)"/></clipPath><clipPath id="d"><path d="M201.032-477.728h6.261v6.261h-6.261Z" transform="translate(-201.032 477.728)"/></clipPath><clipPath id="e"><path d="M201.032-500.144h6.261v6.261h-6.261Z" transform="translate(-201.032 500.144)"/></clipPath><clipPath id="f"><path d="M201.032-522.561h6.261v6.261h-6.261Z" transform="translate(-201.032 522.561)"/></clipPath><clipPath id="g"><path d="M223.183-477.728h6.261v6.261h-6.261Z" transform="translate(-223.183 477.728)"/></clipPath><clipPath id="h"><path d="M223.183-500.144h6.261v6.261h-6.261Z" transform="translate(-223.183 500.144)"/></clipPath><clipPath id="i"><path d="M223.183-522.561h6.261v6.261h-6.261Z" transform="translate(-223.183 522.561)"/></clipPath><clipPath id="j"><path d="M178.878-406.347h6.261v6.261h-6.261Z" transform="translate(-178.878 406.347)"/></clipPath><clipPath id="k"><path d="M178.878-428.764h6.261v6.261h-6.261Z" transform="translate(-178.878 428.764)"/></clipPath><clipPath id="l"><path d="M201.032-383.931h6.261v6.261h-6.261Z" transform="translate(-201.032 383.931)"/></clipPath><clipPath id="m"><path d="M201.032-406.347h6.261v6.261h-6.261Z" transform="translate(-201.032 406.347)"/></clipPath><clipPath id="n"><path d="M223.183-406.347h6.261v6.261h-6.261Z" transform="translate(-223.183 406.347)"/></clipPath><clipPath id="o"><path d="M223.183-428.764h6.261v6.261h-6.261Z" transform="translate(-223.183 428.764)"/></clipPath><clipPath id="p"><path d="M461.3-347.727h6.261v6.261H461.3Z" transform="translate(-461.303 347.727)"/></clipPath><clipPath id="q"><path d="M437.975-347.727h6.261v6.261h-6.261Z" transform="translate(-437.975 347.727)"/></clipPath><clipPath id="r"><path d="M477.181-380.168h6.261v6.261h-6.261Z" transform="translate(-477.181 380.168)"/></clipPath><clipPath id="s"><path d="M477.181-301.494h6.261v6.261h-6.261Z" transform="translate(-477.181 301.494)"/></clipPath><clipPath id="t"><path d="M437.975-407.968h6.261v6.261h-6.261Z" transform="translate(-437.975 407.968)"/></clipPath><clipPath id="u"><path d="M541.529-518.085h6.261v98.494h-6.261Z" transform="translate(-541.529 518.085)"/></clipPath><clipPath id="v"><path d="M12.949-457.412H45.42v15.071H12.949Z" transform="translate(-12.949 457.412)"/></clipPath><clipPath id="w"><path d="M297.174-422.758h6.261v98.494h-6.261Z" transform="translate(-297.174 422.758)"/></clipPath><clipPath id="x"><path d="M372.071-422.758h6.261v98.494h-6.261Z" transform="translate(-372.071 422.758)"/></clipPath><clipPath id="y"><path d="M334.419-422.758h6.261v98.494h-6.261Z" transform="translate(-334.419 422.758)"/></clipPath><clipPath id="z"><path d="M71.576-494.783h6.261v6.261H71.576Z" transform="translate(-71.576 494.783)"/></clipPath><clipPath id="aa"><path d="M102.926-471.223h6.261v6.261h-6.261Z" transform="translate(-102.926 471.223)"/></clipPath><clipPath id="ab"><path d="M67.412-435.006h6.261v6.261H67.412Z" transform="translate(-67.412 435.006)"/></clipPath><clipPath id="ac"><path d="M107.849-435.006h6.261v6.261h-6.261Z" transform="translate(-107.849 435.006)"/></clipPath><clipPath id="ad"><path d="M71.576-341.12h6.261v6.261H71.576Z" transform="translate(-71.576 341.12)"/></clipPath><clipPath id="ae"><path d="M87.806-397.03h6.261v6.261H87.806Z" transform="translate(-87.806 397.03)"/></clipPath><clipPath id="af"><path d="M109.432-360.3h6.261v6.261h-6.261Z" transform="translate(-109.432 360.296)"/></clipPath><clipPath id="ag"><path d="M127.541-399.842H133.8v6.261h-6.261Z" transform="translate(-127.541 399.842)"/></clipPath><clipPath id="ah"><path d="M96.421-282.046h6.261v6.261H96.421Z" transform="translate(-96.421 282.046)"/></clipPath><clipPath id="ai"><path d="M148.758-289.518h24.368v23.606H148.758Z" transform="translate(-148.758 289.518)"/></clipPath><clipPath id="aj"><path d="M235.394-602.037h32.471v15.071H235.394Z" transform="translate(-235.394 602.037)" fill="#f4f2f2"/></clipPath><clipPath id="ak"><path d="M575.245-553.877h32.471v15.071H575.245Z" transform="translate(-575.245 553.877)" fill="#f4f2f2"/></clipPath></defs><g transform="translate(-591 -970.589)"><g transform="translate(-1484 -394.55)"><g transform="translate(2392.135 1504.546)"><path d="M-35-10.855c0-2.762-1.9-5-4.247-5a3.746,3.746,0,0,0-2.135.7,7.532,7.532,0,0,0-7.319-5.77,7.537,7.537,0,0,0-7.206,5.332,4.22,4.22,0,0,0-1.426-.262,4.247,4.247,0,0,0-4.247,4.247H-64.6a2.877,2.877,0,0,0-2.877,2.877A2.877,2.877,0,0,0-64.6-5.855h26.032a2.867,2.867,0,0,0,2.753-2.085A5.567,5.567,0,0,0-35-10.855" transform="translate(67.473 20.925)" fill="#fff"/></g><g transform="translate(2179.506 1368.85)"><path d="M-43.778-226.712H-84.39V-399.467l40.613-37.567Z" transform="translate(84.39 437.034)" fill="#81bed6"/></g><g transform="translate(2182.487 1445.422)"><g transform="translate(0 0)"><g opacity="0.58" clip-path="url(#a)"><path d="M185.14-471.468h-6.261v-6.261h6.261Z" transform="translate(-178.878 477.729)" fill="#fff"/></g></g></g><g transform="translate(2182.487 1434.635)"><g transform="translate(0 0)"><g opacity="0.58" clip-path="url(#b)"><path d="M185.14-493.884h-6.261v-6.261h6.261Z" transform="translate(-178.878 500.145)" fill="#fff"/></g></g></g><g transform="translate(2182.487 1423.847)"><g transform="translate(0 0)"><g opacity="0.58" clip-path="url(#c)"><path d="M185.14-516.3h-6.261v-6.261h6.261Z" transform="translate(-178.878 522.561)" fill="#fff"/></g></g></g><g transform="translate(2193.76 1445.422)"><g transform="translate(0 0)"><g opacity="0.58" clip-path="url(#d)"><path d="M207.293-471.468h-6.261v-6.261h6.261Z" transform="translate(-201.032 477.729)" fill="#fff"/></g></g></g><g transform="translate(2193.76 1434.635)"><g transform="translate(0 0)"><g opacity="0.58" clip-path="url(#e)"><path d="M207.293-493.884h-6.261v-6.261h6.261Z" transform="translate(-201.032 500.145)" fill="#fff"/></g></g></g><g transform="translate(2193.76 1423.847)"><g transform="translate(0 0)"><g opacity="0.58" clip-path="url(#f)"><path d="M207.293-516.3h-6.261v-6.261h6.261Z" transform="translate(-201.032 522.561)" fill="#fff"/></g></g></g><g transform="translate(2205.031 1445.422)"><g transform="translate(0 0)"><g opacity="0.58" clip-path="url(#g)"><path d="M229.445-471.468h-6.261v-6.261h6.261Z" transform="translate(-223.183 477.729)" fill="#fff"/></g></g></g><g transform="translate(2205.031 1434.635)"><g transform="translate(0 0)"><g opacity="0.58" clip-path="url(#h)"><path d="M229.445-493.884h-6.261v-6.261h6.261Z" transform="translate(-223.183 500.145)" fill="#fff"/></g></g></g><g transform="translate(2205.031 1423.847)"><g transform="translate(0 0)"><g opacity="0.58" clip-path="url(#i)"><path d="M229.445-516.3h-6.261v-6.261h6.261Z" transform="translate(-223.183 522.561)" fill="#fff"/></g></g></g><g transform="translate(2182.487 1479.774)"><g transform="translate(0 0)"><g opacity="0.58" clip-path="url(#j)"><path d="M185.14-400.086h-6.261v-6.261h6.261Z" transform="translate(-178.878 406.347)" fill="#fff"/></g></g></g><g transform="translate(2182.487 1468.986)"><g transform="translate(0 0)"><g opacity="0.58" clip-path="url(#k)"><path d="M185.14-422.5h-6.261v-6.261h6.261Z" transform="translate(-178.878 428.764)" fill="#fff"/></g></g></g><g transform="translate(2193.76 1490.562)"><g transform="translate(0 0)"><g opacity="0.58" clip-path="url(#l)"><path d="M207.293-377.67h-6.261v-6.261h6.261Z" transform="translate(-201.032 383.931)" fill="#fff"/></g></g></g><g transform="translate(2193.76 1479.774)"><g transform="translate(0 0)"><g opacity="0.58" clip-path="url(#m)"><path d="M207.293-400.086h-6.261v-6.261h6.261Z" transform="translate(-201.032 406.347)" fill="#fff"/></g></g></g><g transform="translate(2205.031 1479.774)"><g transform="translate(0 0)"><g opacity="0.58" clip-path="url(#n)"><path d="M229.445-400.086h-6.261v-6.261h6.261Z" transform="translate(-223.183 406.347)" fill="#fff"/></g></g></g><g transform="translate(2205.031 1468.986)"><g transform="translate(0 0)"><g opacity="0.58" clip-path="url(#o)"><path d="M229.445-422.5h-6.261v-6.261h6.261Z" transform="translate(-223.183 428.764)" fill="#fff"/></g></g></g><g transform="translate(2309.374 1448.553)"><path d="M-38.06-27.441V-41.476h-7.361V-52.9H-56.843v11.422H-65.22v14.035h-8.149V77.72h40.613V-27.441Z" transform="translate(73.369 52.899)" fill="#81bed6"/></g><g transform="translate(2326.195 1507.985)"><g transform="translate(0 0)"><g opacity="0.49" clip-path="url(#p)"><path d="M467.563-341.466H461.3v-6.261h6.261Z" transform="translate(-461.302 347.727)" fill="#fff"/></g></g></g><g transform="translate(2314.325 1507.985)"><g transform="translate(0 0)"><g opacity="0.49" clip-path="url(#q)"><path d="M444.235-341.466h-6.261v-6.261h6.261Z" transform="translate(-437.974 347.727)" fill="#fff"/></g></g></g><g transform="translate(2334.275 1492.373)"><g transform="translate(0 0)"><g opacity="0.49" clip-path="url(#r)"><path d="M483.443-373.907h-6.261v-6.261h6.261Z" transform="translate(-477.181 380.168)" fill="#fff"/></g></g></g><g transform="translate(2334.275 1530.235)"><g transform="translate(0)"><g opacity="0.49" clip-path="url(#s)"><path d="M483.443-295.233h-6.261v-6.261h6.261Z" transform="translate(-477.181 301.494)" fill="#fff"/></g></g></g><g transform="translate(2314.325 1478.994)"><g transform="translate(0 0)"><g opacity="0.49" clip-path="url(#t)"><path d="M444.235-401.707h-6.261v-6.261h6.261Z" transform="translate(-437.974 407.968)" fill="#fff"/></g></g></g><path d="M556.537-530.3h-29.6V-371.25h29.6Z" transform="translate(1833.73 1950.421)" fill="#54cdff"/><g transform="translate(2367.017 1426.001)"><g transform="translate(0 0)"><g opacity="0.49" clip-path="url(#u)"><path d="M547.791-511.825h-6.261v-6.261h6.261Z" transform="translate(-541.529 518.086)" fill="#fff"/><path d="M547.791-490.529h-6.261v-6.261h6.261Z" transform="translate(-541.529 507.039)" fill="#fff"/><path d="M547.791-469.235h-6.261V-475.5h6.261Z" transform="translate(-541.529 495.992)" fill="#fff"/><path d="M547.791-426.644h-6.261v-6.261h6.261Z" transform="translate(-541.529 473.898)" fill="#fff"/><path d="M547.791-405.35h-6.261v-6.261h6.261Z" transform="translate(-541.529 462.851)" fill="#fff"/><path d="M547.791-384.055h-6.261v-6.261h6.261Z" transform="translate(-541.529 451.805)" fill="#fff"/><path d="M547.791-362.76h-6.261v-6.261h6.261Z" transform="translate(-541.529 440.758)" fill="#fff"/><path d="M547.791-341.466h-6.261v-6.261h6.261Z" transform="translate(-541.529 429.712)" fill="#fff"/><path d="M547.791-320.17h-6.261v-6.261h6.261Z" transform="translate(-541.529 418.664)" fill="#fff"/></g></g></g><g transform="translate(2096.806 1455.199)"><g transform="translate(0 0)"><g opacity="0.59" clip-path="url(#v)"><g transform="translate(0 0)"><path d="M-35-10.855c0-2.762-1.9-5-4.248-5a3.745,3.745,0,0,0-2.134.7,7.534,7.534,0,0,0-7.319-5.77,7.537,7.537,0,0,0-7.206,5.332,4.222,4.222,0,0,0-1.425-.262,4.247,4.247,0,0,0-4.248,4.247H-64.6a2.877,2.877,0,0,0-2.877,2.877A2.877,2.877,0,0,0-64.6-5.854h26.032a2.869,2.869,0,0,0,2.753-2.085A5.567,5.567,0,0,0-35-10.855" transform="translate(67.473 20.925)" fill="#fff"/></g></g></g></g><g transform="translate(2232.241 1404.927)"><path d="M-40.778-42.215-45.491-81.23a.167.167,0,0,0-.331-.006l-6.3,39.142A32.494,32.494,0,0,0-78.608-10.169V92.867h64.981V-10.169A32.493,32.493,0,0,0-40.778-42.215" transform="translate(78.608 81.378)" fill="#57c2ed"/></g><g transform="translate(2242.68 1471.877)"><g opacity="0.39" clip-path="url(#w)"><path d="M303.435-416.5h-6.261v-6.261h6.261Z" transform="translate(-297.174 422.758)" fill="#fff"/><path d="M303.435-395.2h-6.261v-6.261h6.261Z" transform="translate(-297.174 411.711)" fill="#fff"/><path d="M303.435-373.907h-6.261v-6.261h6.261Z" transform="translate(-297.174 400.664)" fill="#fff"/><path d="M303.435-352.612h-6.261v-6.261h6.261Z" transform="translate(-297.174 389.618)" fill="#fff"/><path d="M303.435-331.318h-6.261v-6.261h6.261Z" transform="translate(-297.174 378.571)" fill="#fff"/><path d="M303.435-310.022h-6.261v-6.261h6.261Z" transform="translate(-297.174 367.524)" fill="#fff"/><path d="M303.435-288.727h-6.261v-6.261h6.261Z" transform="translate(-297.174 356.477)" fill="#fff"/><path d="M303.435-267.433h-6.261v-6.261h6.261Z" transform="translate(-297.174 345.43)" fill="#fff"/><path d="M303.435-246.138h-6.261V-252.4h6.261Z" transform="translate(-297.174 334.384)" fill="#fff"/><path d="M303.435-224.842h-6.261V-231.1h6.261Z" transform="translate(-297.174 323.336)" fill="#fff"/></g></g><g transform="translate(2280.791 1471.877)"><g transform="translate(0)"><g opacity="0.39" clip-path="url(#x)"><path d="M378.332-416.5h-6.261v-6.261h6.261Z" transform="translate(-372.071 422.758)" fill="#fff"/><path d="M378.332-395.2h-6.261v-6.261h6.261Z" transform="translate(-372.071 411.711)" fill="#fff"/><path d="M378.332-373.907h-6.261v-6.261h6.261Z" transform="translate(-372.071 400.664)" fill="#fff"/><path d="M378.332-352.612h-6.261v-6.261h6.261Z" transform="translate(-372.071 389.618)" fill="#fff"/><path d="M378.332-331.318h-6.261v-6.261h6.261Z" transform="translate(-372.071 378.571)" fill="#fff"/><path d="M378.332-310.022h-6.261v-6.261h6.261Z" transform="translate(-372.071 367.524)" fill="#fff"/><path d="M378.332-288.727h-6.261v-6.261h6.261Z" transform="translate(-372.071 356.477)" fill="#fff"/><path d="M378.332-267.433h-6.261v-6.261h6.261Z" transform="translate(-372.071 345.43)" fill="#fff"/><path d="M378.332-246.138h-6.261V-252.4h6.261Z" transform="translate(-372.071 334.384)" fill="#fff"/><path d="M378.332-224.842h-6.261V-231.1h6.261Z" transform="translate(-372.071 323.336)" fill="#fff"/></g></g></g><g transform="translate(2261.632 1471.877)"><g transform="translate(0)"><g opacity="0.39" clip-path="url(#y)"><path d="M340.681-416.5h-6.261v-6.261h6.261Z" transform="translate(-334.419 422.758)" fill="#fff"/><path d="M340.681-395.2h-6.261v-6.261h6.261Z" transform="translate(-334.419 411.711)" fill="#fff"/><path d="M340.681-373.907h-6.261v-6.261h6.261Z" transform="translate(-334.419 400.664)" fill="#fff"/><path d="M340.681-352.612h-6.261v-6.261h6.261Z" transform="translate(-334.419 389.618)" fill="#fff"/><path d="M340.681-331.318h-6.261v-6.261h6.261Z" transform="translate(-334.419 378.571)" fill="#fff"/><path d="M340.681-310.022h-6.261v-6.261h6.261Z" transform="translate(-334.419 367.524)" fill="#fff"/><path d="M340.681-288.727h-6.261v-6.261h6.261Z" transform="translate(-334.419 356.477)" fill="#fff"/><path d="M340.681-267.433h-6.261v-6.261h6.261Z" transform="translate(-334.419 345.43)" fill="#fff"/><path d="M340.681-246.138h-6.261V-252.4h6.261Z" transform="translate(-334.419 334.384)" fill="#fff"/><path d="M340.681-224.842h-6.261V-231.1h6.261Z" transform="translate(-334.419 323.336)" fill="#fff"/></g></g></g><path d="M101.345-366.315H60.732v-154.47h40.613Z" transform="translate(2059.07 1945.487)" fill="#54cdff"/><g transform="translate(2125.02 1437.215)"><g transform="translate(0 0)"><g opacity="0.55" clip-path="url(#z)"><path d="M77.837-488.521H71.576v-6.261h6.261Z" transform="translate(-71.576 494.783)" fill="#fff"/></g></g></g><g transform="translate(2140.108 1448.553)"><g transform="translate(0 0)"><g opacity="0.55" clip-path="url(#aa)"><path d="M109.188-464.963h-6.261v-6.261h6.261Z" transform="translate(-102.926 471.224)" fill="#fff"/></g></g></g><g transform="translate(2123.016 1465.983)"><g transform="translate(0 0)"><g opacity="0.55" clip-path="url(#ab)"><path d="M73.673-428.744H67.412v-6.261h6.261Z" transform="translate(-67.412 435.006)" fill="#fff"/></g></g></g><g transform="translate(2146.345 1465.983)"><g transform="translate(0 0)"><g opacity="0.55" clip-path="url(#ac)"><path d="M114.11-428.744h-6.261v-6.261h6.261Z" transform="translate(-107.849 435.006)" fill="#fff"/></g></g></g><g transform="translate(2125.02 1511.165)"><g transform="translate(0 0)"><g opacity="0.55" clip-path="url(#ad)"><path d="M77.837-334.859H71.576v-6.261h6.261Z" transform="translate(-71.576 341.12)" fill="#fff"/></g></g></g><g transform="translate(2132.831 1484.258)"><g transform="translate(0 0)"><g opacity="0.55" clip-path="url(#ae)"><path d="M94.068-390.768H87.806v-6.261h6.261Z" transform="translate(-87.806 397.029)" fill="#fff"/></g></g></g><g transform="translate(2147.15 1501.936)"><g transform="translate(0 0)"><g opacity="0.55" clip-path="url(#af)"><path d="M115.693-354.034h-6.261V-360.3h6.261Z" transform="translate(-109.432 360.296)" fill="#fff"/></g></g></g><g transform="translate(2156.365 1482.905)"><g transform="translate(0 0)"><g opacity="0.55" clip-path="url(#ag)"><path d="M133.8-393.582h-6.261v-6.261H133.8Z" transform="translate(-127.541 399.842)" fill="#fff"/></g></g></g><g transform="translate(2136.977 1539.594)"><g transform="translate(0 0)"><g opacity="0.55" clip-path="url(#ah)"><path d="M102.682-275.785H96.421v-6.261h6.261Z" transform="translate(-96.421 282.046)" fill="#fff"/></g></g></g><g transform="translate(2160.081 1518.233)"><path d="M-38.123-65.687H-73.49v-60.938h13.631A21.735,21.735,0,0,1-38.123-104.89Z" transform="translate(73.49 126.625)" fill="#76afc4"/></g><g transform="translate(2167.427 1535.998)"><g transform="translate(0 0)"><g opacity="0.35" clip-path="url(#ai)"><path d="M173.126-287.488H148.758v-2.031h24.368Z" transform="translate(-148.758 289.519)" fill="#fff"/><path d="M173.126-278.521H148.758v-2.03h24.368Z" transform="translate(-148.758 284.866)" fill="#fff"/><path d="M173.126-269.554H148.758v-2.031h24.368Z" transform="translate(-148.758 280.215)" fill="#fff"/><path d="M173.126-260.589H148.758v-2.031h24.368Z" transform="translate(-148.758 275.564)" fill="#fff"/><path d="M173.126-251.621H148.758v-2.03h24.368Z" transform="translate(-148.758 270.912)" fill="#fff"/><path d="M173.126-242.655H148.758v-2.031h24.368Z" transform="translate(-148.758 266.261)" fill="#fff"/></g></g></g><g transform="translate(2215.234 1543.614)"><path d="M-21.478-38.329H-41.4v-25.6a9.962,9.962,0,0,1,9.963-9.962,9.962,9.962,0,0,1,9.962,9.962Z" transform="translate(41.404 73.886)" fill="#688da6"/></g><g transform="translate(2103.213 1393.134)"><path d="M-42.693-13.241c0-3.369-2.319-6.1-5.181-6.1a4.561,4.561,0,0,0-2.6.855A9.188,9.188,0,0,0-59.4-25.524a9.193,9.193,0,0,0-8.789,6.5,5.129,5.129,0,0,0-1.739-.321,5.18,5.18,0,0,0-5.18,5.18h-3.677A3.51,3.51,0,0,0-82.3-10.65a3.51,3.51,0,0,0,3.509,3.509h31.752A3.5,3.5,0,0,0-43.68-9.684a6.794,6.794,0,0,0,.988-3.557" transform="translate(82.298 25.524)" fill="#f4f2f2"/></g><g transform="translate(2211.827 1385.599)"><g transform="translate(0)"><g opacity="0.59" clip-path="url(#aj)"><g transform="translate(0 0)"><path d="M-35-10.855c0-2.762-1.9-5-4.247-5a3.746,3.746,0,0,0-2.135.7,7.534,7.534,0,0,0-7.319-5.77,7.537,7.537,0,0,0-7.206,5.332,4.222,4.222,0,0,0-1.425-.262,4.247,4.247,0,0,0-4.247,4.247H-64.6a2.877,2.877,0,0,0-2.877,2.877A2.878,2.878,0,0,0-64.6-5.854h26.032a2.869,2.869,0,0,0,2.753-2.085A5.567,5.567,0,0,0-35-10.855" transform="translate(67.473 20.925)" fill="#f4f2f2"/></g></g></g></g><g transform="translate(2280.839 1422.896)"><path d="M-43.5-13.492c0-3.433-2.364-6.216-5.28-6.216a4.656,4.656,0,0,0-2.653.871,9.361,9.361,0,0,0-9.1-7.171,9.368,9.368,0,0,0-8.957,6.628,5.238,5.238,0,0,0-1.772-.327,5.279,5.279,0,0,0-5.278,5.28h-3.747a3.576,3.576,0,0,0-3.576,3.575,3.576,3.576,0,0,0,3.576,3.577h32.354a3.565,3.565,0,0,0,3.421-2.592A6.926,6.926,0,0,0-43.5-13.492" transform="translate(83.861 26.008)" fill="#f4f2f2"/></g><g transform="translate(2332.304 1365.139)"><path d="M-43.122-13.373c0-3.4-2.343-6.161-5.233-6.161a4.613,4.613,0,0,0-2.63.864A9.278,9.278,0,0,0-60-25.779,9.286,9.286,0,0,0-68.88-19.21a5.193,5.193,0,0,0-1.756-.324A5.233,5.233,0,0,0-75.868-14.3h-3.713a3.545,3.545,0,0,0-3.545,3.545,3.545,3.545,0,0,0,3.545,3.545h32.07A3.534,3.534,0,0,0-44.12-9.78a6.86,6.86,0,0,0,1-3.593" transform="translate(83.126 25.779)" fill="#fff"/></g><g transform="translate(2387.96 1408.776)"><g opacity="0.59" clip-path="url(#ak)"><g transform="translate(0 0)"><path d="M-35-10.855c0-2.762-1.9-5-4.248-5a3.743,3.743,0,0,0-2.134.7,7.533,7.533,0,0,0-7.319-5.77,7.538,7.538,0,0,0-7.206,5.332,4.2,4.2,0,0,0-1.425-.263,4.248,4.248,0,0,0-4.247,4.248H-64.6a2.877,2.877,0,0,0-2.877,2.877A2.877,2.877,0,0,0-64.6-5.855h26.032a2.868,2.868,0,0,0,2.753-2.085A5.575,5.575,0,0,0-35-10.855" transform="translate(67.473 20.925)" fill="#f4f2f2"/></g></g></g><g transform="translate(2110.575 1557.175)"><path d="M-23.629-11.815A10.961,10.961,0,0,0-34.59-22.776a10.96,10.96,0,0,0-10.96,10.961A10.96,10.96,0,0,0-34.59-.854,10.961,10.961,0,0,0-23.629-11.815" transform="translate(45.551 22.776)" fill="#6f8f19"/></g><g transform="translate(2075 1553.309)"><path d="M-44.852-22.426a20.8,20.8,0,0,0-20.8-20.8,20.8,20.8,0,0,0-20.8,20.8,20.8,20.8,0,0,0,20.8,20.8,20.8,20.8,0,0,0,20.8-20.8" transform="translate(86.461 43.231)" fill="#6f8f19"/></g><g transform="translate(2153.62 1564.989)"><path d="M-46.944-23.472A21.775,21.775,0,0,0-68.718-45.248,21.775,21.775,0,0,0-90.493-23.472,21.775,21.775,0,0,0-68.718-1.7,21.775,21.775,0,0,0-46.944-23.472" transform="translate(90.493 45.248)" fill="#6f8f19"/></g><g transform="translate(2201.105 1546.293)"><path d="M-27-13.5A12.525,12.525,0,0,0-39.525-26.025,12.524,12.524,0,0,0-52.049-13.5,12.524,12.524,0,0,0-39.525-.976,12.525,12.525,0,0,0-27-13.5" transform="translate(52.049 26.025)" fill="#6f8f19"/></g><g transform="translate(2222.933 1542.032)"><path d="M-31.423-15.712A14.576,14.576,0,0,0-46-30.288,14.576,14.576,0,0,0-60.575-15.712,14.576,14.576,0,0,0-46-1.137,14.575,14.575,0,0,0-31.423-15.712" transform="translate(60.575 30.288)" fill="#6f8f19"/></g><g transform="translate(2244.16 1552.266)"><path d="M-28.337-14.168A13.144,13.144,0,0,0-41.481-27.312,13.144,13.144,0,0,0-54.625-14.168,13.144,13.144,0,0,0-41.481-1.024,13.144,13.144,0,0,0-28.337-14.168" transform="translate(54.625 27.312)" fill="#6f8f19"/></g><g transform="translate(2411.509 1548.615)"><path d="M-52.567-26.283A24.384,24.384,0,0,0-76.95-50.667a24.383,24.383,0,0,0-24.383,24.383A24.383,24.383,0,0,0-76.95-1.9,24.383,24.383,0,0,0-52.567-26.283" transform="translate(101.333 50.667)" fill="#6f8f19"/></g><g transform="translate(2329.317 1554.493)"><path d="M-39.353-19.677A18.254,18.254,0,0,0-57.606-37.931,18.254,18.254,0,0,0-75.86-19.677,18.254,18.254,0,0,0-57.606-1.423,18.253,18.253,0,0,0-39.353-19.677" transform="translate(75.86 37.931)" fill="#6f8f19"/></g><g transform="translate(2310.601 1563.914)"><path d="M-39.353-19.676A18.253,18.253,0,0,0-57.606-37.929,18.254,18.254,0,0,0-75.86-19.676,18.254,18.254,0,0,0-57.606-1.423,18.253,18.253,0,0,0-39.353-19.676" transform="translate(75.86 37.929)" fill="#6f8f19"/></g><g transform="translate(2280.132 1548.407)"><path d="M-39.353-19.676A18.253,18.253,0,0,0-57.607-37.929,18.254,18.254,0,0,0-75.861-19.676,18.254,18.254,0,0,0-57.607-1.423,18.253,18.253,0,0,0-39.353-19.676" transform="translate(75.861 37.929)" fill="#6f8f19"/></g><g transform="translate(2357.996 1556.608)"><path d="M-33.21-16.6a15.4,15.4,0,0,0-15.4-15.4,15.4,15.4,0,0,0-15.4,15.4,15.4,15.4,0,0,0,15.4,15.4,15.4,15.4,0,0,0,15.4-15.4" transform="translate(64.019 32.009)" fill="#6f8f19"/></g><g transform="translate(2385.787 1559.224)"><path d="M-30.694-15.347A14.237,14.237,0,0,0-44.93-29.584,14.237,14.237,0,0,0-59.168-15.347,14.237,14.237,0,0,0-44.93-1.11,14.237,14.237,0,0,0-30.694-15.347" transform="translate(59.168 29.584)" fill="#6f8f19"/></g><g transform="translate(2145.208 1572.998)"><path d="M-31.814-15.908A14.757,14.757,0,0,0-46.571-30.665,14.757,14.757,0,0,0-61.328-15.908,14.757,14.757,0,0,0-46.571-1.151,14.757,14.757,0,0,0-31.814-15.908" transform="translate(61.328 30.665)" fill="#92bc21"/></g><g transform="translate(2126.147 1564.339)"><path d="M-31.814-15.908A14.757,14.757,0,0,0-46.571-30.665,14.757,14.757,0,0,0-61.328-15.908,14.757,14.757,0,0,0-46.571-1.151,14.757,14.757,0,0,0-31.814-15.908" transform="translate(61.328 30.665)" fill="#92bc21"/></g><g transform="translate(2105.045 1574.113)"><path d="M-31.814-15.908A14.757,14.757,0,0,0-46.571-30.665,14.757,14.757,0,0,0-61.328-15.908,14.757,14.757,0,0,0-46.571-1.151,14.757,14.757,0,0,0-31.814-15.908" transform="translate(61.328 30.665)" fill="#92bc21"/></g><g transform="translate(2343.408 1579.76)"><path d="M-21.141-10.571a9.807,9.807,0,0,0-9.807-9.807,9.806,9.806,0,0,0-9.806,9.807A9.805,9.805,0,0,0-30.947-.765a9.806,9.806,0,0,0,9.807-9.806" transform="translate(40.753 20.377)" fill="#92bc21"/></g><g transform="translate(2358.195 1569.056)"><path d="M-38.41-19.206A17.817,17.817,0,0,0-56.226-37.023,17.817,17.817,0,0,0-74.042-19.206,17.816,17.816,0,0,0-56.226-1.389,17.817,17.817,0,0,0-38.41-19.206" transform="translate(74.042 37.023)" fill="#92bc21"/></g><g transform="translate(2396.444 1574.809)"><path d="M-31.815-15.907A14.757,14.757,0,0,0-46.572-30.664,14.757,14.757,0,0,0-61.329-15.907,14.757,14.757,0,0,0-46.572-1.15,14.757,14.757,0,0,0-31.815-15.907" transform="translate(61.329 30.664)" fill="#92bc21"/></g><g transform="translate(2212.21 1562.915)"><path d="M-43.085-21.543A19.985,19.985,0,0,0-63.07-41.528,19.985,19.985,0,0,0-83.054-21.543,19.985,19.985,0,0,0-63.07-1.558,19.985,19.985,0,0,0-43.085-21.543" transform="translate(83.054 41.528)" fill="#92bc21"/></g><g transform="translate(2182.519 1572.772)"><path d="M-43.085-21.543A19.986,19.986,0,0,0-63.07-41.528,19.985,19.985,0,0,0-83.054-21.543,19.985,19.985,0,0,0-63.07-1.558,19.985,19.985,0,0,0-43.085-21.543" transform="translate(83.054 41.528)" fill="#92bc21"/></g><g transform="translate(2244.491 1561.196)"><path d="M-43.085-21.543A19.985,19.985,0,0,0-63.07-41.528,19.985,19.985,0,0,0-83.054-21.543,19.985,19.985,0,0,0-63.07-1.558,19.985,19.985,0,0,0-43.085-21.543" transform="translate(83.054 41.528)" fill="#92bc21"/></g><g transform="translate(2280.753 1563.464)"><path d="M-43.085-21.543A19.985,19.985,0,0,0-63.07-41.528,19.985,19.985,0,0,0-83.054-21.543,19.985,19.985,0,0,0-63.07-1.558,19.985,19.985,0,0,0-43.085-21.543" transform="translate(83.054 41.528)" fill="#92bc21"/></g><g transform="translate(2269.06 1552.634)"><path d="M-12.375-5.63l-.529-5.223A19.517,19.517,0,0,0-21.72-3.1,35.119,35.119,0,0,1-23.856-.144c3.659-.262,5.348.9,6,1.561A23.315,23.315,0,0,1-12.375-5.63" transform="translate(23.856 10.853)" fill="#6f8f19"/></g></g><g transform="translate(-1474.935 -206.081)"><path d="M385.275-66.723H0v-68.444H385.275Z" transform="translate(2065.935 1529.805)" fill="#354854"/><g transform="translate(2068.471 1422.51)"><path d="M-43.926-8.491H-86.717A4.579,4.579,0,0,1-91.3-13.07a4.579,4.579,0,0,1,4.578-4.578h42.792a4.578,4.578,0,0,1,4.578,4.578,4.578,4.578,0,0,1-4.578,4.578" transform="translate(91.296 17.648)" fill="#fff"/></g><g transform="translate(2150.705 1422.51)"><path d="M-43.925-8.491H-86.716a4.578,4.578,0,0,1-4.578-4.578,4.578,4.578,0,0,1,4.578-4.578h42.791a4.578,4.578,0,0,1,4.578,4.578,4.578,4.578,0,0,1-4.578,4.578" transform="translate(91.294 17.648)" fill="#fff"/></g><g transform="translate(2232.598 1422.51)"><path d="M-43.926-8.491H-86.717A4.578,4.578,0,0,1-91.3-13.07a4.578,4.578,0,0,1,4.578-4.578h42.792a4.578,4.578,0,0,1,4.578,4.578,4.578,4.578,0,0,1-4.578,4.578" transform="translate(91.296 17.648)" fill="#fff"/></g><g transform="translate(2314.492 1422.51)"><path d="M-43.926-8.491H-86.717A4.578,4.578,0,0,1-91.3-13.07a4.578,4.578,0,0,1,4.578-4.578h42.792a4.579,4.579,0,0,1,4.578,4.578,4.579,4.579,0,0,1-4.578,4.578" transform="translate(91.296 17.648)" fill="#fff"/></g><g transform="translate(2396.725 1422.51)"><path d="M-43.925-8.491H-86.716a4.578,4.578,0,0,1-4.578-4.578,4.578,4.578,0,0,1,4.578-4.578h42.791a4.578,4.578,0,0,1,4.578,4.578,4.578,4.578,0,0,1-4.578,4.578" transform="translate(91.294 17.648)" fill="#fff"/></g></g><g transform="translate(549.825 407.751)"><g transform="translate(217.591 657.33)"><g transform="translate(0 0)"><path d="M378.427-290.689c-4.7-5.794-11.724-10.185-16.46-12.39l-6.747-2.756a11.065,11.065,0,0,1-1.362-.556,8.9,8.9,0,0,1-1.22,1.934c-.446,2.09-3.2,5.385-6.811,8.775,4.471,2.751,12.3,5.742,19.427,8.163s8.119,5.349,6.267,7.09-4.487.744-12.926,6.3-17.143,14.762-17.143,14.762c1.549,2.238,3.758,5.067,4.93,4.893a18.379,18.379,0,0,1,8.011-6.41c4.807-2.03,10.789-5.982,17.2-9.935s11.109-8.011,11.8-10.148.054-3.525-4.967-9.721" transform="translate(-247.273 369.909)" fill="#516cbe"/><path d="M349.711-254.711c8.439-5.555,11.074-4.558,12.926-6.3s.855-4.668-6.267-7.09-14.955-5.412-19.427-8.163a89.78,89.78,0,0,1-9.273,7.558,40.923,40.923,0,0,0,10.789,2.35c7.05.748,6.73.854,9.4,1.5s5.876,1.923,6.41,2.457-1.923,1.282-5.982,4.594-7.264,7.9-11.964,11.323c-1.916,1.394-3.851,2.77-5.469,3.911,0,0,.722,1.192,1.715,2.626,0,0,8.7-9.208,17.143-14.762" transform="translate(-238.391 350.489)" fill="#3e559f"/><path d="M133.577-283.483c5.128-2.25,7.264-3.733,14.528-8.433s13.1-12.677,19.8-19.086,7.264-7.834,18.58-16.6c-4.232-3.992-6.216-9.289-6.193-12.127-2.316.626-7.356,1.949-11.034,5.511-4.486,4.344-4.415,8.332-5.484,11.822s-.886,4.986-6.461,8.19-10.061,10.789-13.159,14.528-3.632,5.555-11.11,8.866-13.994,13.139-19.548,19.228a58.291,58.291,0,0,1-6.4,6.357,7.526,7.526,0,0,0,2.727,5.159s18.63-21.165,23.758-23.415" transform="translate(-96.214 391.397)" fill="#536abc"/><path d="M119.615-237.094c2.136-2.136,3.1-5.662,6.3-7.692s7.478-6.409,11.644-8.866,4.807-4.38,8.546-5.876,6.73-2.35,9.507-4.807,5.021-3.632,9.508-5.662,9.507-8.439,14.634-11.75a99.041,99.041,0,0,1,10.682-5.876c7.193-5.092,15.292-12.618,16.085-16.332-1.548,1.9-4.651,4.2-9.782,1.911a19.042,19.042,0,0,1-5.313-3.568c-11.316,8.766-11.886,10.191-18.58,16.6s-12.534,14.386-19.8,19.086-9.4,6.183-14.528,8.433-23.758,23.415-23.758,23.415a12.774,12.774,0,0,0,3.64,2.232c.347-.371.747-.786,1.21-1.249" transform="translate(-101.159 369.405)" fill="#4761aa"/><path d="M83.306-120.038c1.5,4.595-.366,9.3-.13,11.111s.913,3.2,5.791,4.593,5.448-.641,5.448-.641,1.042-2.125,1.963-1.009h0a3.518,3.518,0,0,1-.148-.594c-.107-.748-3.739-2.03-3.739-2.03s-.534-1.5.961-4.807a49.358,49.358,0,0,1,2.136-4.486,4.5,4.5,0,0,0,.107-2.35c-2.35,1.923-3.724,2.564-4.586.748s-4.387-1.282-3.425-4.379,2.365-3.261,2.144-5.53a13.146,13.146,0,0,0-3.212.082,5.684,5.684,0,0,0-2.564.961c-2.136,3.1-2.243,3.736-.748,8.331" transform="translate(-80.233 255.873)" fill="#474c5e"/><path d="M76.675-124.759c-.748,2.243.961,6.409.961,11.43s-1.068,8.225,2.457,10.468,4.38,2.671,8.225,2.137,4.273-1.389,4.487-2.03a2.048,2.048,0,0,0-.173-1.329h0c-.921-1.116-1.963,1.009-1.963,1.009s-.57,2.03-5.448.641-5.555-2.777-5.791-4.593,1.625-6.516.13-11.111-1.389-5.233.748-8.331c0,0-2.884-.534-3.632,1.709" transform="translate(-76.486 253.972)" fill="#fdfefb"/><path d="M300.144-160.7c-.321,1.6-1.282,2.884,4.487,6.623s6.623,6.3,10.575,9.294,8.012,3.739,10.469,3.1c1.7-.442,2.372-1.139,2.1-2.195-1.56.9-4.052,1.191-7.872-.689-6.944-3.419-5.021-8.332-11.857-10.864s-5.555-3.878-5.448-7.3c0,0-2.136.427-2.457,2.03" transform="translate(-220.479 277.312)" fill="#fdfefb"/><path d="M311.085-173.1a31.953,31.953,0,0,0-3.846,3.151c-.107,3.418-1.389,4.764,5.448,7.3s4.914,7.446,11.857,10.864c3.82,1.88,6.312,1.593,7.872.689a4.721,4.721,0,0,0-.929-1.651,34.2,34.2,0,0,0-5.875-5.341c-.854-.534-1.5-3.952-2.03-6.089a10.791,10.791,0,0,1-.277-1.5v0c-.579-2.769-4.208-2.124-7.919-2.124s-2.592-3.632-1.844-5.982c0,0-.534-.588-2.457.694" transform="translate(-225.117 284.529)" fill="#474c5e"/><path d="M100.041-129.082a4.559,4.559,0,0,0-.74-.118c.221,2.269-1.182,2.414-2.144,5.512s2.564,2.555,3.425,4.37,2.236,1.243,4.586-.68a4.75,4.75,0,0,0,.914-1.038h0c-7-1.709-6.041-8.046-6.041-8.046" transform="translate(-89.703 255.697)" fill="#a31a51"/><path d="M106.03-130.121c-.392.3-.541.445-.541.445s-.961,6.337,6.041,8.046h0c.239,0,.523-.661.867-1.028,0,0-6.039-2.281-6.367-7.463" transform="translate(-95.151 256.291)" fill="#f9b288"/><path d="M333.954-169.216c-.059.135-8.145-1.326-8.95-6.515-.7.489-1.118.775-1.118.775-.748,2.35-1.866,5.982,1.845,5.982s7.339-.645,7.919,2.124v0a4.637,4.637,0,0,1,.3-2.369h0" transform="translate(-235.461 285.69)" fill="#a31a51"/><path d="M337.361-172.924h0a4.744,4.744,0,0,1,.615-1.04c-1.923.284-6.644-7.519-6.645-7.52-1.187.836-2.2,1.546-2.92,2.044.8,5.19,8.891,6.65,8.95,6.515" transform="translate(-238.868 289.398)" fill="#f9b288"/><path d="M306.572-448.012q-.994-.252-2.117-.508c-4.22-.961-5.4-1.172-7.536-2.186a2.729,2.729,0,0,0-2.567-.218,2.69,2.69,0,0,1-1.121.219,41.657,41.657,0,0,0-11.859,2.458c-5.181,1.87-9.668,5.448-11.27,6.357s-3.152.926-5.359.285-3.81,2.03-5.484,2.137-1.994-.356-5.163-.783-3.169-.285-3.418-.107-.16.25-.16.25-1.994-.321-2.119.481.5,1.068,1.335,1.1,1.674.125,1.674.125-.409.962.73,1.015a7.029,7.029,0,0,1,3.152.962c.926.534,3.276,2.4,4.113,2.884a2.109,2.109,0,0,0,2.315-.142,27.3,27.3,0,0,1,5.163-2.475c.926-.214,2.172-.072,3.134-.356a41.747,41.747,0,0,1,5.662-1.638c2.065-.32,4.736-1.282,7.442-1.353s6.659-.5,9.792-.5a14.087,14.087,0,0,0,3.632-.214,7.733,7.733,0,0,0,1.368,1.263c-.62-7.529,8.663-9.059,8.664-9.059" transform="translate(-187.285 463.212)" fill="#f9b288"/><path d="M391.283-431.4c4.38-3.062,4.238-3.632,8.083-4.771s6.561-1.62,7.055-2.413a6.1,6.1,0,0,1-3.972-1.375c-.923-.835-3.046-1.592-6.118-2.37,0,0-9.284,1.529-8.664,9.059a9.9,9.9,0,0,0,1.267.8,12.428,12.428,0,0,0,2.35,1.068" transform="translate(-277.043 457.531)" fill="#7801c1"/><path d="M381.022-365.188a4.531,4.531,0,0,0-1-3.088c-.57-1-.57,1.852-5.7,3.7S361.055-361.44,359-357.737s.368,3.156-4.332,7.774a52.649,52.649,0,0,0-6.436,7.789c7.161,2.493,10-4.24,10-4.24-.534-.321,1.389-2.35,3.846-2.778a36.02,36.02,0,0,0,6.516-1.816c1.282-.534.961-1.709,3.2-1.923s4.273-2.564,5.555-2.778a14.786,14.786,0,0,0,3.846-2.03c-.748-3.56-.169-5.645-.174-7.451" transform="translate(-251.644 409.931)" fill="#7801c1"/><path d="M374.263-401.606c-1.068-3.471-3.151-4.7-3.151-5.127s.748-3.739.427-6.089-.534-3.472-1.442-4.754-3.1-3.152-2.937-5.128,1.442-3.685.48-5.608a4.46,4.46,0,0,0-2.484-2.35c-4.54-1.335-5.594-1.148-6.823-1.148-.494.792-3.209,1.273-7.055,2.413s-3.7,1.709-8.083,4.771a64.553,64.553,0,0,0-9.365,6.409c-4.54,3.792-10.362,10.042-13.834,13.353s-4.753,4.968-5.875,5.448a10.474,10.474,0,0,1-1.09.329c-.031,3.837,3.6,12.17,11.506,15.694.346.155.679.281,1.006.394a52.652,52.652,0,0,1,6.436-7.789c4.7-4.618,2.279-4.071,4.332-7.774s10.2-4.985,15.323-6.837,5.127-4.7,5.7-3.7a4.531,4.531,0,0,1,1,3.088c0,1.806-.574,3.891.174,7.451,0,0,.339.837.856,2.1,7.369.468,14.9-5.141,14.9-5.141" transform="translate(-228.955 450.755)" fill="#9b15ed"/><path d="M453.072-349.451c1.282.32,1.14-.249,6.2-1.531a44.511,44.511,0,0,0,13.673-6.053c3.632-2.492,8.332-5.555,8.332-5.555A13,13,0,0,0,486.4-364.8a29.8,29.8,0,0,0,4.113-4.041,8.19,8.19,0,0,1,2.937-2.564c.855-.374,2.19-1.175,2.43-1.843s-.08-1.1-1.2-.748a29.477,29.477,0,0,0-2.751,1.2,6.829,6.829,0,0,0-1.469.721c-.214.187-.347-.107.427-.854s1.949-1.736,2.831-2.43a18.656,18.656,0,0,0,1.763-1.362c.294-.347.508-1.442-.614-1.228a10.368,10.368,0,0,0-2.7,1.121c-.667.321-.908.241-1.415.615s-1.736,1.9-1.923,2.056.294-.721,1.069-1.5a15.076,15.076,0,0,1,2.056-1.682c.561-.4,2.083-1.736,2.67-2.03s.534-1.816-.908-1.6-3.312,1.763-3.926,2.11a9.893,9.893,0,0,0-1.682,1.469c-.481.454-.614.854-1.068.935s.294-1.175.962-2.27a14.328,14.328,0,0,1,2.056-2.751c.587-.534,1.362-1.5.961-2.163s-1.469-.32-2.751.935a17.193,17.193,0,0,0-2.27,2.324c-.214.427-1.469,2.7-1.709,3.044a12.7,12.7,0,0,1-2.484,2.19,14.118,14.118,0,0,1-2.243.774c-.427.24-.481.908-.641,2.483s-.347,2.163-.374,2.484a1.6,1.6,0,0,1-.347.8c-.107.107-5.314,2.644-6.917,3.231s-2.563,1.234-3.952,1.234-4.486.059-5.875.059H459.7a20.635,20.635,0,0,0-.906-6.468S451.107-365.1,444-365.568v-.027c.948,2.741,2.991,7.473,4.162,9.962,1.709,3.632,3.63,5.862,4.911,6.182" transform="translate(-313.372 419.912)" fill="#f9b288"/><path d="M548.529-370.647c.356-1.782-.783-3.826-1.638-3.345s-.321,1.869-.427,2.831-1.816,1.709-2.4,3.178a14.112,14.112,0,0,0,2.243-.774,13.38,13.38,0,0,0,2.226-1.889" transform="translate(-377.868 413.528)" fill="#f0ab83"/><path d="M484.42-466.771c-.32-3.739-2.991-9.507-11.751-10.469s-9.71,7.371-10.564,9.225-3.351,7.226-4.773,7.841h0a2.745,2.745,0,0,1,.74.185,4.467,4.467,0,0,1,2.531,2.35c.962,1.923-.3,3.632-.457,5.608s2.042,3.846,2.95,5.128a22.67,22.67,0,0,1,2.481-1.389c.925-.392,2.033-1.46,3.492-1.46a7.644,7.644,0,0,1,4.7,1.994,2.157,2.157,0,0,0,3.526-1.282c.285-1.14.713-1.1.713-1.1a3.153,3.153,0,0,0,1.1-.649c.214-.32-.107-.819-.107-.819l.57-.285a9.051,9.051,0,0,1,.249-1c.142-.428.5-.819.712-.747a10.573,10.573,0,0,0,1.531,0c.57,0,1,.071.962-1.1s-.285-2.564-.463-4.024-.036-1.317,1-2.136,1.175-2.137.854-5.876" transform="translate(-321.966 480.082)" fill="#f9b288"/><path d="M479-416.518c.926-.392,2.032-1.46,3.491-1.46a7.643,7.643,0,0,1,4.7,1.994c-1.138-1.317-1.494-2.315-3.489-3.775a6.137,6.137,0,0,1-2.671-5.519c.107-2.136-.336-3.431-.5-2.367-.536,3.515-1.855,9.259-2.38,11.545.3-.163.595-.313.845-.419" transform="translate(-335.39 448.309)" fill="#e28f6a"/><path d="M462.572-467.087a4.505,4.505,0,0,0,6.1-.692c1.816-1.87,6.249-4.447,7.211-2.116s-.107,4.36,0,4.68,1.762.784,1.762.784.427-3.3,2.19-4.233,2.457-1.732,1.763-4.029,2.884-2.754,4.005-.336,2.312,2.579,2.227,1.7,1.565-5.634-2.815-8.946-7.371-5.341-10.362-4.7-4.22-.267-6.142,1.816-4.166,2.884-3.9,5.662.854,2.19-.481,4.7a16.552,16.552,0,0,0-1.563,5.713" transform="translate(-325.344 485.096)" fill="#2b2827"/><path d="M522.2-434.91c-1.638-1.531-2.279-1.317-3.134-1.14s-2.421.553-1.531.508a3.467,3.467,0,0,1,2.635.632,2.005,2.005,0,0,0,1.318.641l.712-.641" transform="translate(-360.599 453.562)" fill="#231714"/><path d="M550.673-372.049c.72.076,1.067.022,1.094-.512s-.054-1.5-.641-1.335c-.588.331-.519,1.091-.453,1.847" transform="translate(-382.104 413.431)" fill="#fddfc9"/><path d="M570.453-383.3c.153.513.447.941,1.061.62s1.224-1.406.318-1.29a2.282,2.282,0,0,0-1.379.671" transform="translate(-394.88 419.92)" fill="#fddfc9"/><path d="M582.5-373.735c-.507-.234-.828-.635-.8-.8s.91-.908,1.469-.4-.668,1.2-.668,1.2" transform="translate(-402.129 414.199)" fill="#fddfc9"/><path d="M586.146-366.011c-.249-.284.388-1.068.869-.641s-.328,1.258-.869.641" transform="translate(-404.959 408.831)" fill="#fddfc9"/><path d="M587.082-355.215s.107.347.681.107.267-.935-.34-.721-.341.615-.341.615" transform="translate(-405.561 401.801)" fill="#fddfc9"/><path d="M279.67-426.183c-.442.3-.8-.125-1.152-.588s-.249-.6-.534-1.049-.926-.8-1.638,0a2.139,2.139,0,0,0,0,2.651c.5.434,1.547.891,1.432,1.781s1.532,1.862,3.295,1.593a5.224,5.224,0,0,0,2.858-1.024c.5-.456,2.457-2.884.178-3.418s-3.87-.337-4.439.054" transform="translate(-205.013 448.485)" fill="#f9b288"/><path d="M263.033-411.393l-.01-.006.01.006m-.019-.011-.013-.008.013.008m-.018-.01a7.194,7.194,0,0,0-2.567-.879h.019a7.185,7.185,0,0,1,2.547.879" transform="translate(-195.049 438.17)" fill="#bdafa5"/><path d="M302.374-423.068l.026,0h-.026" transform="translate(-222.086 445.116)" fill="#aea79e"/><path d="M268.273-415.167a2.15,2.15,0,0,1-1.072-.275c-.837-.481-3.187-2.35-4.113-2.884h0l-.02-.011-.01-.006-.009-.005-.013-.008,0,0a7.186,7.186,0,0,0-2.547-.879,13.734,13.734,0,0,1,6.636,2.229,3.087,3.087,0,0,0,1.73.636A2.333,2.333,0,0,0,270.8-417.6c.186-.281-.339-.529-.958-.844a4.026,4.026,0,0,0,.7.061,3.973,3.973,0,0,0,.6-.046A5.222,5.222,0,0,0,274-419.449c.384-.35,1.627-1.863,1.151-2.788-.122-.446.028-.8.219-.83h.041c.159.014.336.253.4.842.156,1.335-.717,3.816,1.781,3.816.068,0,.139,0,.213-.006-.962.285-2.208.143-3.134.356a27.292,27.292,0,0,0-5.163,2.475,1.835,1.835,0,0,1-1.243.417" transform="translate(-195.085 445.115)" fill="#eba27a"/><path d="M282.983-418.427a4.025,4.025,0,0,1-.7-.061,4.779,4.779,0,0,1-1.232-.8c-.758-.78.481-.672-.534-1.919-.072-.089-.442-.579-.729-.958a1.828,1.828,0,0,0,.818-.858c.016-.04.03-.081.042-.121.389.291,1.116.812,1.151.868.641,1.051.053,1.573,1.442,1.686.865.07,1.6.227,2.259.227a2.44,2.44,0,0,0,1.107-.227c.913-.45,1.234-.839.994-1.686l0-.011c.476.925-.767,2.438-1.151,2.788a5.222,5.222,0,0,1-2.858,1.024,3.977,3.977,0,0,1-.6.045" transform="translate(-207.527 445.162)" fill="#eba27a"/><path d="M276.535-426.623h0m0-.009,0-.009,0,.009m.006-.011,0-.009,0,.009m.005-.01a1.649,1.649,0,0,1,.2-.284,1.671,1.671,0,0,0-.2.284m.2-.285.006-.008-.006.008m.008-.009.008-.009-.008.009" transform="translate(-205.431 447.621)" fill="#d9bcab"/><path d="M276.684-425.322a.82.82,0,0,1-.615-.267,2.337,2.337,0,0,1,.053-1.9h0l0-.007,0-.009v0l0-.009h0a1.67,1.67,0,0,1,.2-.284h0l.006-.008,0,0,.008-.009h0a1.181,1.181,0,0,1,.86-.476.821.821,0,0,1,.462.148c.166.166.287.29.316.327l.059.1a1.773,1.773,0,0,1,.09,1.254,2.287,2.287,0,0,1-.238-.191c-.5.35-.485.518-.961.721.036.046.173.229.339.448a1.289,1.289,0,0,1-.593.163" transform="translate(-205.017 448.484)" fill="#f9b08a"/><path d="M279.172-422.509c-.166-.219-.3-.4-.339-.448.476-.2.465-.371.961-.721a2.315,2.315,0,0,0,.238.191c-.012.04-.027.081-.042.121a1.828,1.828,0,0,1-.818.858" transform="translate(-206.912 445.508)" fill="#f7a882"/><path d="M515.7-406.734c0-.1-.1-.3-.866-.315a7.792,7.792,0,0,1-1.478-.125s.208,2.371,1.17,2.079a1.919,1.919,0,0,0,.7-.476c.214-.32-.107-.819-.107-.819l.57-.285.011-.059" transform="translate(-358.077 434.87)" fill="#e4a17b"/><path d="M496.543-444.239l7.367,3.7-.331.712-6.784-3.409-.252-1.005" transform="translate(-347.24 458.761)" fill="#b6bebb"/><path d="M490.771-444.19c-.866-2-2.314-2.706-3.561-1.781s-1.175,2.635-.712,4.451,1.211,2.457,1.211,3.1,1.282.143,1.709-.89.89-.392.819-1.888-.641-1.281.036-1.851.676-.73.5-1.14" transform="translate(-340.567 460.135)" fill="#f9b288"/><path d="M491.286-438.854c-1.336.331-1.781.991-1.282,1.528s.9.43.857,1.249.353.107.425-.641-.285-.641,0-1.1.461-1.147,0-1.033" transform="translate(-342.898 455.298)" fill="#d28563"/><path d="M487.829-438.178a4.894,4.894,0,0,0-.654-3.021c-.677-1.21-.982-2.561.142-3.736s1.847-.491,2.778.674a3.061,3.061,0,0,0,.725.624.6.6,0,0,0-.049-.553c-.866-2-2.314-2.706-3.561-1.781s-1.175,2.635-.712,4.451,1.211,2.457,1.211,3.1a.261.261,0,0,0,.12.244" transform="translate(-340.567 460.135)" fill="#f9a67c"/><path d="M514.46-430.3l-1.686-.74a1.125,1.125,0,0,1-.578-1.483l.712-1.624a1.161,1.161,0,0,1,1.529-.6l3.633,1.595a.948.948,0,0,1,.488,1.249,3.111,3.111,0,0,1-4.1,1.6" transform="translate(-357.269 452.706)" fill="#242e2f"/><path d="M303.987-424.366A41.75,41.75,0,0,1,309.649-426c2.065-.32,4.736-1.282,7.442-1.353s6.659-.5,9.792-.5a14.086,14.086,0,0,0,3.632-.214c-2.243-2.065-2.528-3.347-3.026-3.774s-1.425-1.068-7.976.854-13.745,3.917-15.952,4.131c-1.446.14-1.7,1.29-2.468,2.806a24.519,24.519,0,0,0,2.895-.313" transform="translate(-221.26 451.065)" fill="#e28f6a"/></g></g><g transform="translate(57.175 671.33)"><g transform="translate(89.099 61.565)"><path d="M-14.189-9.915l-5.344,1.848A3.68,3.68,0,0,1-24.2-10.336h0A3.679,3.679,0,0,1-21.931-15l5.344-1.848a3.68,3.68,0,0,1,4.666,2.269,3.679,3.679,0,0,1-2.269,4.666" transform="translate(24.401 17.051)" fill="#ed9480"/></g><g transform="translate(51.842 71.758)"><path d="M-38.493-33.082-63.721-47.647a4.968,4.968,0,0,1-1.813-6.768,4.969,4.969,0,0,1,6.768-1.814l25.227,14.566A4.969,4.969,0,0,1-31.725-34.9a4.969,4.969,0,0,1-6.768,1.813" transform="translate(66.194 56.889)" fill="#0c0861"/></g><g transform="translate(66.051 85.488)"><path d="M-29.459-9.65-41.17,17.024A4.97,4.97,0,0,1-47.7,19.568a4.969,4.969,0,0,1-2.545-6.528l11.711-26.674A4.968,4.968,0,0,1-32-16.178,4.969,4.969,0,0,1-29.459-9.65" transform="translate(50.659 16.594)" fill="#ed9480"/></g><g transform="translate(67.274 43.96)"><path d="M-11.463-29.221l-7.861-15.7a3.694,3.694,0,0,1,1.644-4.943,3.694,3.694,0,0,1,4.943,1.644l7.861,15.7A3.694,3.694,0,0,1-6.52-27.577a3.694,3.694,0,0,1-4.943-1.644" transform="translate(19.712 50.249)" fill="#ed9480"/></g><g transform="translate(76.156 59.989)"><path d="M-26.651-17.673l-16.66-5.541a3.693,3.693,0,0,1-2.332-4.657A3.694,3.694,0,0,1-40.986-30.2l16.659,5.541a3.694,3.694,0,0,1,2.333,4.657,3.694,3.694,0,0,1-4.657,2.333" transform="translate(45.831 30.392)" fill="#ed9480"/></g><g transform="translate(64.134 38.966)"><path d="M-17.235-19.241l-5.18,2.594a1.575,1.575,0,0,1-2.107-.7l-4.645-9.275a4.481,4.481,0,0,1,1.994-5.995,4.481,4.481,0,0,1,5.995,1.994l4.645,9.275a1.575,1.575,0,0,1-.7,2.107" transform="translate(29.638 33.087)" fill="#9b15ed"/></g><g transform="translate(68.803 117.771)"><path d="M-6.659-15.669l13.6.021a4.814,4.814,0,0,0,4.808-4.792l0-1.676a4.814,4.814,0,0,0-4.792-4.808l-13.6-.021a4.814,4.814,0,0,0-4.808,4.793l0,1.676a4.814,4.814,0,0,0,4.792,4.808" transform="translate(11.452 26.945)" fill="#ad004c"/></g><g transform="translate(68.804 113.113)"><path d="M-6.386-21.307l1.461,0A4.617,4.617,0,0,0-.314-25.9L-.3-32.029A4.617,4.617,0,0,0-4.9-36.64l-1.461,0a4.616,4.616,0,0,0-4.61,4.6l-.009,6.128a4.617,4.617,0,0,0,4.6,4.611" transform="translate(10.981 36.641)" fill="#ad004c"/></g><g transform="translate(85.802 116.738)"><path d="M-4.406-16.3h.148a3.186,3.186,0,0,0,3.18-3.172l.008-5.382a3.184,3.184,0,0,0-3.17-3.18h-.148a3.184,3.184,0,0,0-3.18,3.17l-.008,5.384A3.184,3.184,0,0,0-4.406-16.3" transform="translate(7.576 28.037)" fill="#a3abb0"/></g><g transform="translate(68.798 125.509)"><path d="M-2.729-5.465l19.934.032A1.973,1.973,0,0,0,19.175-7.4a1.973,1.973,0,0,0-1.964-1.97L-2.723-9.4a1.972,1.972,0,0,0-1.97,1.964,1.974,1.974,0,0,0,1.964,1.97" transform="translate(4.693 9.399)" fill="#fff"/></g><g transform="translate(71.213 116.18)"><path d="M-3.145-6.3h0A2.273,2.273,0,0,0-.874-8.563a2.274,2.274,0,0,0-2.263-2.27A2.273,2.273,0,0,0-5.408-8.57,2.273,2.273,0,0,0-3.145-6.3" transform="translate(5.408 10.833)" fill="#f9f8ec"/></g><g transform="translate(84.107 117.388)"><path d="M-.695-6.637h0a.5.5,0,0,0,.5-.5l.006-3.775a.5.5,0,0,0-.5-.5.5.5,0,0,0-.5.5l-.006,3.776a.5.5,0,0,0,.5.5" transform="translate(1.195 11.413)" fill="#f9f8ec"/></g><g transform="translate(82.158 117.385)"><path d="M-.694-6.637h0a.5.5,0,0,0,.5-.5l.006-3.776a.5.5,0,0,0-.5-.5.5.5,0,0,0-.5.5l-.006,3.776a.5.5,0,0,0,.5.5" transform="translate(1.193 11.413)" fill="#f9f8ec"/></g><g transform="translate(80.207 117.382)"><path d="M-.694-6.636h0a.5.5,0,0,0,.5-.5l.006-3.775a.5.5,0,0,0-.5-.5.5.5,0,0,0-.5.5l-.006,3.776a.5.5,0,0,0,.5.5" transform="translate(1.193 11.412)" fill="#f9f8ec"/></g><g transform="translate(49.576 13.877)"><path d="M-24.355-32.691l-17.527,7.235,5.219-30.761h24.9v10.939A12.587,12.587,0,0,1-24.355-32.691" transform="translate(41.883 56.217)" fill="#001f30"/></g><g transform="translate(76.131 17.218)"><path d="M-6.7-3.35A2.411,2.411,0,0,0-9.112-5.761,2.411,2.411,0,0,0-11.524-3.35,2.412,2.412,0,0,0-9.112-.939,2.411,2.411,0,0,0-6.7-3.35" transform="translate(11.524 5.761)" fill="#f7c6a2"/></g><g transform="translate(76.837 17.923)"><path d="M-4.738-2.369A1.705,1.705,0,0,0-6.443-4.075a1.7,1.7,0,0,0-1.7,1.705,1.7,1.7,0,0,0,1.7,1.705A1.705,1.705,0,0,0-4.738-2.369" transform="translate(8.148 4.075)" fill="#f79852"/></g><g transform="translate(55.167 17.218)"><path d="M-6.7-3.35A2.411,2.411,0,0,0-9.112-5.761,2.411,2.411,0,0,0-11.524-3.35,2.412,2.412,0,0,0-9.112-.939,2.411,2.411,0,0,0-6.7-3.35" transform="translate(11.524 5.761)" fill="#f7c6a2"/></g><g transform="translate(55.874 17.923)"><path d="M-4.738-2.369A1.705,1.705,0,0,0-6.443-4.075a1.705,1.705,0,0,0-1.7,1.705,1.7,1.7,0,0,0,1.7,1.705A1.705,1.705,0,0,0-4.738-2.369" transform="translate(8.148 4.075)" fill="#f79852"/></g><g transform="translate(40.159 66.157)"><path d="M-24.116-24.783h-11.3a6.072,6.072,0,0,1-6.055-6.055v-5.725a6.072,6.072,0,0,1,6.055-6.055h11.3a6.072,6.072,0,0,1,6.054,6.055v5.725a6.072,6.072,0,0,1-6.054,6.055" transform="translate(41.471 42.617)" fill="#771f43"/></g><g transform="translate(39.976 35.278)"><path d="M-21.037-62.88l-12.285-4.481a4.357,4.357,0,0,1-2.592-5.569l10.606-29.077a9.349,9.349,0,0,1,11.952-5.563l4.63,1.689A9.349,9.349,0,0,1-3.163-93.929l-9.986,27.378a6.171,6.171,0,0,1-7.888,3.672" transform="translate(36.176 108.132)" fill="#7801c1"/></g><g transform="translate(58.983 43.675)"><path d="M-11.463-29.22l-7.862-15.7a3.694,3.694,0,0,1,1.644-4.943,3.694,3.694,0,0,1,4.943,1.644l7.861,15.7a3.693,3.693,0,0,1-1.644,4.942,3.693,3.693,0,0,1-4.943-1.644" transform="translate(19.713 50.248)" fill="#f7c6a2"/></g><g transform="translate(67.639 60.787)"><path d="M-27.729-15.61l-17.1-3.963a3.694,3.694,0,0,1-2.757-4.419,3.693,3.693,0,0,1,4.419-2.757l17.1,3.963a3.694,3.694,0,0,1,2.758,4.419,3.694,3.694,0,0,1-4.42,2.757" transform="translate(47.684 26.844)" fill="#f7c6a2"/></g><g transform="translate(61.246 29.558)"><path d="M-4.3-12.562l-1.154-.464a3.106,3.106,0,0,1-1.719-4.029l1.047-2.606A3.107,3.107,0,0,1-2.1-21.38l1.154.464A3.106,3.106,0,0,1,.776-16.886L-.271-14.281A3.107,3.107,0,0,1-4.3-12.562" transform="translate(7.396 21.602)" fill="#ed9480"/></g><g transform="translate(57.388 5.211)"><path d="M-14.87-40.031h0a10.732,10.732,0,0,1-10.7-10.7v-7.408a10.732,10.732,0,0,1,10.7-10.7,10.732,10.732,0,0,1,10.7,10.7v7.408a10.732,10.732,0,0,1-10.7,10.7" transform="translate(25.571 68.84)" fill="#f7c6a2"/></g><g transform="translate(56.867 14.007)"><path d="M-1.275-9.464h0a.918.918,0,0,1-.918-.918v-5.893H-.358v5.893a.918.918,0,0,1-.918.918" transform="translate(2.193 16.275)" fill="#001f30"/></g><g transform="translate(77.475 14.007)"><path d="M-1.275-9.464h0a.918.918,0,0,1-.918-.918v-5.893H-.358v5.893a.918.918,0,0,1-.918.918" transform="translate(2.193 16.275)" fill="#001f30"/></g><g transform="translate(63.464 24.007)"><path d="M-13.027-6.514a4.687,4.687,0,0,1-4.688,4.688A4.687,4.687,0,0,1-22.4-6.514,4.687,4.687,0,0,1-17.715-11.2a4.687,4.687,0,0,1,4.688,4.688" transform="translate(22.403 11.201)" fill="#f7c6a2"/></g><g transform="translate(64.051 26.093)"><path d="M0,0A4.127,4.127,0,0,0,.081.811,4.091,4.091,0,0,0,1.332,3.019a4.062,4.062,0,0,0,.612.464A4.071,4.071,0,0,0,4.1,4.1a4.075,4.075,0,0,0,2.156-.617,4.1,4.1,0,0,0,.612-.464A4.087,4.087,0,0,0,8.12.811,4.127,4.127,0,0,0,8.2,0Z" transform="translate(0 0)" fill="#f9f8ec"/></g><g transform="translate(64.051 26.093)"><path d="M0-.765H8.2A.765.765,0,0,1,8.965,0a4.91,4.91,0,0,1-.1.961A4.825,4.825,0,0,1,7.385,3.582a4.88,4.88,0,0,1-.725.55A4.853,4.853,0,0,1,4.1,4.865a4.847,4.847,0,0,1-2.56-.733,4.834,4.834,0,0,1-.725-.55A4.827,4.827,0,0,1-.669.961,4.911,4.911,0,0,1-.765,0,.765.765,0,0,1,0-.765ZM7.347.765H.853a3.31,3.31,0,0,0,1,1.691,3.307,3.307,0,0,0,.5.377,3.321,3.321,0,0,0,1.755.5,3.325,3.325,0,0,0,1.753-.5,3.35,3.35,0,0,0,.5-.378A3.308,3.308,0,0,0,7.347.765Z" transform="translate(0 0)" fill="#dd0640"/></g><g transform="translate(64.132 26.904)"><path d="M-5.586-1.44A2.243,2.243,0,0,1-3.621-.268h.8A4.089,4.089,0,0,0-1.566-2.476H-9.605A4.09,4.09,0,0,0-8.353-.268h.8A2.243,2.243,0,0,1-5.586-1.44" transform="translate(9.605 2.476)" fill="#001f30"/></g><g transform="translate(66.187 27.94)"><path d="M-2.73,0A2.243,2.243,0,0,0-4.695,1.172H-.765A2.243,2.243,0,0,0-2.73,0" transform="translate(4.695)" fill="#b7153b"/></g><g transform="translate(64.051 26.093)"><path d="M-11.4,0h-8.2a4.127,4.127,0,0,0,.081.811h8.039A4.085,4.085,0,0,0-11.4,0" transform="translate(19.596)" fill="#f9f8ec"/></g><g transform="translate(65.384 29.112)"><path d="M-6.577,0h-4.733A4.1,4.1,0,0,0-10.7.464a4.071,4.071,0,0,0,2.157.618A4.077,4.077,0,0,0-6.385.464,4.141,4.141,0,0,0-5.774,0Z" transform="translate(11.309)" fill="#f9f8ec"/></g><g transform="translate(55.873 38.245)"><path d="M-17.235-19.241l-5.18,2.595a1.575,1.575,0,0,1-2.107-.7l-4.645-9.275a4.481,4.481,0,0,1,1.994-5.995,4.481,4.481,0,0,1,5.995,1.994l4.645,9.275a1.575,1.575,0,0,1-.7,2.107" transform="translate(29.638 33.087)" fill="#9b15ed"/></g><g transform="translate(54.241 0)"><path d="M-36.425-20.274H-61.031a1.608,1.608,0,0,1-1.608-1.608v-1.076A11.942,11.942,0,0,1-50.732-34.864h4.007A11.942,11.942,0,0,1-34.817-22.957v1.076a1.608,1.608,0,0,1-1.608,1.608" transform="translate(62.639 34.864)" fill="#dd0640"/></g><g transform="translate(54.178 2.313)"><path d="M-31.879,0a11.826,11.826,0,0,1,2.313,7.028V8.1a1.608,1.608,0,0,1-1.608,1.608H-54.821v.959a1.608,1.608,0,0,0,1.608,1.608h24.605A1.608,1.608,0,0,0-27,10.67V9.594A11.911,11.911,0,0,0-31.879,0" transform="translate(54.821)" fill="#b7153b"/></g><g transform="translate(54.328 0)"><path d="M-2.448-18.994A11.942,11.942,0,0,1,9.46-30.9h4.007a11.837,11.837,0,0,1,7.481,2.664A11.9,11.9,0,0,0,11.7-32.663H7.7A11.942,11.942,0,0,0-4.209-20.755v1.075A1.608,1.608,0,0,0-2.6-18.073h.153Z" transform="translate(4.209 32.663)" fill="#e43866"/></g><g transform="translate(63.19 9.566)"><path d="M-3.462-1.731A1.246,1.246,0,0,1-4.707-.485,1.245,1.245,0,0,1-5.953-1.731,1.245,1.245,0,0,1-4.707-2.976,1.246,1.246,0,0,1-3.462-1.731" transform="translate(5.953 2.976)" fill="#434b54"/></g><g transform="translate(66.906 9.566)"><path d="M-3.462-1.731A1.246,1.246,0,0,1-4.707-.485,1.245,1.245,0,0,1-5.953-1.731,1.245,1.245,0,0,1-4.707-2.976,1.246,1.246,0,0,1-3.462-1.731" transform="translate(5.953 2.976)" fill="#434b54"/></g><g transform="translate(70.622 9.566)"><path d="M-3.462-1.731A1.246,1.246,0,0,1-4.708-.485,1.245,1.245,0,0,1-5.953-1.731,1.245,1.245,0,0,1-4.708-2.976,1.246,1.246,0,0,1-3.462-1.731" transform="translate(5.953 2.976)" fill="#434b54"/></g><g transform="translate(58.157 1.734)"><path d="M0-7.3A5.872,5.872,0,0,1,1.444-9.708,9.041,9.041,0,0,1,3.712-11.43a10.218,10.218,0,0,1,2.674-.932,11.351,11.351,0,0,1,1.394-.18,12.319,12.319,0,0,1,1.4.043c-.441.174-.881.291-1.313.431-.427.16-.859.278-1.274.444s-.836.3-1.232.5c-.412.159-.8.368-1.19.564A15.823,15.823,0,0,0,1.96-9.145,13.181,13.181,0,0,0,0-7.3" transform="translate(0 12.546)" fill="#f4afc2"/></g><g transform="translate(85.781 62.607)"><path d="M-14.359-9.738-19.508-7.4a3.68,3.68,0,0,1-4.858-1.823,3.679,3.679,0,0,1,1.824-4.857l5.149-2.339A3.681,3.681,0,0,1-12.535-14.6h0a3.68,3.68,0,0,1-1.824,4.857" transform="translate(24.692 16.745)" fill="#f7c6a2"/></g><g transform="translate(30.689 106.328)"><path d="M0-35.713v-25.7" transform="translate(0 61.413)" fill="#768391"/></g><path d="M214.927-198.887h-.394v-25.7h.394Z" transform="translate(-184.041 330.915)" fill="#768391"/><g transform="translate(24.044 107.255)"><path d="M-9.243-34.5-15.895-59.32" transform="translate(15.895 59.32)" fill="#768391"/></g><g transform="translate(23.854 107.204)"><path d="M-9.772-34.5l-.381.1L-16.8-59.218l.381-.1Z" transform="translate(16.804 59.32)" fill="#768391"/></g><g transform="translate(17.865 109.87)"><path d="M-17.856-30.928l-12.85-22.257" transform="translate(30.707 53.185)" fill="#768391"/></g><g transform="translate(17.695 109.771)"><path d="M-18.33-30.928l-.341.2-12.85-22.258.341-.2Z" transform="translate(31.521 53.185)" fill="#768391"/></g><g transform="translate(12.574 113.995)"><path d="M-25.252-25.252-43.425-43.425" transform="translate(43.425 43.425)" fill="#768391"/></g><g transform="translate(12.435 113.856)"><path d="M-25.639-25.252l-.278.278L-44.091-43.147l.278-.278Z" transform="translate(44.091 43.425)" fill="#768391"/></g><g transform="translate(8.53 119.35)"><path d="M-30.928-17.856l-22.257-12.85" transform="translate(53.185 30.705)" fill="#768391"/></g><g transform="translate(8.432 119.179)"><path d="M-31.2-17.856l-.2.341-22.257-12.85.2-.341Z" transform="translate(53.656 30.705)" fill="#768391"/></g><g transform="translate(6.01 125.567)"><path d="M-34.5-9.243-59.32-15.895" transform="translate(59.32 15.895)" fill="#768391"/></g><g transform="translate(5.959 125.377)"><path d="M-34.637-9.243l-.1.381-24.825-6.652.1-.381Z" transform="translate(59.564 15.895)" fill="#768391"/></g><g transform="translate(5.185 132.226)"><path d="M-35.713,0h-25.7" transform="translate(61.413)" fill="#768391"/></g><path d="M179.762-162.78h-25.7v-.394h25.7Z" transform="translate(-148.876 295.203)" fill="#768391"/><g transform="translate(6.112 132.219)"><path d="M-34.5,0-59.32,6.652" transform="translate(59.32)" fill="#768391"/></g><g transform="translate(6.061 132.029)"><path d="M-34.5,0l.1.381L-59.218,7.033l-.1-.381Z" transform="translate(59.32)" fill="#768391"/></g><g transform="translate(8.727 132.199)"><path d="M-30.928,0-53.185,12.85" transform="translate(53.185)" fill="#768391"/></g><g transform="translate(8.629 132.029)"><path d="M-30.928,0l.2.341L-52.988,13.192l-.2-.341Z" transform="translate(53.185)" fill="#768391"/></g><g transform="translate(12.852 132.168)"><path d="M-25.252,0-43.425,18.172" transform="translate(43.425)" fill="#768391"/></g><g transform="translate(12.713 132.029)"><path d="M-25.252,0l.278.278L-43.147,18.451l-.278-.278Z" transform="translate(43.425)" fill="#768391"/></g><g transform="translate(18.206 132.127)"><path d="M-17.856,0l-12.85,22.257" transform="translate(30.707)" fill="#768391"/></g><g transform="translate(18.036 132.029)"><path d="M-17.856,0l.341.2-12.85,22.257-.341-.2Z" transform="translate(30.707)" fill="#768391"/></g><g transform="translate(24.424 132.08)"><path d="M-9.243,0l-6.652,24.825" transform="translate(15.895)" fill="#768391"/></g><g transform="translate(24.234 132.029)"><path d="M-9.243,0l.381.1-6.652,24.825-.381-.1Z" transform="translate(15.895)" fill="#768391"/></g><g transform="translate(31.083 132.029)"><path d="M0,0V25.7" fill="#768391"/></g><path d="M215.474-163.174h.394v25.7h-.394Z" transform="translate(-184.588 295.203)" fill="#768391"/><g transform="translate(31.076 131.978)"><path d="M0,0,6.652,24.825" fill="#768391"/></g><g transform="translate(30.886 131.927)"><path d="M0-.142l.381-.1L7.032,24.581l-.381.1Z" transform="translate(0 0.244)" fill="#768391"/></g><g transform="translate(31.057 131.93)"><path d="M0,0,12.85,22.258" fill="#768391"/></g><g transform="translate(30.886 131.832)"><path d="M0-.274l.341-.2,12.85,22.257-.341.2Z" transform="translate(0 0.471)" fill="#768391"/></g><g transform="translate(31.025 131.89)"><path d="M0,0,18.173,18.172" fill="#768391"/></g><g transform="translate(30.886 131.75)"><path d="M0-.387.278-.665,18.451,17.508l-.278.278Z" transform="translate(0 0.665)" fill="#768391"/></g><g transform="translate(30.984 131.858)"><path d="M0,0,22.257,12.85" fill="#768391"/></g><g transform="translate(30.886 131.688)"><path d="M0-.474.2-.815l22.257,12.85-.2.341Z" transform="translate(0 0.815)" fill="#768391"/></g><g transform="translate(30.937 131.838)"><path d="M0,0,24.825,6.652" fill="#768391"/></g><g transform="translate(30.886 131.648)"><path d="M0-.529.1-.909,24.927,5.742l-.1.381Z" transform="translate(0 0.909)" fill="#768391"/></g><g transform="translate(30.886 131.832)"><path d="M0,0H25.7" fill="#768391"/></g><path d="M215.474-164.116h25.7v.394h-25.7Z" transform="translate(-184.588 295.75)" fill="#768391"/><g transform="translate(30.835 125.187)"><path d="M0-9.243l24.825-6.652" transform="translate(0 15.895)" fill="#768391"/></g><g transform="translate(30.784 124.996)"><path d="M-.142-9.772l-.1-.381L24.581-16.8l.1.381Z" transform="translate(0.244 16.804)" fill="#768391"/></g><g transform="translate(30.787 119.008)"><path d="M0-17.856l22.257-12.85" transform="translate(0 30.705)" fill="#768391"/></g><g transform="translate(30.689 118.837)"><path d="M-.274-18.33l-.2-.341,22.257-12.85.2.341Z" transform="translate(0.471 31.521)" fill="#768391"/></g><g transform="translate(30.747 113.717)"><path d="M0-25.252,18.173-43.425" transform="translate(0 43.425)" fill="#768391"/></g><g transform="translate(30.607 113.577)"><path d="M-.387-25.639l-.278-.278L17.508-44.091l.278.278Z" transform="translate(0.665 44.091)" fill="#768391"/></g><g transform="translate(30.715 109.673)"><path d="M0-30.928,12.85-53.185" transform="translate(0 53.185)" fill="#768391"/></g><g transform="translate(30.545 109.575)"><path d="M-.474-31.2l-.341-.2,12.85-22.257.341.2Z" transform="translate(0.815 53.655)" fill="#768391"/></g><g transform="translate(30.696 107.154)"><path d="M0-34.5,6.652-59.32" transform="translate(0 59.32)" fill="#768391"/></g><g transform="translate(30.505 107.102)"><path d="M-.529-34.637l-.381-.1L5.742-59.564l.381.1Z" transform="translate(0.909 59.564)" fill="#768391"/></g><g transform="translate(128.807 104.633)"><path d="M0-35.713v-25.7" transform="translate(0 61.413)" fill="#768391"/></g><path d="M449.388-202.938h-.394v-25.7h.394Z" transform="translate(-320.383 333.271)" fill="#768391"/><g transform="translate(122.162 105.56)"><path d="M-9.244-34.5-15.9-59.32" transform="translate(15.896 59.32)" fill="#768391"/></g><g transform="translate(121.971 105.509)"><path d="M-9.773-34.5l-.381.1-6.652-24.825.381-.1Z" transform="translate(16.805 59.32)" fill="#768391"/></g><g transform="translate(115.983 108.175)"><path d="M-17.856-30.928l-12.85-22.257" transform="translate(30.707 53.185)" fill="#768391"/></g><g transform="translate(115.812 108.076)"><path d="M-18.331-30.928l-.341.2L-31.523-52.988l.341-.2Z" transform="translate(31.523 53.185)" fill="#768391"/></g><g transform="translate(110.692 112.3)"><path d="M-25.252-25.252-43.425-43.425" transform="translate(43.425 43.425)" fill="#768391"/></g><g transform="translate(110.553 112.161)"><path d="M-25.639-25.252l-.278.278L-44.091-43.146l.278-.279Z" transform="translate(44.091 43.425)" fill="#768391"/></g><g transform="translate(106.648 117.654)"><path d="M-30.928-17.856l-22.257-12.85" transform="translate(53.185 30.705)" fill="#768391"/></g><g transform="translate(106.55 117.484)"><path d="M-31.2-17.856l-.2.341-22.257-12.85.2-.341Z" transform="translate(53.656 30.705)" fill="#768391"/></g><g transform="translate(104.129 123.872)"><path d="M-34.5-9.243-59.32-15.895" transform="translate(59.32 15.895)" fill="#768391"/></g><g transform="translate(104.077 123.682)"><path d="M-34.638-9.243l-.1.381-24.825-6.652.1-.381Z" transform="translate(59.565 15.895)" fill="#768391"/></g><g transform="translate(103.304 130.531)"><path d="M-35.713,0h-25.7" transform="translate(61.413)" fill="#768391"/></g><path d="M414.221-166.831h-25.7v-.394h25.7Z" transform="translate(-285.217 297.559)" fill="#768391"/><g transform="translate(104.23 130.524)"><path d="M-34.5,0-59.32,6.652" transform="translate(59.32)" fill="#768391"/></g><g transform="translate(104.18 130.334)"><path d="M-34.5,0l.1.381L-59.218,7.033l-.1-.381Z" transform="translate(59.32)" fill="#768391"/></g><g transform="translate(106.845 130.504)"><path d="M-30.928,0-53.185,12.85" transform="translate(53.185)" fill="#768391"/></g><g transform="translate(106.746 130.334)"><path d="M-30.929,0l.2.341L-52.989,13.192l-.2-.341Z" transform="translate(53.187)" fill="#768391"/></g><g transform="translate(110.97 130.473)"><path d="M-25.252,0-43.425,18.172" transform="translate(43.425)" fill="#768391"/></g><g transform="translate(110.832 130.334)"><path d="M-25.252,0l.278.278L-43.147,18.451l-.278-.278Z" transform="translate(43.425)" fill="#768391"/></g><g transform="translate(116.325 130.432)"><path d="M-17.856,0l-12.85,22.257" transform="translate(30.707)" fill="#768391"/></g><g transform="translate(116.154 130.334)"><path d="M-17.856,0l.341.2-12.85,22.257-.341-.2Z" transform="translate(30.707)" fill="#768391"/></g><g transform="translate(122.543 130.385)"><path d="M-9.243,0l-6.652,24.825" transform="translate(15.895)" fill="#768391"/></g><g transform="translate(122.352 130.334)"><path d="M-9.244,0l.381.1-6.652,24.825-.381-.1Z" transform="translate(15.896)" fill="#768391"/></g><g transform="translate(129.201 130.334)"><path d="M0,0V25.7" fill="#768391"/></g><path d="M449.935-167.225h.393v25.7h-.393Z" transform="translate(-320.931 297.559)" fill="#768391"/><g transform="translate(129.195 130.283)"><path d="M0,0,6.652,24.825" fill="#768391"/></g><g transform="translate(129.004 130.231)"><path d="M0-.142l.381-.1L7.032,24.581l-.381.1Z" transform="translate(0 0.244)" fill="#768391"/></g><g transform="translate(129.174 130.235)"><path d="M0,0,12.85,22.257" fill="#768391"/></g><g transform="translate(129.004 130.137)"><path d="M0-.274l.341-.2,12.85,22.257-.341.2Z" transform="translate(0 0.471)" fill="#768391"/></g><g transform="translate(129.143 130.195)"><path d="M0,0,18.173,18.173" fill="#768391"/></g><g transform="translate(129.004 130.055)"><path d="M0-.387.278-.665,18.451,17.508l-.278.278Z" transform="translate(0 0.665)" fill="#768391"/></g><g transform="translate(129.102 130.163)"><path d="M0,0,22.257,12.85" fill="#768391"/></g><g transform="translate(129.004 129.993)"><path d="M0-.474.2-.815l22.257,12.85-.2.341Z" transform="translate(0 0.815)" fill="#768391"/></g><g transform="translate(129.055 130.143)"><path d="M0,0,24.825,6.652" fill="#768391"/></g><g transform="translate(129.004 129.953)"><path d="M0-.529.1-.909,24.927,5.742l-.1.381Z" transform="translate(0 0.909)" fill="#768391"/></g><g transform="translate(129.004 130.137)"><path d="M0,0H25.7" fill="#768391"/></g><path d="M449.935-168.165h25.7v.393h-25.7Z" transform="translate(-320.931 298.105)" fill="#768391"/><g transform="translate(128.953 123.492)"><path d="M0-9.243l24.825-6.652" transform="translate(0 15.895)" fill="#768391"/></g><g transform="translate(128.902 123.301)"><path d="M-.142-9.772l-.1-.381L24.581-16.8l.1.381Z" transform="translate(0.244 16.804)" fill="#768391"/></g><g transform="translate(128.906 117.313)"><path d="M0-17.856l22.257-12.85" transform="translate(0 30.707)" fill="#768391"/></g><g transform="translate(128.807 117.142)"><path d="M-.274-18.33l-.2-.341,22.257-12.85.2.341Z" transform="translate(0.472 31.521)" fill="#768391"/></g><g transform="translate(128.865 112.022)"><path d="M0-25.252,18.173-43.425" transform="translate(0 43.425)" fill="#768391"/></g><g transform="translate(128.726 111.882)"><path d="M-.387-25.639l-.278-.278L17.507-44.091l.279.278Z" transform="translate(0.665 44.091)" fill="#768391"/></g><g transform="translate(128.834 107.978)"><path d="M0-30.928,12.85-53.185" transform="translate(0 53.185)" fill="#768391"/></g><g transform="translate(128.664 107.88)"><path d="M-.474-31.2l-.341-.2,12.85-22.257.341.2Z" transform="translate(0.815 53.655)" fill="#768391"/></g><g transform="translate(128.814 105.458)"><path d="M0-34.5,6.652-59.32" transform="translate(0 59.32)" fill="#768391"/></g><g transform="translate(128.623 105.407)"><path d="M-.53-34.637l-.381-.1L5.742-59.564l.381.1Z" transform="translate(0.911 59.564)" fill="#768391"/></g><g transform="translate(4.343 105.819)"><path d="M-36.421-4.378A23.085,23.085,0,0,0-59.48,18.68,23.085,23.085,0,0,0-36.421,41.739,23.085,23.085,0,0,0-13.361,18.68,23.085,23.085,0,0,0-36.421-4.378m0,49.269A26.24,26.24,0,0,1-62.631,18.68,26.239,26.239,0,0,1-36.421-7.529,26.24,26.24,0,0,1-10.21,18.68,26.24,26.24,0,0,1-36.421,44.891" transform="translate(62.631 7.529)" fill="#8796a6"/></g><g transform="translate(101.806 103.585)"><path d="M-37.794-4.378A24.075,24.075,0,0,0-61.841,19.669,24.075,24.075,0,0,0-37.794,43.716,24.074,24.074,0,0,0-13.746,19.669,24.074,24.074,0,0,0-37.794-4.378m0,51.245a27.229,27.229,0,0,1-27.2-27.2,27.229,27.229,0,0,1,27.2-27.2,27.229,27.229,0,0,1,27.2,27.2,27.229,27.229,0,0,1-27.2,27.2" transform="translate(64.992 7.529)" fill="#8796a6"/></g><g transform="translate(97.593 99.371)"><path d="M-43.648-5.986a27.134,27.134,0,0,0-27.1,27.1,27.133,27.133,0,0,0,27.1,27.1,27.133,27.133,0,0,0,27.1-27.1,27.134,27.134,0,0,0-27.1-27.1m0,58.514A31.446,31.446,0,0,1-75.058,21.117,31.447,31.447,0,0,1-43.648-10.295,31.448,31.448,0,0,1-12.236,21.117,31.447,31.447,0,0,1-43.648,52.528" transform="translate(75.058 10.295)" fill="#001f30"/></g><g transform="translate(0 101.475)"><path d="M-42.456-5.986A26.275,26.275,0,0,0-68.7,20.259,26.275,26.275,0,0,0-42.456,46.5,26.275,26.275,0,0,0-16.21,20.259,26.276,26.276,0,0,0-42.456-5.986m0,56.8A30.588,30.588,0,0,1-73.009,20.259,30.588,30.588,0,0,1-42.456-10.295,30.588,30.588,0,0,1-11.9,20.259,30.588,30.588,0,0,1-42.456,50.813" transform="translate(73.009 10.295)" fill="#001f30"/></g><g transform="translate(63.001 126.343)"><path d="M-11.847-2a7.1,7.1,0,0,0-7.09,7.09,7.1,7.1,0,0,0,7.09,7.09,7.1,7.1,0,0,0,7.09-7.09A7.1,7.1,0,0,0-11.847-2m0,15.616a8.536,8.536,0,0,1-8.526-8.526,8.536,8.536,0,0,1,8.526-8.526A8.536,8.536,0,0,1-3.321,5.094a8.536,8.536,0,0,1-8.526,8.526" transform="translate(20.373 3.432)" fill="#8796a6"/></g><g transform="translate(66.039 129.618)"><path d="M-7.626-1.283a4.569,4.569,0,0,0-4.564,4.564A4.569,4.569,0,0,0-7.626,7.844,4.569,4.569,0,0,0-3.062,3.281,4.569,4.569,0,0,0-7.626-1.283m0,10.052a5.494,5.494,0,0,1-5.488-5.488A5.494,5.494,0,0,1-7.626-2.207,5.494,5.494,0,0,1-2.138,3.281,5.494,5.494,0,0,1-7.626,8.769" transform="translate(13.113 2.207)" fill="#8796a6"/></g><g transform="translate(69.238 132.816)"><path d="M-6.36-3.18A2.288,2.288,0,0,0-8.648-5.469,2.289,2.289,0,0,0-10.937-3.18,2.289,2.289,0,0,0-8.648-.892,2.288,2.288,0,0,0-6.36-3.18" transform="translate(10.937 5.469)" fill="#8796a6"/></g><g transform="translate(115.225 75.69)"><path d="M-.412,0l-.3.033c.076.047.151.095.228.141C-.457.116-.436.058-.412,0" transform="translate(0.708)" fill="#ec6d05"/></g><g transform="translate(112.819 75.723)"><path d="M-3.659-.2c-.076-.046-.151-.094-.228-.141l-2.405.266.254,2.3c.413.271.827.53,1.24.8C-4.419,1.949-4.086.853-3.659-.2" transform="translate(6.292 0.337)" fill="#ec7f26"/></g><g transform="translate(113.073 78.286)"><path d="M-1.723-1.1c-.413-.266-.827-.524-1.24-.8l.329,2.979A17.573,17.573,0,0,0-1.723-1.1" transform="translate(2.963 1.9)" fill="#ec6d05"/></g><g transform="translate(115.453 75.432)"><path d="M-3.347,0l-2.34.258c-.024.057-.045.116-.069.174q.9.551,1.809,1.091c.2-.509.4-1.018.6-1.523" transform="translate(5.756)" fill="#ec6d05"/></g><g transform="translate(114.313 75.864)"><path d="M-4.1-1.517q-.91-.541-1.809-1.091C-6.333-1.559-6.666-.463-7.045.609c.55.353,1.1.71,1.653,1.055.466-1.043.882-2.111,1.3-3.18" transform="translate(7.045 2.608)" fill="#ec6d05"/></g><g transform="translate(113.402 79.081)"><path d="M-3.562-1.466c-.552-.345-1.1-.7-1.653-1.055A17.538,17.538,0,0,1-6.125-.337l.133,1.2c.295.193.59.389.884.58A21.473,21.473,0,0,0-3.562-1.466" transform="translate(6.125 2.521)" fill="#ec6d05"/></g><g transform="translate(113.535 82.464)"><path d="M-1.23-.806c-.295-.191-.59-.387-.885-.58L-1.939.207c.254-.329.487-.668.709-1.013" transform="translate(2.115 1.387)" fill="#ec6d05"/></g><g transform="translate(121.194 74.808)"><path d="M-3.206,0l-2.06.228c-.084.186-.165.372-.248.559.514.357,1.033.708,1.558,1.05C-3.693,1.23-3.441.619-3.206,0" transform="translate(5.513)" fill="#ec6d05"/></g><g transform="translate(119.921 75.595)"><path d="M-3.935-1.458c-.525-.341-1.044-.693-1.558-1.05-.43.975-.848,1.954-1.273,2.927.509.3,1.019.6,1.531.894.454-.913.9-1.832,1.3-2.771" transform="translate(6.767 2.508)" fill="#ec6d05"/></g><g transform="translate(118.466 78.521)"><path d="M-4.149-1.242q-.768-.446-1.531-.894c-.466,1.065-.945,2.117-1.455,3.151.456.275.915.544,1.372.815.556-1.015,1.1-2.037,1.614-3.072" transform="translate(7.135 2.136)" fill="#ec6d05"/></g><g transform="translate(115.232 84.597)"><path d="M-4.123-1.134c-.444-.271-.889-.541-1.332-.816A24.508,24.508,0,0,1-7.091.4q.762.5,1.527,1.005Q-4.848.135-4.123-1.134" transform="translate(7.091 1.951)" fill="#ec6d05"/></g><g transform="translate(114.169 86.95)"><path d="M-3.6-1.4Q-4.363-1.9-5.124-2.4c-.337.429-.686.851-1.062,1.255l.239,2.159c.256.161.511.323.763.489Q-4.408.044-3.6-1.4" transform="translate(6.187 2.403)" fill="#ec6d05"/></g><g transform="translate(114.408 90.364)"><path d="M-1.061-.68c-.253-.166-.508-.329-.763-.489l.176,1.6c.191-.372.391-.738.587-1.107" transform="translate(1.824 1.169)" fill="#ec6d05"/></g><g transform="translate(116.867 81.672)"><path d="M-4.129-1.133c-.457-.271-.916-.54-1.372-.815C-5.993-.948-6.521.031-7.1.976c.443.276.888.545,1.332.816.552-.972,1.1-1.945,1.639-2.925" transform="translate(7.1 1.948)" fill="#ec6d05"/></g><g transform="translate(125.315 74.585)"><path d="M-.291,0-.5.023l.178.109C-.312.088-.3.044-.291,0" transform="translate(0.5)" fill="#ec6d05"/></g><g transform="translate(122.753 74.608)"><path d="M-3.808-.152l-.178-.109-1.813.2c-.235.619-.487,1.23-.749,1.836Q-5.584,2.4-4.6,3q.425-1.56.788-3.15" transform="translate(6.548 0.261)" fill="#ec6d05"/></g><g transform="translate(121.452 76.645)"><path d="M-4.52-1.7q-.986-.6-1.952-1.223c-.405.938-.846,1.858-1.3,2.77Q-6.588.54-5.4,1.241C-5.089.27-4.79-.708-4.52-1.7" transform="translate(7.773 2.921)" fill="#ec7f26"/></g><g transform="translate(119.838 79.415)"><path d="M-5.539-1.933q-1.187-.7-2.372-1.391C-8.427-2.289-8.968-1.267-9.525-.252q1.4.829,2.806,1.644.637-1.64,1.18-3.326" transform="translate(9.525 3.324)" fill="#ec6d05"/></g><g transform="translate(118.199 82.487)"><path d="M-6.176-2.285Q-7.586-3.1-8.982-3.929c-.537.98-1.088,1.953-1.639,2.925Q-9.074-.059-7.512.848-6.8-.695-6.176-2.285" transform="translate(10.621 3.929)" fill="#ec7f26"/></g><g transform="translate(116.758 85.413)"><path d="M-6.322-2.573q-1.562-.906-3.109-1.851-.723,1.27-1.441,2.542Q-9.294-.848-7.7.159c.487-.9.951-1.806,1.381-2.732" transform="translate(10.872 4.424)" fill="#ec6d05"/></g><g transform="translate(115.172 87.956)"><path d="M-6.608-2.835Q-8.2-3.842-9.778-4.876q-.811,1.44-1.586,2.9C-10.346-1.309-9.344-.6-8.346.115c.619-.963,1.2-1.948,1.738-2.95" transform="translate(11.364 4.876)" fill="#ec7f26"/></g><g transform="translate(114.585 90.854)"><path d="M-.816,0c-.2.369-.4.735-.587,1.107l.062.56A1.84,1.84,0,0,0,.691,3.294l.77-.085q.382-.552.741-1.117C1.2,1.375.2.669-.816,0" transform="translate(1.403)" fill="#ec6d05"/></g><g transform="translate(125.493 74.356)"><path d="M-2.925,0-5,.229c-.01.044-.021.088-.031.132q.884.543,1.755,1.1.171-.732.35-1.46" transform="translate(5.031)" fill="#ec6d05"/></g><g transform="translate(124.705 74.717)"><path d="M-3.534-1.527q-.872-.554-1.755-1.1Q-5.65-1.033-6.077.524q.909.549,1.832,1.073c.237-1.043.469-2.087.711-3.124" transform="translate(6.077 2.625)" fill="#ec6d05"/></g><g transform="translate(122.643 80.806)"><path d="M-4.4-1.648q-.991-.6-1.986-1.186Q-6.929-1.147-7.567.492q1.092.632,2.193,1.262C-5.011.631-4.69-.5-4.4-1.648" transform="translate(7.567 2.833)" fill="#ec6d05"/></g><g transform="translate(121.308 84.132)"><path d="M-4.9-1.753Q-6-2.382-7.1-3.015-7.714-1.423-8.432.118-7.272.79-6.1,1.441c.455-1.047.848-2.114,1.2-3.194" transform="translate(8.432 3.015)" fill="#ec6d05"/></g><g transform="translate(119.928 87.264)"><path d="M-5.158-1.838Q-6.328-2.49-7.49-3.161c-.429.926-.894,1.834-1.38,2.731Q-7.736.289-6.593.991A26.607,26.607,0,0,0-5.158-1.838" transform="translate(8.871 3.161)" fill="#ec6d05"/></g><g transform="translate(118.189 89.996)"><path d="M-3.475-5.153A23.305,23.305,0,0,0-1.96-7.441q-1.144-.7-2.278-1.42c-.543,1-1.119,1.986-1.738,2.95l1.246.9Z" transform="translate(5.976 8.861)" fill="#ec6d05"/></g><g transform="translate(117.448 92.946)"><path d="M-2.762-1.246l-1.246-.9c-.241.375-.487.748-.742,1.117Z" transform="translate(4.749 2.143)" fill="#ec6d05"/></g><g transform="translate(123.824 77.867)"><path d="M-3.77-1.491Q-4.693-2.015-5.6-2.564C-5.872-1.572-6.17-.6-6.483.375Q-5.488.962-4.5,1.561C-4.24.547-4-.472-3.77-1.491" transform="translate(6.483 2.564)" fill="#ec6d05"/></g><g transform="translate(127.248 74.099)"><path d="M-3.714,0-6.036.257q-.181.727-.35,1.46c.648.413,1.3.824,1.957,1.226Z" transform="translate(6.387)" fill="#ec6d05"/></g><g transform="translate(126.537 75.816)"><path d="M-3.707-1.7q-.987-.605-1.957-1.226C-5.905-1.893-6.138-.85-6.375.193q.967.549,1.947,1.067Z" transform="translate(6.375 2.931)" fill="#ec7f26"/></g><g transform="translate(125.81 78.94)"><path d="M-3.715-1.482Q-4.695-2-5.662-2.548C-5.894-1.529-6.132-.51-6.389.5q.957.578,1.906,1.175Z" transform="translate(6.389 2.548)" fill="#ec6d05"/></g><g transform="translate(124.837 81.992)"><path d="M-4-1.632q-.95-.6-1.906-1.175c-.29,1.143-.61,2.279-.973,3.4.682.389,1.364.779,2.053,1.17Z" transform="translate(6.879 2.807)" fill="#ec7f26"/></g><g transform="translate(123.64 85.393)"><path d="M-4.516-1.625c-.689-.391-1.37-.779-2.053-1.17C-6.918-1.714-7.311-.648-7.765.4q1.21.673,2.436,1.322Z" transform="translate(7.765 2.795)" fill="#ec6d05"/></g><g transform="translate(122.205 88.587)"><path d="M-4.691-4.665-4.2-6.7Q-5.42-7.35-6.632-8.023a26.669,26.669,0,0,1-1.435,2.83q1.322.808,2.659,1.584a1.833,1.833,0,0,0,.717-1.056" transform="translate(8.067 8.023)" fill="#ec7f26"/></g><g transform="translate(120.691 91.416)"><path d="M-5.8-2.2q-1.337-.777-2.659-1.584A23.3,23.3,0,0,1-9.972-1.5l3.3-.365A1.831,1.831,0,0,0-5.8-2.2" transform="translate(9.972 3.785)" fill="#ec6d05"/></g><g transform="translate(117.262 75.136)"><path d="M-5.465-.638C-5.683-.789-5.9-.944-6.115-1.1L-8.8-.8C-9-.3-9.2.213-9.4.722q1.322.787,2.659,1.566c.425-.973.844-1.951,1.273-2.927" transform="translate(9.397 1.097)" fill="#ec6d05"/></g><g transform="translate(115.966 76.955)"><path d="M-5.5-2.176q-1.338-.779-2.659-1.566c-.414,1.069-.829,2.138-1.3,3.181Q-8.2.218-6.95.974c.509-1.033.988-2.086,1.454-3.15" transform="translate(9.451 3.743)" fill="#ec7f26"/></g><g transform="translate(114.42 80.136)"><path d="M-5.623-2.135q-1.254-.756-2.5-1.536A21.536,21.536,0,0,1-9.669-.762Q-8.448.026-7.223.79c.579-.946,1.107-1.924,1.6-2.924" transform="translate(9.669 3.671)" fill="#ec6d05"/></g><g transform="translate(113.711 83.044)"><path d="M-4.385-2.157Q-5.61-2.921-6.831-3.709c-.222.345-.455.684-.709,1.013l.225,2.036L-6.02.2A24.514,24.514,0,0,0-4.385-2.157" transform="translate(7.54 3.709)" fill="#ec7f26"/></g><g transform="translate(113.936 86.093)"><path d="M-1.8-1.191q-.648-.429-1.3-.857L-2.861.065c.376-.405.725-.826,1.062-1.255" transform="translate(3.095 2.048)" fill="#ec6d05"/></g><g transform="translate(120.544 75.036)"><path d="M-1.248,0l-.9.1c.216.153.432.308.651.459q.123-.28.247-.559" transform="translate(2.145)" fill="#ec6d05"/></g><g transform="translate(7.609 94.585)"><path d="M-62.312-12.1a.717.717,0,0,1-.508-.21l-5.453-5.453a5.484,5.484,0,0,0-3.877-1.606h-34.287a.718.718,0,0,1-.718-.718.718.718,0,0,1,.718-.719h34.882A5.486,5.486,0,0,1-67.677-19.2l5.873,5.874a.718.718,0,0,1,0,1.016.716.716,0,0,1-.508.21" transform="translate(107.154 20.803)" fill="#85001e"/></g><g transform="translate(31.764 99.857)"><path d="M-2.7-41.806l-1.946-.923c.538-1.135,13.319-27.795,25.383-29.163l.243,2.14C10.088-68.517-2.578-42.073-2.7-41.806" transform="translate(4.651 71.892)" fill="#da01c9"/></g><g transform="translate(54.961 96.211)"><path d="M-16.794-40.425-28.88-68.67l1.98-.847,12.086,28.245Z" transform="translate(28.88 69.517)" fill="#da01c9"/></g><g transform="translate(51.068 87.35)"><path d="M-4.825-12.72-8.3-21.046l1.988-.829,3.472,8.325Z" transform="translate(8.297 21.875)" fill="#da01c9"/></g><g transform="translate(39.326 79.231)"><path d="M-2.653-2.616A71.013,71.013,0,0,0,16.655-4.461c1.23-.319,1.895,1.49.887,2.264L8.174,4.992C2.249,5.411-1.675,3.84-4.106.785c-1.037-1.3-.206-3.55,1.452-3.4" transform="translate(4.563 4.499)" fill="#85001e"/></g><g transform="translate(83.321 90.069)"><path d="M-23.109-10.515l-.767-7.567c-4.006,1.667-8.675,4.928-12.769,11.236a50.934,50.934,0,0,1-3.094,4.276c5.3-.379,7.747,1.3,8.7,2.262a33.754,33.754,0,0,1,7.932-10.208" transform="translate(39.739 18.081)" fill="#da01c9"/></g><g transform="translate(63.765 84.798)"><path d="M-27.289-20.223C-36.672-5.763-46.273-6.14-46.678-6.161l-.249,3.581c.045,0,.182.012.406.012,1.964,0,10.476-.672,19.15-11.424a50.931,50.931,0,0,0,3.093-4.276c4.094-6.309,8.764-9.569,12.769-11.236a19.686,19.686,0,0,1,9.517-1.606l.521-3.552c-.614-.093-15.143-2.012-25.818,14.44" transform="translate(46.928 34.776)" fill="#da01c9"/></g><g transform="translate(78.007 91.356)"><path d="M-44.19,0a36.031,36.031,0,0,0-9.857,6.281,33.753,33.753,0,0,0-7.932,10.208,31.662,31.662,0,0,0-2.135,5.517C-68.006,35.735-75.666,37.151-75.99,37.2l.272,1.773-.253-1.777.507,3.554c.415-.059,10.231-1.637,14.8-17.771C-56.659,8.87-43.029,3.4-42.894,3.348Z" transform="translate(75.99)" fill="#da01c9"/></g><g transform="translate(106.772 83.008)"><path d="M-26.543-62.755c-.672-1.347-16.767-33.742-19.1-44.714l2.106-.448c2.279,10.705,18.491,43.244,18.655,43.572Z" transform="translate(45.645 107.917)" fill="#da01c9"/></g><g transform="translate(109.397 74.133)"><path d="M-5.072-2.134h-3.65l1.516-1.536,2.134.1Z" transform="translate(8.721 3.669)" fill="#da01c9"/></g><g transform="translate(96.582 65.761)"><path d="M-17.815-13.767l-6.936-6.82-5.885-.962.348-2.125,6.56,1.072,7.424,7.3Z" transform="translate(30.636 23.675)" fill="#da01c9"/></g><path d="M398.878-294.117h-2.019v-11.143h2.019Z" transform="translate(-290.066 377.828)" fill="#da01c9"/><g transform="translate(112.159 71.271)"><path d="M-24.938-5.266-41.881-3.394a.656.656,0,0,1-.724-.58l-.275-2.481a.656.656,0,0,1,.58-.724l16.944-1.873a.656.656,0,0,1,.724.58l.275,2.481a.656.656,0,0,1-.58.724" transform="translate(42.884 9.056)" fill="#b55405"/></g><g transform="translate(3.827 112.798)"><path d="M-32.064-25.608-55.139-42.89l.863-1.147L-31.2-26.756Z" transform="translate(55.139 44.037)" fill="#bac3c9"/></g><g transform="translate(5.636 111.112)"><path d="M-32.141-24.538l-23.13-16.489.834-1.169L-30.02-24.79Z" transform="translate(55.271 42.196)" fill="#bac3c9"/></g><g transform="translate(95.255 127.464)"><path d="M-42.072-5.605l-30.277-2.6.123-1.431,30.277,2.6Z" transform="translate(72.349 9.639)" fill="#bac3c9"/></g><g transform="translate(95.625 124.166)"><path d="M-40.993-6.569l-29.5-3.3.16-1.427,31.747,3.552Z" transform="translate(70.493 11.296)" fill="#bac3c9"/></g><g transform="translate(0.445 97.935)"><path d="M-84.544-32.074a1.076,1.076,0,0,1-1-.683A31.772,31.772,0,0,0-115.277-53a31.945,31.945,0,0,0-28.085,16.716,1.074,1.074,0,0,1-1.46.432,1.077,1.077,0,0,1-.432-1.46,34.1,34.1,0,0,1,29.977-17.842,33.913,33.913,0,0,1,31.735,21.61,1.077,1.077,0,0,1-.607,1.4,1.071,1.071,0,0,1-.394.075" transform="translate(145.386 55.156)" fill="#da01c9"/></g><g transform="translate(94.239 95.979)"><path d="M-1.58-51.755a1.077,1.077,0,0,1-1.074-1.012A34.1,34.1,0,0,1,13.319-83.781a33.916,33.916,0,0,1,38.364,1.515,1.078,1.078,0,0,1,.224,1.507,1.075,1.075,0,0,1-1.506.225,31.769,31.769,0,0,0-35.942-1.42A31.942,31.942,0,0,0-.5-52.9a1.078,1.078,0,0,1-1.01,1.141l-.067,0" transform="translate(2.717 89.001)" fill="#da01c9"/></g><g transform="translate(124.921 126.251)"><path d="M-11.349-5.673a4.083,4.083,0,0,0-4.083-4.083,4.083,4.083,0,0,0-4.084,4.083A4.084,4.084,0,0,0-15.432-1.59a4.083,4.083,0,0,0,4.083-4.083" transform="translate(19.516 9.756)" fill="#001f30"/></g><g transform="translate(52.725 94.061)"><path d="M-5.894-.06-9.716,1.4a.651.651,0,0,0-.376.841L-9.6,3.535a.651.651,0,0,0,.841.376L-4.934,2.45a.651.651,0,0,0,.376-.841L-5.053.316a.651.651,0,0,0-.84-.376" transform="translate(10.135 0.103)" fill="#85001e"/></g><g transform="translate(13.567 94.748)"><path d="M-4.054-.317V.171L-5.312.354V-.317ZM-3.825,1.6V-.074A.471.471,0,0,0-4.3-.545h-.772a.471.471,0,0,0-.471.471V1.6a.471.471,0,0,1-.471.471H-6.5a.471.471,0,0,0-.471.471V3.31a.472.472,0,0,0,.471.471H-2.81a.472.472,0,0,0,.471-.471V2.538a.471.471,0,0,0-.471-.471h-.544A.472.472,0,0,1-3.825,1.6" transform="translate(6.971 0.545)" fill="#85001e"/></g><g transform="translate(31.853 124.152)"><path d="M-13.206-6.942c.168-.267,2.045-2.623,16-2.8,12.882-.164,13.351,3.226,13.693,5.7.04.291.078.566.136.808l.134.558L-12.4-3.25V-5.494l-.972-1.177ZM26.087-.485l-.218-.9c-.094-.392-.156-.837-.22-1.308-.552-4.007-1.312-9.5-22.176-9.231-22.594.286-25.634,4.1-25.906,4.534l-.276.44,1.575,1.906v3.634Z" transform="translate(22.709 11.938)" fill="#da01c9"/></g><g transform="translate(26.47 127.946)"><path d="M-11.348-5.673a4.083,4.083,0,0,0-4.083-4.083,4.083,4.083,0,0,0-4.083,4.083A4.083,4.083,0,0,0-15.431-1.59a4.083,4.083,0,0,0,4.083-4.083" transform="translate(19.515 9.756)" fill="#001f30"/></g><g transform="translate(69.068 128.262)"><path d="M-19.232-7.647H-30.8a2.269,2.269,0,0,1-2.269-2.269v-.245a2.269,2.269,0,0,1,2.148-2.266l8.837-.472,2.65-.242a2.269,2.269,0,0,1,2.475,2.26v.964a2.269,2.269,0,0,1-2.269,2.269" transform="translate(33.072 13.149)" fill="#85001e"/></g><g transform="translate(37.993 72.212)"><path d="M-56.033-29.462-92.774-40.037a4.969,4.969,0,0,1-3.391-6.132l1.061-3.688a1.12,1.12,0,0,1,1.383-.764l40.428,11.636A4.969,4.969,0,0,1-49.9-32.853a4.969,4.969,0,0,1-6.132,3.391" transform="translate(96.358 50.664)" fill="#f7c6a2"/></g><g transform="translate(38.092 71.636)"><path d="M-43.223-27.973l-26.444-7.611a6.464,6.464,0,0,1-4.411-7.977l1.307-4.543,32.638,9.394a2.069,2.069,0,0,1,1.412,2.553l-1.949,6.772a2.069,2.069,0,0,1-2.553,1.412" transform="translate(74.328 48.104)" fill="#0c0861"/></g><g transform="translate(66.039 83.711)"><path d="M-25.866-9l-8.945,27.724a4.969,4.969,0,0,1-6.237,3.193,4.97,4.97,0,0,1-3.194-6.237L-35.3-12.041a4.969,4.969,0,0,1,6.237-3.194A4.969,4.969,0,0,1-25.866-9" transform="translate(44.48 15.473)" fill="#f7c6a2"/></g><g transform="translate(64.691 117.476)"><path d="M-6.659-15.669l13.6.021a4.814,4.814,0,0,0,4.808-4.792l0-1.676a4.815,4.815,0,0,0-4.793-4.808l-13.6-.021a4.814,4.814,0,0,0-4.808,4.793l0,1.676a4.814,4.814,0,0,0,4.792,4.808" transform="translate(11.452 26.945)" fill="#de0061"/></g><g transform="translate(64.692 112.818)"><path d="M-6.387-21.307l1.461,0A4.617,4.617,0,0,0-.315-25.9l.009-6.128A4.617,4.617,0,0,0-4.9-36.64l-1.461,0a4.616,4.616,0,0,0-4.61,4.6l-.01,6.128a4.618,4.618,0,0,0,4.6,4.611" transform="translate(10.983 36.641)" fill="#de0061"/></g><g transform="translate(81.69 116.443)"><path d="M-4.406-16.3h.147a3.186,3.186,0,0,0,3.18-3.172l.008-5.382a3.185,3.185,0,0,0-3.17-3.18h-.147a3.184,3.184,0,0,0-3.18,3.17l-.009,5.384A3.184,3.184,0,0,0-4.406-16.3" transform="translate(7.577 28.037)" fill="#d9e4eb"/></g><g transform="translate(64.686 125.214)"><path d="M-2.728-5.466l19.934.031A1.972,1.972,0,0,0,19.175-7.4a1.972,1.972,0,0,0-1.963-1.97L-2.722-9.4a1.972,1.972,0,0,0-1.97,1.964,1.973,1.973,0,0,0,1.964,1.97" transform="translate(4.692 9.4)" fill="#fff"/></g><g transform="translate(67.1 115.885)"><path d="M-3.145-6.3h0A2.273,2.273,0,0,0-.875-8.563a2.273,2.273,0,0,0-2.263-2.27A2.273,2.273,0,0,0-5.408-8.57,2.273,2.273,0,0,0-3.145-6.3" transform="translate(5.408 10.833)" fill="#f9f8ec"/></g><g transform="translate(79.995 117.093)"><path d="M-.694-6.637h0a.5.5,0,0,0,.5-.5l.006-3.775a.5.5,0,0,0-.5-.5.5.5,0,0,0-.5.5l-.006,3.776a.5.5,0,0,0,.5.5" transform="translate(1.193 11.413)" fill="#f9f8ec"/></g><g transform="translate(78.046 117.09)"><path d="M-.694-6.637h0a.5.5,0,0,0,.5-.5l.006-3.776a.5.5,0,0,0-.5-.5.5.5,0,0,0-.5.5l-.006,3.776a.5.5,0,0,0,.5.5" transform="translate(1.193 11.413)" fill="#f9f8ec"/></g><g transform="translate(76.095 117.087)"><path d="M-.694-6.637h0a.5.5,0,0,0,.5-.5l.006-3.775a.5.5,0,0,0-.5-.5.5.5,0,0,0-.5.5l-.006,3.776a.5.5,0,0,0,.5.5" transform="translate(1.193 11.413)" fill="#f9f8ec"/></g><g transform="translate(30.312 143.62)"><path d="M-2.142-1.071a.77.77,0,0,0-.771-.771.77.77,0,0,0-.771.771.77.77,0,0,0,.771.77.77.77,0,0,0,.771-.77" transform="translate(3.683 1.841)" fill="#0089b6"/></g><g transform="translate(39.062 139.822)"><path d="M-2.142-1.071a.77.77,0,0,0-.77-.771.771.771,0,0,0-.771.771A.771.771,0,0,0-2.912-.3a.77.77,0,0,0,.77-.771" transform="translate(3.683 1.841)" fill="#ff7605"/></g><g transform="translate(21.938 131.536)"><path d="M-2.142-1.071a.77.77,0,0,0-.771-.771.77.77,0,0,0-.771.771A.77.77,0,0,0-2.912-.3a.77.77,0,0,0,.771-.771" transform="translate(3.683 1.841)" fill="#0089b6"/></g><g transform="translate(41.342 150.202)"><path d="M-2.142-1.071a.77.77,0,0,0-.771-.771.77.77,0,0,0-.771.771A.77.77,0,0,0-2.912-.3a.77.77,0,0,0,.771-.771" transform="translate(3.683 1.841)" fill="#dd0640"/></g><g transform="translate(43.565 117.467)"><path d="M-2.142-1.071a.77.77,0,0,0-.771-.771.77.77,0,0,0-.771.771A.77.77,0,0,0-2.912-.3a.77.77,0,0,0,.771-.771" transform="translate(3.683 1.841)" fill="#ff7605"/></g><g transform="translate(41.145 120.228)"><path d="M-2.142-1.071a.77.77,0,0,0-.771-.771.77.77,0,0,0-.771.771A.77.77,0,0,0-2.912-.3a.77.77,0,0,0,.771-.771" transform="translate(3.683 1.841)" fill="#0089b6"/></g><g transform="translate(35.38 110.757)"><path d="M-2.142-1.07a.77.77,0,0,0-.771-.77.77.77,0,0,0-.771.77A.77.77,0,0,0-2.912-.3a.77.77,0,0,0,.771-.771" transform="translate(3.683 1.84)" fill="#dd0640"/></g><g transform="translate(32.48 121.769)"><path d="M-2.142-1.071a.77.77,0,0,0-.771-.771.77.77,0,0,0-.771.771A.77.77,0,0,0-2.912-.3a.77.77,0,0,0,.771-.771" transform="translate(3.683 1.841)" fill="#ff7605"/></g><g transform="translate(29.863 117.808)"><path d="M-2.142-1.071a.77.77,0,0,0-.771-.771.77.77,0,0,0-.771.771A.77.77,0,0,0-2.912-.3a.77.77,0,0,0,.771-.771" transform="translate(3.683 1.841)" fill="#ff7605"/></g><g transform="translate(30.197 148.297)"><path d="M-2.3-1.151a.828.828,0,0,0-.828-.828.829.829,0,0,0-.829.828.828.828,0,0,0,.829.828A.828.828,0,0,0-2.3-1.151" transform="translate(3.959 1.979)" fill="#ff7605"/></g><g transform="translate(22.294 145.805)"><path d="M-1.521-.76a.547.547,0,0,0-.547-.547.547.547,0,0,0-.547.547.547.547,0,0,0,.547.547A.547.547,0,0,0-1.521-.76" transform="translate(2.616 1.307)" fill="#dd0640"/></g><g transform="translate(40.03 147.75)"><path d="M-1.521-.76a.547.547,0,0,0-.547-.547.547.547,0,0,0-.547.547.547.547,0,0,0,.547.547A.547.547,0,0,0-1.521-.76" transform="translate(2.616 1.307)" fill="#0089b6"/></g><g transform="translate(23.195 138.68)"><path d="M-1.831-.916a.659.659,0,0,0-.659-.66.659.659,0,0,0-.658.66.659.659,0,0,0,.658.659.659.659,0,0,0,.659-.659" transform="translate(3.148 1.576)" fill="#ff7605"/></g><g transform="translate(16.547 131.648)"><path d="M-1.831-.916a.659.659,0,0,0-.659-.659.659.659,0,0,0-.659.659.659.659,0,0,0,.659.659.659.659,0,0,0,.659-.659" transform="translate(3.149 1.575)" fill="#0089b6"/></g><g transform="translate(128.43 149.477)"><path d="M-2.142-1.071a.77.77,0,0,0-.771-.771.77.77,0,0,0-.771.771A.77.77,0,0,0-2.912-.3a.77.77,0,0,0,.771-.771" transform="translate(3.683 1.841)" fill="#0089b6"/></g><g transform="translate(139.613 140.79)"><path d="M-2.142-1.071a.77.77,0,0,0-.771-.771.77.77,0,0,0-.771.771A.77.77,0,0,0-2.912-.3a.77.77,0,0,0,.771-.771" transform="translate(3.683 1.841)" fill="#ff7605"/></g><g transform="translate(122.489 132.94)"><path d="M-2.142-1.071a.77.77,0,0,0-.771-.771.77.77,0,0,0-.771.771A.77.77,0,0,0-2.912-.3a.77.77,0,0,0,.771-.771" transform="translate(3.683 1.841)" fill="#0089b6"/></g><g transform="translate(140.034 149.477)"><path d="M-2.142-1.071a.77.77,0,0,0-.771-.771.77.77,0,0,0-.771.771A.77.77,0,0,0-2.912-.3a.77.77,0,0,0,.771-.771" transform="translate(3.683 1.841)" fill="#dd0640"/></g><g transform="translate(145.657 119.641)"><path d="M-2.141-1.071a.77.77,0,0,0-.771-.771.77.77,0,0,0-.77.771.77.77,0,0,0,.77.771.77.77,0,0,0,.771-.771" transform="translate(3.681 1.841)" fill="#ff7605"/></g><g transform="translate(141.696 121.632)"><path d="M-2.141-1.071a.77.77,0,0,0-.771-.771.77.77,0,0,0-.77.771.77.77,0,0,0,.77.771.77.77,0,0,0,.771-.771" transform="translate(3.681 1.841)" fill="#0089b6"/></g><g transform="translate(130.979 118.336)"><path d="M-2.142-1.071a.77.77,0,0,0-.771-.771.77.77,0,0,0-.771.771A.77.77,0,0,0-2.912-.3a.77.77,0,0,0,.771-.771" transform="translate(3.683 1.841)" fill="#dd0640"/></g><g transform="translate(134.305 123.396)"><path d="M-2.142-1.071a.77.77,0,0,0-.771-.771.77.77,0,0,0-.771.771A.77.77,0,0,0-2.912-.3a.77.77,0,0,0,.771-.771" transform="translate(3.683 1.841)" fill="#ff7605"/></g><g transform="translate(133.534 109.468)"><path d="M-2.142-1.071a.77.77,0,0,0-.771-.771.77.77,0,0,0-.771.771A.77.77,0,0,0-2.912-.3a.77.77,0,0,0,.771-.771" transform="translate(3.683 1.841)" fill="#ff7605"/></g><g transform="translate(128.315 152.788)"><path d="M-2.3-1.151a.828.828,0,0,0-.828-.828.829.829,0,0,0-.829.828.829.829,0,0,0,.829.828A.828.828,0,0,0-2.3-1.151" transform="translate(3.959 1.979)" fill="#ff7605"/></g><g transform="translate(121.425 142.25)"><path d="M-1.521-.761a.547.547,0,0,0-.547-.547.547.547,0,0,0-.547.547.547.547,0,0,0,.547.547.547.547,0,0,0,.547-.547" transform="translate(2.616 1.308)" fill="#dd0640"/></g><g transform="translate(135.846 142.148)"><path d="M-1.521-.761a.547.547,0,0,0-.547-.547.548.548,0,0,0-.547.547.547.547,0,0,0,.547.547.547.547,0,0,0,.547-.547" transform="translate(2.616 1.308)" fill="#0089b6"/></g><g transform="translate(122.601 140.084)"><path d="M-1.831-.916a.659.659,0,0,0-.659-.659.659.659,0,0,0-.658.659.659.659,0,0,0,.658.66.659.659,0,0,0,.659-.66" transform="translate(3.148 1.575)" fill="#ff7605"/></g><g transform="translate(117.098 133.052)"><path d="M-1.831-.916a.659.659,0,0,0-.66-.659.659.659,0,0,0-.658.659.659.659,0,0,0,.658.659.659.659,0,0,0,.66-.659" transform="translate(3.149 1.575)" fill="#0089b6"/></g><g transform="translate(92.629 64.831)"><path d="M-7.809-3.9a2.81,2.81,0,0,0-2.81-2.81,2.81,2.81,0,0,0-2.81,2.81,2.81,2.81,0,0,0,2.81,2.81A2.81,2.81,0,0,0-7.809-3.9" transform="translate(13.429 6.715)" fill="#85001e"/></g><g transform="translate(86.751 64.477)"><path d="M-.484-10.744l-.068-.013a.347.347,0,0,1-.274-.407L.542-18.195a.347.347,0,0,1,.406-.274l.068.013a.347.347,0,0,1,.275.407L-.077-11.018a.347.347,0,0,1-.407.274" transform="translate(0.832 18.475)" fill="#0089b6"/></g><g transform="translate(85.612 64.254)"><path d="M-.456-10.614l-.067-.017a.347.347,0,0,1-.25-.422l1.779-6.938a.347.347,0,0,1,.422-.249l.066.017a.347.347,0,0,1,.25.422L-.034-10.863a.346.346,0,0,1-.422.249" transform="translate(0.783 18.252)" fill="#fff"/></g><g transform="translate(84.632 63.86)"><path d="M-.509-10.828l-.068-.01a.346.346,0,0,1-.295-.392l1-7.092a.348.348,0,0,1,.393-.295l.068.01a.346.346,0,0,1,.3.392l-1,7.092a.347.347,0,0,1-.392.3" transform="translate(0.875 18.62)" fill="#92bc21"/></g><g transform="translate(62.582 17.412)"><path d="M-3.114-1.557a1.12,1.12,0,0,0-1.12-1.12,1.12,1.12,0,0,0-1.12,1.12,1.12,1.12,0,0,0,1.12,1.12,1.12,1.12,0,0,0,1.12-1.12" transform="translate(5.355 2.677)" fill="#001f30"/></g><g transform="translate(72.232 17.412)"><path d="M-3.114-1.557a1.12,1.12,0,0,0-1.12-1.12,1.12,1.12,0,0,0-1.12,1.12,1.12,1.12,0,0,0,1.12,1.12,1.12,1.12,0,0,0,1.12-1.12" transform="translate(5.355 2.677)" fill="#001f30"/></g><g transform="translate(67.664 19.653)"><path d="M-1.2-5.93h0A.867.867,0,0,1-2.071-6.8V-9.331A.867.867,0,0,1-1.2-10.2a.866.866,0,0,1,.867.867V-6.8A.866.866,0,0,1-1.2-5.93" transform="translate(2.071 10.197)" fill="#f7a86d"/></g><g transform="translate(67.157 23.12)"><path d="M-2.919-1.779h-1.46a.64.64,0,0,1-.641-.64.641.641,0,0,1,.641-.641h1.46a.64.64,0,0,1,.64.641.64.64,0,0,1-.64.64" transform="translate(5.02 3.06)" fill="#f7a86d"/></g><g transform="translate(78.542 21.187)"><path d="M-2.113-1.056a.76.76,0,0,0-.76-.76.76.76,0,0,0-.761.76A.761.761,0,0,0-2.873-.3a.761.761,0,0,0,.76-.761" transform="translate(3.633 1.816)" fill="#fff"/></g><g transform="translate(56.256 21.187)"><path d="M-2.113-1.056a.76.76,0,0,0-.76-.76.76.76,0,0,0-.761.76A.761.761,0,0,0-2.873-.3a.761.761,0,0,0,.76-.761" transform="translate(3.633 1.816)" fill="#fff"/></g><g transform="translate(61.271 15.298)"><path d="M-5.28-1.478l-3.21.339a.534.534,0,0,1-.587-.475A.534.534,0,0,1-8.6-2.2l3.21-.339a.533.533,0,0,1,.586.474.533.533,0,0,1-.474.586" transform="translate(9.079 2.542)" fill="#001f30"/></g><g transform="translate(71.645 15.398)"><path d="M-.663-1.478l3.21.339a.534.534,0,0,0,.587-.474A.534.534,0,0,0,2.658-2.2l-3.21-.339a.533.533,0,0,0-.586.474.533.533,0,0,0,.474.586" transform="translate(1.141 2.542)" fill="#001f30"/></g><g transform="translate(61.236 20.76)"><path d="M-5.448-1.224c0,.486-.878.88-1.96.88s-1.961-.394-1.961-.88.878-.88,1.961-.88,1.96.394,1.96.88" transform="translate(9.369 2.104)" fill="#f7b29c"/></g><g transform="translate(72.009 20.906)"><path d="M-5.448-1.224c0,.487-.878.88-1.961.88s-1.96-.394-1.96-.88.878-.88,1.96-.88,1.961.394,1.961.88" transform="translate(9.369 2.104)" fill="#f7b29c"/></g></g></g></g></svg>