<svg xmlns="http://www.w3.org/2000/svg" width="26" height="22.448" viewBox="0 0 26 22.448"><path d="M120.524,67.154a.6.6,0,0,0-.111.019L111.5,69.73l-7.183-1.579a.591.591,0,0,0-.72.572V83.551a.591.591,0,0,0,.462.573l7.728,1.745a.593.593,0,0,0,.3-.009l6.131-1.847a.591.591,0,1,0-.342-1.126L111.9,84.678l-7.119-1.607V69.462l6.2,1.357.028,12.418a.591.591,0,1,0,1.182,0l-.028-12.474,7.719-2.216-.028,6.648a.591.591,0,1,0,1.182,0l.028-6.758,3.822.785-.009,5.254a.591.591,0,1,0,1.182,0l.009-5.743a.591.591,0,0,0-.471-.582l-4.9-.988a.6.6,0,0,0-.175-.009Zm3.749,8.448a5.253,5.253,0,0,0-5.337,5.373,8.946,8.946,0,0,0,1.9,4.727,38.251,38.251,0,0,0,2.991,3.7.591.591,0,0,0,.877,0,38.217,38.217,0,0,0,2.992-3.7,8.945,8.945,0,0,0,1.9-4.727,5.245,5.245,0,0,0-5.327-5.373Zm0,1.182a3.977,3.977,0,0,1,4.145,4.192,8.325,8.325,0,0,1-1.7,4.062,32.37,32.37,0,0,1-2.456,3.074,32.459,32.459,0,0,1-2.447-3.074,8.325,8.325,0,0,1-1.7-4.062A3.984,3.984,0,0,1,124.272,76.783Zm0,.932a2.881,2.881,0,1,0,2.853,2.881A2.882,2.882,0,0,0,124.272,77.716Zm0,1.21a1.672,1.672,0,1,1-1.708,1.671A1.676,1.676,0,0,1,124.272,78.925Z" transform="translate(-103.6 -67.151)" fill="#5a595a"/></svg>