<svg xmlns="http://www.w3.org/2000/svg" xmlns:xlink="http://www.w3.org/1999/xlink" width="655.392" height="392.5" viewBox="0 0 655.392 392.5"><defs><clipPath id="a"><rect width="655.392" height="392.5" transform="translate(0 0)" fill="none"/></clipPath></defs><g transform="translate(0 -0.003)"><g transform="translate(0 0.003)" clip-path="url(#a)"><path d="M1957.375,529.477a6.14,6.14,0,0,1-3.058-.786c-2.389-1.372-9.1-6.709-11.739-8.233l-.056-.033-.028-.016-.028-.014-.038-.021h-.014a20.5,20.5,0,0,0-7.272-2.508,39.2,39.2,0,0,1,18.943,6.362,8.815,8.815,0,0,0,4.937,1.816,6.661,6.661,0,0,0,5.56-3.5c.524-.8-.968-1.51-2.733-2.408a11.494,11.494,0,0,0,2,.175,11.347,11.347,0,0,0,1.723-.129c4.5-.687,6.71-1.6,8.158-2.922,1.1-1,4.644-5.32,3.286-7.961-.35-1.272.08-2.284.625-2.368h.117c.455.038.958.722,1.155,2.4.446,3.812-2.048,10.894,5.084,10.894.194,0,.4,0,.608-.016-2.746.813-6.3.407-8.945,1.017a77.927,77.927,0,0,0-14.738,7.064,5.243,5.243,0,0,1-3.548,1.192Z" transform="translate(-1372.061 -359.429)" fill="#eba27a"/><path d="M2011.592,520.107a11.5,11.5,0,0,1-2-.175,13.642,13.642,0,0,1-3.516-2.272c-2.164-2.225,1.372-1.922-1.524-5.477-.2-.253-1.262-1.652-2.082-2.735A5.216,5.216,0,0,0,2004.8,507c.045-.115.086-.23.121-.349,1.11.832,3.186,2.319,3.284,2.478,1.83,3,.152,4.49,4.116,4.812,2.469.2,4.577.65,6.447.65a6.969,6.969,0,0,0,3.158-.65c2.606-1.285,3.522-2.4,2.838-4.812a.046.046,0,0,0-.009-.031c1.358,2.641-2.19,6.961-3.286,7.961-1.449,1.321-3.66,2.237-8.158,2.922a11.312,11.312,0,0,1-1.723.13Z" transform="translate(-1419.797 -359.229)" fill="#eba27a"/><path d="M2000.114,508.1c-.474-.626-.874-1.148-.968-1.279,1.359-.578,1.327-1.059,2.744-2.059a6.665,6.665,0,0,0,.68.545c-.035.113-.075.231-.12.349a5.222,5.222,0,0,1-2.335,2.447Z" transform="translate(-1417.443 -357.891)" fill="#f7a882"/><path d="M247.175,631H179.538V419.956H281v56.818H247.175V631Z" transform="translate(-127.297 -297.759)" fill="#9fbdc6"/><path d="M502.642,769.451h10.821V731.572H502.642Zm-48.695-37.879V615.228H412V769.451h44.65V731.572Z" transform="translate(-292.118 -436.212)" fill="#9fbdc6"/><path d="M760.7,769.451h93.345V731.572H760.7Zm48.7-154.223v39.579a5.586,5.586,0,0,0,.631,1.01c.192.259.393.512.608.754,0,0,0,.006,0,.006.178.2.364.4.559.591l.006.006h2.6l.009-.006a10.523,10.523,0,0,1,5.529-1.958,7.03,7.03,0,0,1,1.964.282,27.226,27.226,0,0,0,7.56,1.266h.643a14.8,14.8,0,0,0,5.59-1.3h0V615.228Z" transform="translate(-539.355 -436.212)" fill="#9fbdc6"/><path d="M1081.5,693.635h55.463V655.756H1081.5ZM1096.38,508.3V560.68h0q2.025-.716,4.074-1.362a.01.01,0,0,0,.006,0l.017-.009h0a133.134,133.134,0,0,1,16.21-4.036c.445-.081.887-.163,1.333-.239V508.3Z" transform="translate(-766.809 -360.396)" fill="#9fbdc6"/><path d="M1610.1,444.507V629.844H1346.51V591.965h51.407v-149.4l44.432-21.518,4.077-1.976,1.545-.748V545.973h24.352v-117.7h31.108v117.7h21.646V444.507h14.88V432.333H1561.6V420.158h13.527v12.174h23v12.174Z" transform="translate(-954.708 -296.606)" fill="#9fbdc6"/><path d="M90.128,586.073v96.051H.01V545.488H72.541v40.585Z" transform="translate(-0.007 -386.765)" fill="#b4ccd0"/><rect width="59.525" height="163.692" transform="translate(96.887 131.677)" fill="#b4ccd0"/><path d="M1912.548,545.488h-73.054v52.76h-9.469v83.876h91.992V598.251h-9.469Z" transform="translate(-1297.532 -386.765)" fill="#b4ccd0"/><rect width="43.291" height="123.107" transform="translate(464.854 172.254)" fill="#b4ccd0"/><path d="M822.643,381.611h-23v-9.469H784.763v9.469h-23v12.176H745.532v89.287H723.887V378.911H690.065V483.074h-25.7V369.689L556.137,413.421V557.479h281.38V393.787H822.636V381.611Z" transform="translate(-394.314 -262.119)" fill="#b4ccd0"/><path d="M732.832,44.088A44.084,44.084,0,1,1,688.748,0a44.086,44.086,0,0,1,44.084,44.084" transform="translate(-457.082 -0.004)" fill="#fbc93a"/><path d="M2069.632,27.6v74.944h-57.6l-.267,0a17.072,17.072,0,0,1-17.13-17.01c0-.09,0-.18.006-.268a17.066,17.066,0,0,1,17.391-16.74,17.245,17.245,0,0,1,4.577.629c-.006-.166-.014-.326-.014-.5v-.006a24.961,24.961,0,0,1,38.627-20.889A26.6,26.6,0,0,1,2069.632,27.6" transform="translate(-1414.24 -19.569)" fill="#fef7f3"/><path d="M38.724,59.435c0,.1,0,.189,0,.282a20.244,20.244,0,0,1-20.589,19.9H.01V23.9A20.263,20.263,0,0,1,9.187,40.871c0,.143-.009.285-.009.428a20.52,20.52,0,0,1,8.953-2.046h.006c.093,0,.186,0,.282,0a20.247,20.247,0,0,1,20.3,20.185" transform="translate(-0.007 -16.945)" fill="#fef7f3"/><path d="M1320.468,30.322a19.59,19.59,0,0,0-8.554,1.956c0-.136.009-.273.009-.409a19.363,19.363,0,0,0-38.547-2.634,18.154,18.154,0,0,0-28.106,15.193c0,.123,0,.243.009.364a12.647,12.647,0,0,0-3.331-.458A12.314,12.314,0,0,0,1229.291,56.3c0,.094,0,.189-.005.283a12.315,12.315,0,0,0,12.376,12.253c.1,0,.19,0,.285,0h78.521a19.321,19.321,0,0,0,19.664-18.972c0-.095,0-.19,0-.285a19.321,19.321,0,0,0-19.383-19.259l-.284,0Z" transform="translate(-871.593 -8.865)" fill="#fef7f3"/><path d="M523.176,78.049a18.153,18.153,0,0,0-7.926,1.811c0-.126.009-.252.009-.379a17.94,17.94,0,0,0-35.714-2.438A16.827,16.827,0,0,0,453.5,91.125l.009.335A11.7,11.7,0,0,0,438.7,102.707v.024a11.7,11.7,0,0,0,11.7,11.694h72.776A18.192,18.192,0,0,0,541.4,96.265v-.026a18.192,18.192,0,0,0-18.2-18.187h-.026Z" transform="translate(-311.045 -43.633)" fill="#fef7f3"/><rect width="655.389" height="95.734" transform="translate(0.003 295.619)" fill="#cb3e45"/><rect width="655.389" height="30.616" transform="translate(0.002 361.883)" fill="#eb5457"/><rect width="655.389" height="27.328" transform="translate(0.003 328.182)" fill="#eb5457"/><rect width="655.391" height="24.177" transform="translate(0 297.015)" fill="#eb5457"/><rect width="655.389" height="0.864" transform="translate(0.003 309.62)" fill="#fab7bf"/><rect width="655.389" height="0.863" transform="translate(0.002 333.431)" fill="#fab7bf"/><rect width="655.389" height="0.863" transform="translate(0.002 345.969)" fill="#fab7bf"/><rect width="655.389" height="0.863" transform="translate(0.002 365.669)" fill="#fab7bf"/><rect width="655.389" height="0.863" transform="translate(0.002 380.419)" fill="#fab7bf"/><path d="M698.9,1228.57H470.222c-6.388-1.2-9.923-2.511-9.923-3.894a1.019,1.019,0,0,1,.239-.62h21.97a11.617,11.617,0,0,0,3.887.6,32.581,32.581,0,0,0,4.39-.376q.781-.108,1.461-.227H708.578a.988.988,0,0,1,.241.62c0,1.382-3.537,2.7-9.923,3.894" transform="translate(-326.363 -867.886)" fill="#ad2e38"/><path d="M572.071,1245.9c.524.012,1.05.026,1.577.038.041,0,.079,0,.119,0,11.1.262,22.85.4,35.007.4h.012c12.151,0,23.9-.14,35-.4l.122,0c.527-.012,1.053-.026,1.577-.038Zm-77.621-5.593c1.81.338,3.847.666,6.1.984,11.037,1.563,27.2,2.857,46.655,3.745H670.374c19.46-.89,35.621-2.185,46.658-3.745,2.249-.317,4.286-.646,6.093-.984Z" transform="translate(-350.577 -879.409)" fill="#c64048"/><path d="M835.093,1190.93h-72.7c11.5-.28,23.706-.432,36.352-.432s24.856.15,36.353.432Z" transform="translate(-540.552 -844.093)" fill="#d77f8d"/><path d="M773.983,1257.558H700.566c-8.739-.215-17.077-.507-24.879-.863H798.86c-7.8.349-16.135.647-24.879.863Z" transform="translate(-479.078 -891.028)" fill="#d77f8d"/><path d="M1223.2,612.754c-9.712-11.984-24.253-21.07-34.051-25.632l-13.959-5.7a22.921,22.921,0,0,1-2.817-1.15,18.4,18.4,0,0,1-2.524,4c-.923,4.322-6.627,11.14-14.09,18.152,9.249,5.691,25.453,11.885,40.187,16.887s16.794,11.065,12.963,14.667-9.282,1.538-26.74,13.029-35.463,30.538-35.463,30.538c3.2,4.63,7.774,10.486,10.2,10.123a38.02,38.02,0,0,1,16.573-13.26c9.944-4.194,22.318-12.375,35.578-20.551s22.982-16.572,24.426-20.993.11-7.293-10.275-20.109Z" transform="translate(-813.042 -411.427)" fill="#516cbe"/><path d="M1157.491,700.984c17.458-11.491,22.909-9.438,26.74-13.029s1.769-9.658-12.963-14.667-30.934-11.2-40.187-16.886a185.658,185.658,0,0,1-19.183,15.635s7.734,3.321,22.318,4.862,13.922,1.767,19.447,3.093,12.153,3.978,13.26,5.082-3.978,2.651-12.375,9.5S1139.518,710.929,1129.8,718c-3.964,2.884-7.966,5.729-11.315,8.09,0,0,1.495,2.466,3.546,5.434,0,0,18-19.05,35.463-30.538Z" transform="translate(-788.363 -465.406)" fill="#3e559f"/><path d="M609.325,612.384c10.607-4.654,15.03-7.721,30.06-17.444s27.107-26.216,40.954-39.483,15.03-16.2,38.436-34.339c-8.754-8.258-12.86-19.214-12.811-25.087-4.79,1.3-15.215,4.032-22.825,11.4-9.28,8.987-9.133,17.236-11.344,24.456S669.962,542.2,658.43,548.83s-20.814,22.318-27.221,30.06-7.515,11.491-22.982,18.342-28.947,27.18-40.438,39.776a120.6,120.6,0,0,1-13.244,13.15,15.569,15.569,0,0,0,5.641,10.671s38.541-43.783,49.146-48.436Z" transform="translate(-393.186 -351.699)" fill="#536abc"/><path d="M583.929,723.994c4.42-4.42,6.409-11.71,13.038-15.9s15.469-13.258,24.087-18.34,9.944-9.06,17.678-12.154,13.922-4.862,19.667-9.944,10.387-7.515,19.669-11.71,19.667-17.458,30.274-24.307a204.882,204.882,0,0,1,22.1-12.155c14.88-10.533,31.633-26.1,33.275-33.787-3.2,3.925-9.623,8.686-20.237,3.953a39.4,39.4,0,0,1-10.99-7.381C709.079,600.4,707.9,603.347,694.052,616.6s-25.929,29.758-40.954,39.482-19.447,12.792-30.061,17.444-49.145,48.436-49.145,48.436a26.424,26.424,0,0,0,7.531,4.617c.718-.767,1.545-1.627,2.5-2.585Z" transform="translate(-406.903 -412.841)" fill="#4761aa"/><path d="M493.954,1046.867c3.093,9.506-.757,19.225-.267,22.986s1.889,6.629,11.981,9.5,11.271-1.325,11.271-1.325,2.155-4.4,4.061-2.087a7.3,7.3,0,0,1-.306-1.224c-.22-1.547-7.734-4.194-7.734-4.194s-1.1-3.093,1.989-9.944a102.163,102.163,0,0,1,4.42-9.28,9.3,9.3,0,0,0,.22-4.862c-4.862,3.978-7.7,5.3-9.486,1.547s-9.074-2.651-7.087-9.06,4.894-6.746,4.434-11.439a27.188,27.188,0,0,0-6.641.175,11.758,11.758,0,0,0-5.3,1.987c-4.42,6.409-4.64,7.728-1.547,17.234Z" transform="translate(-348.751 -728.424)" fill="#474c5e"/><path d="M477.569,1038.434c-1.547,4.64,1.989,13.258,1.989,23.645s-2.209,17.016,5.082,21.656,9.06,5.524,17.016,4.42,8.84-2.873,9.28-4.194a4.237,4.237,0,0,0-.349-2.749c-1.907-2.309-4.062,2.087-4.062,2.087s-1.18,4.194-11.271,1.325-11.491-5.745-11.98-9.5,3.363-13.48.267-22.986-2.873-10.825,1.547-17.234c0,0-5.966-1.1-7.515,3.536Z" transform="translate(-338.33 -733.688)" fill="#fdfefb"/><path d="M1042.219,947.464c-.664,3.321-2.652,5.967,9.28,13.7s13.7,13.038,21.876,19.225,16.574,7.734,21.656,6.407c3.506-.914,4.907-2.356,4.352-4.544-3.228,1.87-8.389,2.464-16.285-1.426-14.365-7.073-10.387-17.236-24.529-22.474s-11.491-8.022-11.271-15.093c0,0-4.42.884-5.082,4.194Z" transform="translate(-738.571 -668.794)" fill="#fdfefb"/><path d="M1068.143,916.715a66.062,66.062,0,0,0-7.956,6.519c-.22,7.071-2.873,9.855,11.271,15.093s10.165,15.4,24.529,22.474c7.9,3.89,13.057,3.3,16.285,1.426a9.767,9.767,0,0,0-1.923-3.415,70.745,70.745,0,0,0-12.153-11.049c-1.767-1.1-3.093-8.176-4.194-12.6a22.314,22.314,0,0,1-.573-3.113c-1.2-5.729-8.706-4.394-16.381-4.394s-5.362-7.515-3.815-12.374c0,0-1.1-1.224-5.082,1.437Z" transform="translate(-751.46 -648.763)" fill="#474c5e"/><path d="M535.3,1028.26a9.466,9.466,0,0,0-1.531-.245c.458,4.693-2.447,4.993-4.434,11.4s5.3,5.285,7.087,9.041,4.626,2.571,9.487-1.4a9.82,9.82,0,0,0,1.891-2.148c-14.485-3.536-12.5-16.645-12.5-16.645Z" transform="translate(-375.071 -728.888)" fill="#a31a51"/><path d="M551.554,1025.684c-.811.627-1.12.921-1.12.921s-1.989,13.108,12.5,16.645c.493,0,1.082-1.368,1.793-2.127,0,0-12.493-4.719-13.172-15.439Z" transform="translate(-390.205 -727.235)" fill="#f9b288"/><path d="M1122.811,923.906c-.122.28-16.849-2.742-18.513-13.478-1.454,1.012-2.312,1.6-2.312,1.6-1.547,4.86-3.859,12.374,3.815,12.374s15.182-1.333,16.381,4.394a9.592,9.592,0,0,1,.629-4.894Z" transform="translate(-780.218 -645.516)" fill="#a31a51"/><path d="M1132.25,913.6h0a9.817,9.817,0,0,1,1.272-2.151c-3.978.589-13.744-15.554-13.746-15.554-2.447,1.73-4.558,3.2-6.04,4.229,1.666,10.736,18.393,13.758,18.513,13.478Z" transform="translate(-789.666 -635.215)" fill="#f9b288"/><path d="M1031.914,220.97q-2.057-.524-4.38-1.049c-8.73-1.989-11.17-2.424-15.59-4.523a5.645,5.645,0,0,0-5.31-.451,5.564,5.564,0,0,1-2.319.455,86.169,86.169,0,0,0-24.531,5.084c-10.717,3.868-20,11.271-23.314,13.15s-6.521,1.922-11.088.589-7.882,4.194-11.344,4.42-4.125-.737-10.68-1.62-6.556-.589-7.071-.222-.332.524-.332.524-4.125-.664-4.383.995,1.031,2.209,2.761,2.282,3.462.259,3.462.259-.848,1.989,1.51,2.1a14.54,14.54,0,0,1,6.519,1.989c1.922,1.1,6.776,4.972,8.508,5.967a4.37,4.37,0,0,0,4.789-.294A56.457,56.457,0,0,1,949.8,245.5c1.922-.442,4.494-.148,6.482-.738a86.367,86.367,0,0,1,11.71-3.389c4.273-.662,9.8-2.651,15.394-2.8s13.775-1.031,20.257-1.031,7.515-.442,7.515-.442a16,16,0,0,0,2.826,2.6c-1.283-15.575,17.921-18.739,17.922-18.739Z" transform="translate(-646.303 -152.077)" fill="#f9b288"/><path d="M1270.968,259.372c9.06-6.335,8.766-7.515,16.72-9.871s13.573-3.352,14.594-4.991a12.624,12.624,0,0,1-8.214-2.845c-1.909-1.727-6.3-3.294-12.657-4.9,0,0-19.206,3.163-17.923,18.741a20.469,20.469,0,0,0,2.621,1.659,25.732,25.732,0,0,0,4.863,2.209Z" transform="translate(-895.8 -167.871)" fill="#7801c1"/><path d="M1231.684,430.184a9.372,9.372,0,0,0-2.071-6.39c-1.178-2.062-1.178,3.831-11.784,7.66s-27.45,6.482-31.7,14.142.76,6.53-8.962,16.079a108.912,108.912,0,0,0-13.314,16.114c14.814,5.158,20.679-8.77,20.679-8.77-1.1-.664,2.873-4.862,7.955-5.746a74.493,74.493,0,0,0,13.48-3.757c2.651-1.1,1.989-3.536,6.629-3.978s8.838-5.3,11.491-5.746,7.955-4.194,7.955-4.194c-1.546-7.365-.349-11.678-.36-15.415Z" transform="translate(-825.2 -300.18)" fill="#7801c1"/><path d="M1201.565,325.831c-2.209-7.181-6.519-9.722-6.519-10.607s1.547-7.734.883-12.6-1.1-7.182-2.983-9.834-6.407-6.519-6.077-10.607,2.983-7.623.994-11.6a9.228,9.228,0,0,0-5.138-4.862c-9.391-2.761-11.573-2.375-14.115-2.375-1.021,1.639-6.641,2.634-14.593,4.991s-7.66,3.536-16.72,9.871a133.528,133.528,0,0,0-19.371,13.258c-9.392,7.845-21.436,20.773-28.617,27.614s-9.833,10.277-12.153,11.271a21.678,21.678,0,0,1-2.256.68c-.065,7.938,7.449,25.167,23.8,32.467.715.32,1.4.58,2.082.816a108.905,108.905,0,0,1,13.314-16.114c9.723-9.553,4.719-8.42,8.962-16.079s21.09-10.312,31.7-14.143,10.607-9.722,11.785-7.66a9.375,9.375,0,0,1,2.071,6.39c.01,3.736-1.187,8.048.36,15.415,0,0,.7,1.732,1.772,4.336,15.244.968,30.823-10.633,30.823-10.633Z" transform="translate(-762.129 -186.709)" fill="#9b15ed"/><path d="M1424.613,455.664c2.651.662,2.358-.524,12.818-3.167a92.074,92.074,0,0,0,28.285-12.522c7.515-5.156,17.236-11.491,17.236-11.491s6.924-1.327,10.607-4.567a61.632,61.632,0,0,0,8.508-8.359,16.94,16.94,0,0,1,6.077-5.3c1.769-.774,4.53-2.431,5.026-3.812s-.166-2.272-2.485-1.547a61,61,0,0,0-5.691,2.487,14.134,14.134,0,0,0-3.037,1.491c-.442.386-.718-.22.884-1.767s4.032-3.592,5.855-5.026a38.576,38.576,0,0,0,3.646-2.817c.608-.718,1.049-2.983-1.27-2.541a21.455,21.455,0,0,0-5.581,2.319c-1.381.664-1.877.5-2.927,1.272s-3.591,3.922-3.978,4.254.608-1.493,2.211-3.093a31.183,31.183,0,0,1,4.254-3.48c1.16-.83,4.308-3.592,5.524-4.194s1.1-3.758-1.879-3.321-6.851,3.646-8.122,4.369a20.463,20.463,0,0,0-3.479,3.037c-.995.938-1.271,1.767-2.209,1.933s.608-2.431,1.989-4.694a29.634,29.634,0,0,1,4.254-5.691c1.224-1.1,2.818-3.093,1.989-4.474s-3.037-.663-5.691,1.933a35.529,35.529,0,0,0-4.7,4.806c-.442.883-3.038,5.579-3.536,6.292a26.252,26.252,0,0,1-5.138,4.53,29.179,29.179,0,0,1-4.64,1.6c-.883.5-.994,1.879-1.325,5.137s-.718,4.476-.774,5.138a3.309,3.309,0,0,1-.718,1.659c-.22.22-10.993,5.469-14.308,6.685s-5.3,2.553-8.176,2.553-9.281.123-12.154.123h-3.646a42.687,42.687,0,0,0-1.874-13.381s-15.892,11.259-30.6,10.291v-.056c1.961,5.67,6.187,15.458,8.609,20.607,3.536,7.515,7.515,12.126,10.159,12.788Z" transform="translate(-996.777 -272.457)" fill="#f9b288"/><path d="M1667.933,416.337c.736-3.686-1.62-7.915-3.389-6.921s-.664,3.866-.885,5.855-3.756,3.536-4.972,6.575a29.187,29.187,0,0,0,4.64-1.6,27.682,27.682,0,0,0,4.6-3.908Z" transform="translate(-1176.05 -290.182)" fill="#f0ab83"/><path d="M1495.589,170.18c-.662-7.733-6.187-19.667-24.307-21.656s-20.085,15.247-21.846,19.083-6.931,14.948-9.873,16.22a5.665,5.665,0,0,1,1.531.383,9.239,9.239,0,0,1,5.243,4.862c1.989,3.978-.613,7.515-.945,11.6s4.224,7.956,6.1,10.607a46.854,46.854,0,0,1,5.133-2.872c1.922-.811,4.2-3.02,7.223-3.02s6.043,1.251,9.726,4.125,6.7-.3,7.293-2.651,1.475-2.272,1.475-2.272a6.522,6.522,0,0,0,2.283-1.342c.442-.662-.22-1.693-.22-1.693l1.18-.589a18.7,18.7,0,0,1,.524-2.062c.294-.885,1.031-1.694,1.473-1.545a21.878,21.878,0,0,0,3.167,0c1.178,0,2.062.147,1.989-2.282s-.589-5.3-.958-8.323-.073-2.724,2.062-4.42,2.431-4.42,1.767-12.153Z" transform="translate(-1020.685 -105.195)" fill="#f9b288"/><path d="M1493.909,296.72c1.922-.811,4.194-3.02,7.221-3.02s6.044,1.252,9.726,4.125c-2.354-2.725-3.092-4.788-7.217-7.809a12.694,12.694,0,0,1-5.524-11.418c.222-4.42-.7-7.1-1.031-4.894-1.108,7.272-3.845,19.155-4.923,23.884.617-.336,1.223-.649,1.748-.874Z" transform="translate(-1057.978 -193.506)" fill="#e28f6a"/><path d="M1452.771,165.94a9.321,9.321,0,0,0,12.625-1.433c3.757-3.868,12.933-9.2,14.917-4.378s-.22,9.02,0,9.682,3.646,1.622,3.646,1.622.885-6.832,4.53-8.758,5.084-3.583,3.647-8.335,5.967-5.7,8.286-.7,4.782,5.334,4.607,3.511,3.237-11.655-5.822-18.506-15.249-11.049-21.436-9.722-8.73-.552-12.706,3.756-8.618,5.967-8.066,11.71,1.767,4.53-.994,9.722a34.238,34.238,0,0,0-3.235,11.818Z" transform="translate(-1030.049 -91.238)" fill="#2b2827"/><path d="M1601.165,254.942c-3.389-3.167-4.719-2.725-6.482-2.358s-5.009,1.143-3.167,1.049a7.167,7.167,0,0,1,5.451,1.307,4.149,4.149,0,0,0,2.725,1.325l1.473-1.325Z" transform="translate(-1128.034 -178.908)" fill="#231714"/><path d="M1675.375,413.506c1.489.157,2.207.045,2.263-1.059s-.11-3.093-1.325-2.761c-1.223.685-1.073,2.258-.937,3.82Z" transform="translate(-1187.818 -290.451)" fill="#fddfc9"/><path d="M1725.376,385.615c.316,1.061.924,1.945,2.2,1.283s2.532-2.908.657-2.669a4.718,4.718,0,0,0-2.852,1.388Z" transform="translate(-1223.333 -272.416)" fill="#fddfc9"/><path d="M1755.453,409.472c-1.049-.484-1.713-1.314-1.657-1.645s1.882-1.879,3.038-.828-1.381,2.473-1.381,2.473" transform="translate(-1243.481 -288.318)" fill="#fddfc9"/><path d="M1765.008,429.267c-.514-.587.8-2.209,1.8-1.327s-.68,2.6-1.8,1.327" transform="translate(-1251.351 -303.238)" fill="#fddfc9"/><path d="M1767.4,456.6s.22.718,1.409.22.552-1.933-.7-1.493-.7,1.272-.7,1.272Z" transform="translate(-1253.048 -322.782)" fill="#fddfc9"/><path d="M988.861,276.555c-.914.629-1.646-.259-2.382-1.224s-.524-1.248-1.1-2.17-1.922-1.655-3.389,0a4.424,4.424,0,0,0,0,5.484c1.049.9,3.2,1.842,2.971,3.683s3.168,3.845,6.816,3.3a10.8,10.8,0,0,0,5.911-2.118c1.033-.944,5.082-5.967.367-7.071s-8-.7-9.182.112Z" transform="translate(-695.576 -192.98)" fill="#f9b288"/><path d="M958.207,301.805a4.446,4.446,0,0,1-2.216-.57c-1.732-.995-6.592-4.862-8.508-5.967l-.042-.023-.021-.012-.019-.01-.028-.016h-.01a14.859,14.859,0,0,0-5.27-1.818A28.413,28.413,0,0,1,955.821,298a6.388,6.388,0,0,0,3.578,1.316,4.827,4.827,0,0,0,4.02-2.531c.384-.58-.7-1.094-1.982-1.748a8.371,8.371,0,0,0,2.7.032,10.806,10.806,0,0,0,5.911-2.118c.794-.725,3.366-3.855,2.382-5.767-.252-.923.058-1.655.454-1.716h.084c.329.028.7.524.837,1.748.323,2.761-1.484,7.894,3.684,7.894.142,0,.288,0,.441-.012-1.989.589-4.567.3-6.482.737a56.449,56.449,0,0,0-10.68,5.119,3.8,3.8,0,0,1-2.571.863Z" transform="translate(-667.967 -202.405)" fill="#eba27a"/><path d="M997.507,295.008a8.3,8.3,0,0,1-1.451-.125,9.9,9.9,0,0,1-2.548-1.652c-1.573-1.613.995-1.4-1.1-3.969-.149-.175-.914-1.2-1.508-1.982a3.78,3.78,0,0,0,1.692-1.774c.033-.083.061-.174.087-.25.8.6,2.309,1.68,2.38,1.8,1.325,2.174.11,3.254,2.982,3.5,1.789.145,3.321.47,4.672.47a5.044,5.044,0,0,0,2.289-.47c1.888-.932,2.552-1.736,2.057-3.5v-.023c.984,1.914-1.587,5.044-2.38,5.767a10.806,10.806,0,0,1-5.911,2.118,8.2,8.2,0,0,1-1.249.095Z" transform="translate(-702.568 -202.254)" fill="#eba27a"/><path d="M982.692,278.433a1.7,1.7,0,0,1-1.273-.552,4.835,4.835,0,0,1,.109-3.924v-.014l.01-.019.01-.018a3.487,3.487,0,0,1,.406-.587l.013-.016.015-.017a2.446,2.446,0,0,1,1.779-.984,1.7,1.7,0,0,1,.956.308c.349.349.594.6.653.678l.122.21a3.671,3.671,0,0,1,.187,2.6,4.735,4.735,0,0,1-.493-.395c-1.026.723-1,1.073-1.989,1.492.075.095.358.474.7.928a2.673,2.673,0,0,1-1.224.336Z" transform="translate(-695.592 -193.07)" fill="#f9b08a"/><path d="M989.191,286.314c-.349-.454-.627-.832-.7-.928.986-.42.961-.767,1.989-1.493a4.766,4.766,0,0,0,.493.4c-.026.082-.054.175-.088.25a3.781,3.781,0,0,1-1.692,1.774Z" transform="translate(-700.865 -201.288)" fill="#f7a882"/><path d="M1585.941,326.512c0-.21-.2-.624-1.792-.652a16.135,16.135,0,0,1-3.058-.259s.43,4.9,2.419,4.3a3.97,3.97,0,0,0,1.447-.986c.442-.663-.22-1.693-.22-1.693l1.18-.589.023-.122Z" transform="translate(-1121.031 -230.861)" fill="#e4a17b"/><path d="M1538.606,231.944l15.238,7.66-.685,1.473-14.032-7.052-.524-2.08Z" transform="translate(-1090.906 -164.455)" fill="#b6bebb"/><path d="M1521.934,231.075c-1.791-4.128-4.787-5.593-7.365-3.682s-2.431,5.451-1.473,9.207,2.5,5.082,2.5,6.409,2.651.3,3.536-1.84,1.842-.811,1.693-3.9-1.325-2.651.075-3.829,1.4-1.51,1.031-2.357Z" transform="translate(-1072.369 -160.641)" fill="#f9b288"/><path d="M1524.654,245.55c-2.763.685-3.682,2.05-2.651,3.161s1.853.89,1.774,2.585.731.22.874-1.327-.591-1.325,0-2.282.953-2.372,0-2.136Z" transform="translate(-1078.845 -174.084)" fill="#d28563"/><path d="M1515.842,243.521a10.126,10.126,0,0,0-1.353-6.25c-1.4-2.5-2.032-5.3.294-7.728s3.821-1.015,5.747,1.4a6.327,6.327,0,0,0,1.5,1.29,1.246,1.246,0,0,0-.1-1.143c-1.791-4.128-4.787-5.593-7.365-3.683s-2.431,5.451-1.473,9.207,2.5,5.082,2.5,6.409a.54.54,0,0,0,.248.5Z" transform="translate(-1072.365 -160.649)" fill="#f9a67c"/><path d="M1582.791,265.069l-3.5-1.531a2.328,2.328,0,0,1-1.2-3.067l1.473-3.359a2.4,2.4,0,0,1,3.164-1.234l7.515,3.3a1.962,1.962,0,0,1,1.009,2.583v0a6.436,6.436,0,0,1-8.48,3.308Z" transform="translate(-1118.771 -181.281)" fill="#242e2f"/><path d="M1050.719,278.533a86.349,86.349,0,0,1,11.71-3.389c4.273-.663,9.8-2.651,15.394-2.8s13.775-1.031,20.257-1.031,7.515-.442,7.515-.442c-4.64-4.273-5.229-6.924-6.26-7.807s-2.947-2.209-16.5,1.767-28.434,8.1-33,8.544c-2.99.288-3.525,2.669-5.105,5.8a50.663,50.663,0,0,0,5.988-.648Z" transform="translate(-740.739 -185.854)" fill="#e28f6a"/></g></g></svg>