<svg xmlns="http://www.w3.org/2000/svg" width="25.622" height="25.62" viewBox="0 0 25.622 25.62"><path d="M110.526,30.634a1.281,1.281,0,1,0,0-.854h-2.64V26.116l1.03-1.03h.756a1.281,1.281,0,1,0,0-.854h-.932a.427.427,0,0,0-.3.125l-1.058,1.058L104.9,24.1v-2.43h1.359a1.281,1.281,0,1,0,0-.854h-1.786a.427.427,0,0,0-.427.427v2.4l-3.415-1.807V19.885a1.281,1.281,0,1,0-.854,0v1.957l-3.415,1.808V21.244a.427.427,0,0,0-.427-.427H94.149a1.281,1.281,0,1,0,0,.854h1.359V24.1l-2.482,1.314-1.058-1.058h0a.427.427,0,0,0-.3-.125h-.932a1.281,1.281,0,1,0,0,.854h.756l1.03,1.03v3.665h-2.64a1.281,1.281,0,1,0,0,.854h2.64V34.3l-1.03,1.03h-.756a1.281,1.281,0,1,0,0,.854h.932a.427.427,0,0,0,.3-.125L93.026,35l2.482,1.314v2.43H94.149a1.281,1.281,0,1,0,0,.854h1.786a.427.427,0,0,0,.427-.427v-2.4l3.415,1.807v1.956a1.281,1.281,0,1,0,.854,0V38.574l3.415-1.808v2.405a.427.427,0,0,0,.427.427h1.786a1.281,1.281,0,1,0,0-.854H104.9v-2.43L107.381,35l1.058,1.058h0a.427.427,0,0,0,.3.125h.932a1.281,1.281,0,1,0,0-.854h-.756l-1.03-1.03V30.634Zm1.2-.854a.427.427,0,1,1-.427.427A.427.427,0,0,1,111.728,29.781Zm-.854-5.549a.427.427,0,1,1-.427.427A.427.427,0,0,1,110.875,24.232Zm-3.415-3.415a.427.427,0,1,1-.427.427A.427.427,0,0,1,107.46,20.817Zm-14.513.854a.427.427,0,1,1,.3-.125A.427.427,0,0,1,92.947,21.67Zm-3.415,3.415a.427.427,0,1,1,.3-.125A.427.427,0,0,1,89.532,25.085Zm-.854,5.549a.427.427,0,1,1,.3-.125A.427.427,0,0,1,88.679,30.634Zm.854,5.549a.427.427,0,1,1,.3-.125A.427.427,0,0,1,89.532,36.183ZM92.947,39.6a.427.427,0,1,1,.3-.125A.427.427,0,0,1,92.947,39.6Zm14.513-.854a.427.427,0,1,1-.427.427A.427.427,0,0,1,107.46,38.744Zm3.415-3.415a.427.427,0,1,1-.427.427A.427.427,0,0,1,110.875,35.33ZM100.2,18.256a.427.427,0,1,1-.427.427A.427.427,0,0,1,100.2,18.256Zm0,23.9a.427.427,0,1,1,.3-.125A.427.427,0,0,1,100.2,42.159Zm6.83-7.939-6.83,3.615-6.83-3.615V26.2l6.83-3.616,6.83,3.616Z" transform="translate(-87.393 -17.397)" fill="#5a595a"/><path d="M224.962,140.042l-5.976,2.988a.427.427,0,0,0-.236.382v6.83a.427.427,0,0,0,.236.384l5.976,2.988a.427.427,0,0,0,.382,0l5.976-2.988a.427.427,0,0,0,.236-.384v-6.83a.427.427,0,0,0-.236-.382l-5.976-2.988A.427.427,0,0,0,224.962,140.042Zm5.74,3.634v6.3l-5.549,2.775-5.549-2.775v-6.3l5.549-2.775Z" transform="translate(-212.342 -134.016)" fill="#5a595a"/><path d="M255.457,238.184l-.9-1.8a.427.427,0,0,0-.811.191v3.842h.854v-2.033l.9,1.8h0a.427.427,0,0,0,.809-.191v-3.842h-.854Z" transform="translate(-245.634 -225.475)" fill="#5a595a"/><path d="M323.75,236.677v3.842h.854v-1.707h1.281v-.854H324.6V237.1h1.707v-.854h-2.134A.427.427,0,0,0,323.75,236.677Z" transform="translate(-312.22 -225.574)" fill="#5a595a"/><path d="M394.6,240.519h.854V237.1h.854v-.854H393.75v.854h.854Z" transform="translate(-378.805 -225.574)" fill="#5a595a"/></svg>