<svg xmlns="http://www.w3.org/2000/svg" xmlns:xlink="http://www.w3.org/1999/xlink" width="661" height="395.861" viewBox="0 0 661 395.861"><defs><clipPath id="a"><rect width="661" height="395.861" fill="none"/></clipPath><clipPath id="b"><rect width="661" height="395.862" fill="none"/></clipPath><clipPath id="c"><rect width="378.842" height="44.828" fill="none"/></clipPath><clipPath id="d"><rect width="378.837" height="44.835" fill="none"/></clipPath><clipPath id="e"><rect width="11.281" height="177.548" fill="none"/></clipPath><clipPath id="f"><rect width="11.281" height="177.545" fill="none"/></clipPath></defs><g clip-path="url(#a)"><g transform="translate(0 -0.001)"><g clip-path="url(#b)"><path d="M1957.556,529.665a6.192,6.192,0,0,1-3.085-.793c-2.409-1.384-9.174-6.767-11.84-8.3l-.056-.033-.028-.016-.028-.014-.039-.021h-.014a20.682,20.682,0,0,0-7.335-2.529,39.539,39.539,0,0,1,19.106,6.416,8.891,8.891,0,0,0,4.979,1.831,6.717,6.717,0,0,0,5.607-3.525c.529-.807-.976-1.523-2.756-2.429a11.59,11.59,0,0,0,2.02.176,11.443,11.443,0,0,0,1.738-.131c4.537-.693,6.767-1.614,8.228-2.947,1.1-1.008,4.684-5.366,3.314-8.029-.353-1.283.081-2.3.631-2.389h.119c.458.039.966.728,1.165,2.424.449,3.844-2.066,10.987,5.127,10.987.2,0,.4,0,.613-.016-2.769.82-6.356.411-9.021,1.026a78.587,78.587,0,0,0-14.865,7.125,5.288,5.288,0,0,1-3.578,1.2Z" transform="translate(-1367.233 -358.161)" fill="#eba27a"/><path d="M2011.66,520.217a11.6,11.6,0,0,1-2.02-.176,13.757,13.757,0,0,1-3.546-2.291c-2.182-2.244,1.384-1.939-1.537-5.524-.206-.256-1.273-1.666-2.1-2.759a5.261,5.261,0,0,0,2.355-2.468c.046-.116.086-.232.121-.352,1.119.839,3.214,2.339,3.312,2.5,1.846,3.025.153,4.528,4.151,4.853,2.491.2,4.617.656,6.5.656a7.029,7.029,0,0,0,3.185-.656c2.628-1.3,3.552-2.417,2.863-4.853a.046.046,0,0,0-.009-.032c1.37,2.663-2.209,7.021-3.314,8.029-1.461,1.333-3.691,2.256-8.228,2.947a11.411,11.411,0,0,1-1.738.131Z" transform="translate(-1414.801 -357.961)" fill="#eba27a"/><path d="M2000.112,508.127c-.478-.631-.881-1.158-.976-1.29,1.371-.583,1.338-1.068,2.767-2.076a6.733,6.733,0,0,0,.686.55c-.035.114-.076.233-.121.352a5.266,5.266,0,0,1-2.355,2.468Z" transform="translate(-1412.455 -356.629)" fill="#f7a882"/><path d="M247.744,632.8H179.528V419.951h102.33v57.3H247.744V632.8Z" transform="translate(-126.843 -296.708)" fill="#9fbdc6"/><path d="M454.3,732.56V615.22H411.99V770.766h45.027l.006,0v-38.2Zm49.112,38.207h10.914v-38.2H503.408Z" transform="translate(-291.084 -434.672)" fill="#9fbdc6"/><path d="M809.811,615.22v39.917c.047.1.1.191.147.285a5.421,5.421,0,0,0,.49.734,11.088,11.088,0,0,0,1.18,1.365l.006.006h2.624l.009-.006a10.594,10.594,0,0,1,5.5-1.972.606.606,0,0,1,.073-.006,7.129,7.129,0,0,1,1.981.285,26.848,26.848,0,0,0,3.275.822,27.706,27.706,0,0,0,4.349.458h.528a.332.332,0,0,1,.076,0h.044a14.984,14.984,0,0,0,5.637-1.315h0V615.22ZM760.69,770.766h94.144v-38.2H760.69Z" transform="translate(-537.452 -434.672)" fill="#9fbdc6"/><path d="M1096.5,508.29v52.83h0q2.412-.854,4.857-1.608c.5-.159,1-.308,1.5-.458q2.848-.85,5.734-1.573c.487-.12.977-.241,1.467-.358q4.1-.977,8.273-1.7V508.29ZM1081.49,695.217h55.938v-38.2H1081.49Z" transform="translate(-764.108 -359.123)" fill="#9fbdc6"/><path d="M1612.346,444.726V631.65H1346.5v-38.2h51.847V442.769l50.482-24.449V547.058h24.56v-118.7h31.375v118.7h21.831V444.726H1541.6V432.445h21.831V420.166h13.643v12.279h23.2v12.282Z" transform="translate(-951.346 -295.556)" fill="#9fbdc6"/><path d="M90.89,586.413v96.874H0V545.48H73.153v40.933Z" transform="translate(0 -385.399)" fill="#b4ccd0"/><rect width="60.035" height="165.093" transform="translate(97.713 132.805)" fill="#b4ccd0"/><path d="M1913.245,545.483h-73.68v53.211h-9.55v84.594h92.78V598.7h-9.55Z" transform="translate(-1292.965 -385.401)" fill="#b4ccd0"/><rect width="43.661" height="124.161" transform="translate(468.831 173.729)" fill="#b4ccd0"/><path d="M824.915,381.708h-23.2v-9.55H786.711v9.55H763.518v12.28H747.144V484.04H725.313V378.985H691.2V484.04H665.279V369.683L556.127,413.79V559.082h283.79V393.989H824.908v-12.28Z" transform="translate(-392.922 -261.193)" fill="#b4ccd0"/><path d="M733.577,44.46A44.462,44.462,0,1,1,689.116,0,44.463,44.463,0,0,1,733.577,44.46" transform="translate(-455.469 0.001)" fill="#fbc93a"/><path d="M2070.264,27.59v75.585h-58.1c-.088,0-.179,0-.27,0a17.218,17.218,0,0,1-17.276-17.156c0-.091,0-.179.006-.27a17.214,17.214,0,0,1,17.541-16.883,17.516,17.516,0,0,1,4.616.634c-.006-.167-.015-.329-.015-.5v-.006a25.174,25.174,0,0,1,38.958-21.065,26.826,26.826,0,0,1,14.538-20.337" transform="translate(-1409.264 -19.493)" fill="#fef7f3"/><path d="M39.046,59.738c0,.1,0,.191,0,.288A20.421,20.421,0,0,1,18.277,80.1H0V23.9A20.427,20.427,0,0,1,9.256,41.015c0,.144-.009.288-.009.431a20.7,20.7,0,0,1,9.03-2.063h.006l.285,0A20.42,20.42,0,0,1,39.046,59.738" transform="translate(0 -16.886)" fill="#fef7f3"/><path d="M1321.239,30.469a19.758,19.758,0,0,0-8.627,1.972c0-.137.009-.275.009-.412a19.529,19.529,0,0,0-38.877-2.656A18.31,18.31,0,0,0,1245.4,44.7c0,.124,0,.245.009.367a12.757,12.757,0,0,0-3.36-.462,12.42,12.42,0,0,0-12.764,12.066c0,.1,0,.19-.005.285a12.42,12.42,0,0,0,12.482,12.358c.1,0,.192,0,.287,0h79.193a19.486,19.486,0,0,0,19.832-19.134q0-.144,0-.287a19.486,19.486,0,0,0-19.548-19.424l-.287,0Z" transform="translate(-868.524 -8.829)" fill="#fef7f3"/><path d="M523.889,78.185a18.308,18.308,0,0,0-7.994,1.826c0-.127.009-.254.009-.383a18.094,18.094,0,0,0-36.02-2.459,16.971,16.971,0,0,0-26.265,14.2l.009.339a11.8,11.8,0,0,0-14.942,11.343v.025a11.8,11.8,0,0,0,11.8,11.794h73.4a18.348,18.348,0,0,0,18.379-18.316v-.026a18.348,18.348,0,0,0-18.353-18.342h-.026Z" transform="translate(-309.945 -43.475)" fill="#fef7f3"/><rect width="661" height="97.769" transform="translate(0 298.093)" fill="#354854"/><path d="M98.711,1162.656H23.284a8.071,8.071,0,0,1-8.078-8.064v-.007a8.071,8.071,0,0,1,8.069-8.069H98.7a8.07,8.07,0,0,1,0,16.139Z" transform="translate(-10.744 -810.05)" fill="#fff"/><path d="M576.959,1162.66H501.532a8.069,8.069,0,0,1,0-16.139h75.426a8.069,8.069,0,0,1,0,16.139Z" transform="translate(-348.648 -810.054)" fill="#fff"/><path d="M1053.656,1162.656H978.229a8.069,8.069,0,0,1-8.078-8.061v-.011a8.07,8.07,0,0,1,8.069-8.069h75.428a8.07,8.07,0,0,1,0,16.139Z" transform="translate(-685.443 -810.05)" fill="#fff"/><path d="M1530.381,1162.656h-75.426a8.069,8.069,0,0,1-8.078-8.061v-.011a8.07,8.07,0,0,1,8.069-8.069h75.428a8.07,8.07,0,1,1,0,16.139Z" transform="translate(-1022.265 -810.05)" fill="#fff"/><path d="M2008.621,1162.66h-75.427a8.069,8.069,0,0,1,0-16.139h75.427a8.069,8.069,0,1,1,0,16.139Z" transform="translate(-1360.164 -810.054)" fill="#fff"/></g></g><g transform="translate(142.57 322.118)"><g clip-path="url(#c)"><g opacity="0.3"><g clip-path="url(#d)"><path d="M864.647,1120.047c0,12.379-84.8,22.418-189.415,22.418s-189.422-10.038-189.422-22.418,84.807-22.418,189.422-22.418,189.415,10.037,189.415,22.418" transform="translate(-485.811 -1097.629)"/></g></g></g></g><g transform="translate(299.131 58.476)"><g clip-path="url(#e)"><g transform="translate(0.006 0.003)" opacity="0.39"><g clip-path="url(#f)"><rect width="11.281" height="11.281" transform="translate(-0.001 0)" fill="#fff"/><rect width="11.281" height="11.281" transform="translate(-0.001 18.475)" fill="#fff"/><rect width="11.281" height="11.281" transform="translate(-0.001 36.949)" fill="#fff"/><rect width="11.281" height="11.281" transform="translate(-0.001 55.424)" fill="#fff"/><rect width="11.281" height="11.281" transform="translate(-0.001 73.895)" fill="#fff"/><rect width="11.281" height="11.281" transform="translate(-0.001 92.369)" fill="#fff"/><rect width="11.281" height="11.281" transform="translate(-0.001 110.844)" fill="#fff"/><rect width="11.281" height="11.281" transform="translate(-0.001 129.317)" fill="#fff"/><rect width="11.281" height="11.281" transform="translate(-0.001 147.782)" fill="#fff"/><rect width="11.281" height="11.281" transform="translate(-0.001 166.264)" fill="#fff"/></g></g></g></g><g transform="translate(0 -0.001)"><g clip-path="url(#b)"><path d="M1210.164,483.67l-11.078,3.83a7.607,7.607,0,0,1-4.976-14.376l11.078-3.83a7.606,7.606,0,0,1,4.971,14.376Z" transform="translate(-840.066 -331.279)" fill="#ed9480"/><path d="M983.24,590.234l-52.3-30.193a10.271,10.271,0,1,1,10.271-17.789l52.294,30.195a10.271,10.271,0,0,1-10.269,17.791Z" transform="translate(-654.119 -382.152)" fill="#0c0861"/><path d="M1070.133,652.276l-24.277,55.293a10.271,10.271,0,1,1-18.809-8.258l24.274-55.293a10.275,10.275,0,0,1,18.815,8.267Z" transform="translate(-725.034 -450.688)" fill="#ed9480"/><path d="M1051.93,388.1l-16.3-32.541a7.635,7.635,0,1,1,13.654-6.838l16.3,32.537a7.638,7.638,0,0,1-13.657,6.843Z" transform="translate(-731.142 -243.411)" fill="#ed9480"/><path d="M1137.335,484.113,1102.8,472.625a7.636,7.636,0,0,1,4.819-14.491l34.534,11.487a7.636,7.636,0,0,1-4.823,14.491Z" transform="translate(-775.476 -323.413)" fill="#ed9480"/><path d="M1038.363,337.973l-10.738,5.378a3.264,3.264,0,0,1-4.369-1.452l-9.63-19.225a9.26,9.26,0,1,1,16.56-8.293l9.628,19.225a3.265,3.265,0,0,1-1.452,4.37Z" transform="translate(-715.472 -218.511)" fill="#9b15ed"/><path d="M1055.583,889.268l28.192.044a9.981,9.981,0,0,0,9.968-9.943v-3.474a9.981,9.981,0,0,0-9.929-9.957l-28.192-.044a9.98,9.98,0,0,0-9.966,9.936V879.3a9.98,9.98,0,0,0,9.934,9.966Z" transform="translate(-738.79 -611.781)" fill="#ad004c"/><path d="M1055.171,864.781h3.028a9.57,9.57,0,0,0,9.557-9.527l.019-12.7a9.571,9.571,0,0,0-9.518-9.557h-3.03a9.569,9.569,0,0,0-9.557,9.519l-.019,12.7a9.57,9.57,0,0,0,9.518,9.557Z" transform="translate(-738.787 -588.538)" fill="#ad004c"/><path d="M1172.278,882.9h.307a6.6,6.6,0,0,0,6.593-6.575l.016-11.159a6.6,6.6,0,0,0-6.571-6.592h-.307a6.6,6.6,0,0,0-6.593,6.571l-.018,11.161a6.6,6.6,0,0,0,6.573,6.591Z" transform="translate(-823.609 -606.611)" fill="#a3abb0"/><path d="M1049.663,928.706l41.324.065a4.077,4.077,0,1,0,.011-8.154l-41.322-.067a4.078,4.078,0,1,0-.012,8.156" transform="translate(-738.744 -650.398)" fill="#fff"/><path d="M1067.34,864.054h0a4.7,4.7,0,1,0-4.692-4.708,4.713,4.713,0,0,0,4.692,4.708" transform="translate(-750.795 -603.84)" fill="#f9f8ec"/><path d="M1154.761,873.083h0a1.042,1.042,0,0,0,1.038-1.037l.012-7.826a1.038,1.038,0,0,0-2.077,0l-.012,7.828a1.042,1.042,0,0,0,1.038,1.031" transform="translate(-815.143 -609.871)" fill="#f9f8ec"/><path d="M1140.984,873.059h0a1.04,1.04,0,0,0,1.038-1.035l.012-7.828a1.039,1.039,0,0,0-2.078,0l-.012,7.828a1.04,1.04,0,0,0,1.04,1.031" transform="translate(-805.408 -609.854)" fill="#f9f8ec"/><path d="M1127.206,873.039h0a1.038,1.038,0,0,0,1.038-1.035l.012-7.826a1.039,1.039,0,0,0-2.078,0l-.012,7.828a1.038,1.038,0,0,0,1.04,1.03" transform="translate(-795.673 -609.841)" fill="#f9f8ec"/><path d="M946.146,180.787l-36.334,15,10.819-63.768H972.24v22.675a26.087,26.087,0,0,1-26.088,26.087Z" transform="translate(-642.812 -93.274)" fill="#001f30"/><path d="M1107.388,160.608a5,5,0,0,0-5-5h0a5,5,0,1,0,5,5" transform="translate(-775.342 -109.944)" fill="#f7c6a2"/><path d="M1109.464,164.132a3.53,3.53,0,1,0-3.543,3.532h.009a3.534,3.534,0,0,0,3.534-3.532" transform="translate(-778.885 -113.466)" fill="#f79852"/><path d="M959.307,160.608a5,5,0,0,0-5-5h0a5,5,0,1,0,5,5" transform="translate(-670.718 -109.944)" fill="#f7c6a2"/><path d="M961.39,164.132a3.53,3.53,0,1,0-3.534,3.532,3.536,3.536,0,0,0,3.534-3.532" transform="translate(-674.266 -113.466)" fill="#f79852"/><path d="M879.273,538.26H855.849A12.587,12.587,0,0,1,843.3,525.708V513.835a12.587,12.587,0,0,1,12.552-12.552h23.426a12.587,12.587,0,0,1,12.55,12.552V525.7a12.587,12.587,0,0,1-12.55,12.552Z" transform="translate(-595.817 -354.172)" fill="#771f43"/><path d="M873.391,377.009l-25.467-9.288a9.031,9.031,0,0,1-5.374-11.545l21.986-60.283a19.389,19.389,0,0,1,24.776-11.524l9.6,3.5a19.389,19.389,0,0,1,11.535,24.776l-20.7,56.758a12.792,12.792,0,0,1-16.352,7.611Z" transform="translate(-594.907 -200.097)" fill="#7801c1"/><path d="M993.365,386.092l-16.3-32.541a7.635,7.635,0,0,1,13.654-6.839l16.3,32.537a7.638,7.638,0,0,1-13.657,6.843Z" transform="translate(-689.763 -241.988)" fill="#f7c6a2"/><path d="M1078.781,486.654l-35.454-8.214a7.638,7.638,0,0,1,3.451-14.88l35.454,8.214a7.638,7.638,0,1,1-3.449,14.881Z" transform="translate(-732.969 -327.381)" fill="#f7c6a2"/><path d="M998.665,261.531l-2.392-.963a6.438,6.438,0,0,1-3.562-8.351l2.175-5.4a6.441,6.441,0,0,1,8.354-3.562l2.394.963a6.439,6.439,0,0,1,3.56,8.352l-2.175,5.4a6.44,6.44,0,0,1-8.353,3.562" transform="translate(-701.058 -171.542)" fill="#ed9480"/><path d="M987.181,130.521h0A22.248,22.248,0,0,1,965,108.34V92.983a22.184,22.184,0,0,1,44.368,0V108.34a22.246,22.246,0,0,1-22.185,22.181" transform="translate(-681.803 -50.023)" fill="#f7c6a2"/><path d="M963.218,147.06h0a1.9,1.9,0,0,1-1.9-1.9V132.943h3.806v12.215a1.9,1.9,0,0,1-1.9,1.9Z" transform="translate(-679.201 -93.928)" fill="#001f30"/><path d="M1108.787,147.06h0a1.9,1.9,0,0,1-1.9-1.9V132.943h3.806v12.215a1.9,1.9,0,0,1-1.9,1.9Z" transform="translate(-782.05 -93.928)" fill="#001f30"/><path d="M1027.36,213.292a9.715,9.715,0,1,1-9.718-9.714,9.717,9.717,0,0,1,9.718,9.714Z" transform="translate(-712.135 -143.834)" fill="#f7c6a2"/><path d="M1012.064,218.311a8.58,8.58,0,0,0,2.771,6.263,8.454,8.454,0,0,0,10.2.964,8.49,8.49,0,0,0,4.029-7.227Z" transform="translate(-715.056 -154.243)" fill="#f9f8ec"/><path d="M1012.064,218.311a8.58,8.58,0,0,0,2.771,6.263,8.454,8.454,0,0,0,10.2.964,8.49,8.49,0,0,0,4.029-7.227Z" transform="translate(-715.056 -154.243)" fill="none" stroke="#dd0640" stroke-linecap="round" stroke-linejoin="round" stroke-width="1.529"/><path d="M1020.966,226.171a4.65,4.65,0,0,1,4.074,2.429h1.664a8.478,8.478,0,0,0,2.595-4.583h-16.664a8.48,8.48,0,0,0,2.595,4.583h1.664a4.65,4.65,0,0,1,4.074-2.429" transform="translate(-715.459 -158.275)" fill="#001f30"/><path d="M1031.225,231.357a4.65,4.65,0,0,0-4.074,2.429h8.146a4.65,4.65,0,0,0-4.072-2.429" transform="translate(-725.716 -163.461)" fill="#b7153b"/><path d="M1029.046,218.311H1012.04a8.571,8.571,0,0,0,.176,1.68h16.664a8.455,8.455,0,0,0,.166-1.68" transform="translate(-715.039 -154.243)" fill="#f9f8ec"/><path d="M1031.286,239.634h-9.811a8.462,8.462,0,0,0,10.207.962,8.58,8.58,0,0,0,1.266-.962Z" transform="translate(-721.705 -169.309)" fill="#f9f8ec"/><path d="M980,332.875l-10.738,5.378A3.265,3.265,0,0,1,964.9,336.8l-9.63-19.227a9.26,9.26,0,1,1,16.56-8.293l9.628,19.225a3.265,3.265,0,0,1-1.452,4.37Z" transform="translate(-674.24 -214.908)" fill="#9b15ed"/><path d="M997.108,64.235H946.1a3.333,3.333,0,0,1-3.333-3.333V58.665a24.755,24.755,0,0,1,24.677-24.677h8.307a24.757,24.757,0,0,1,24.677,24.677V60.9a3.333,3.333,0,0,1-3.333,3.333Z" transform="translate(-666.096 -24.013)" fill="#dd0640"/><path d="M989.876,50.331A24.515,24.515,0,0,1,994.671,64.9v2.228a3.333,3.333,0,0,1-3.333,3.333h-49.02v1.986a3.333,3.333,0,0,0,3.333,3.333h51.006A3.333,3.333,0,0,0,1000,72.453V70.219a24.691,24.691,0,0,0-10.119-19.888" transform="translate(-665.778 -35.56)" fill="#b7153b"/><path d="M947.038,62.348A24.757,24.757,0,0,1,971.716,37.67h8.306a24.537,24.537,0,0,1,15.512,5.522,24.661,24.661,0,0,0-19.16-9.175h-8.3A24.756,24.756,0,0,0,943.393,58.7v2.23a3.333,3.333,0,0,0,3.328,3.338h.317Z" transform="translate(-666.538 -24.034)" fill="#e43866"/><path d="M1011.144,104.148a2.582,2.582,0,1,1-2.582-2.582,2.582,2.582,0,0,1,2.582,2.582" transform="translate(-710.757 -71.759)" fill="#434b54"/><path d="M1037.391,104.148a2.582,2.582,0,1,1-2.582-2.582,2.582,2.582,0,0,1,2.582,2.582" transform="translate(-729.301 -71.759)" fill="#434b54"/><path d="M1063.645,104.148a2.582,2.582,0,1,1-2.586-2.582h0a2.582,2.582,0,0,1,2.584,2.58Z" transform="translate(-747.851 -71.759)" fill="#434b54"/><path d="M970.427,57.109a12.172,12.172,0,0,1,3-5,18.745,18.745,0,0,1,4.7-3.569,21.184,21.184,0,0,1,5.544-1.939,23.509,23.509,0,0,1,2.889-.372,25.5,25.5,0,0,1,2.9.09c-.913.352-1.826.6-2.723.894-.881.331-1.782.576-2.644.92s-1.734.62-2.554,1.034c-.853.33-1.653.763-2.468,1.169a32.829,32.829,0,0,0-4.583,2.937,27.332,27.332,0,0,0-4.061,3.839" transform="translate(-685.638 -32.654)" fill="#f4afc2"/><path d="M1186.974,490.765l-10.682,4.84a7.6,7.6,0,0,1-6.28-13.851l10.673-4.849a7.61,7.61,0,0,1,6.289,13.86" transform="translate(-823.504 -336.472)" fill="#f7c6a2"/><rect width="0.816" height="53.277" transform="translate(227.447 230.392)" fill="#768391"/><rect width="0.817" height="53.273" transform="matrix(0.966, -0.259, 0.259, 0.966, 213.683, 232.42)" fill="#768391"/><path d="M711.953,855.524l-.705.409-26.639-46.14.705-.409Z" transform="translate(-483.698 -571.856)" fill="#768391"/><rect width="0.815" height="53.28" transform="matrix(0.707, -0.707, 0.707, 0.707, 190.006, 246.57)" fill="#768391"/><path d="M665.729,902.5l-.409.705-46.138-26.629.409-.705Z" transform="translate(-437.472 -618.829)" fill="#768391"/><rect width="0.818" height="53.277" transform="matrix(0.259, -0.966, 0.966, 0.259, 176.583, 270.669)" fill="#768391"/><rect width="53.277" height="0.816" transform="translate(174.98 283.668)" fill="#768391"/><rect width="53.276" height="0.817" transform="matrix(0.966, -0.259, 0.259, 0.966, 176.796, 297.456)" fill="#768391"/><path d="M666.7,966.607l.409.705-46.14,26.641-.409-.705Z" transform="translate(-438.448 -682.939)" fill="#768391"/><rect width="53.28" height="0.815" transform="matrix(0.707, -0.707, 0.707, 0.707, 190.581, 321.342)" fill="#768391"/><path d="M713.686,966.607l.705.409-26.627,46.138-.705-.409Z" transform="translate(-485.43 -682.939)" fill="#768391"/><rect width="53.277" height="0.818" transform="matrix(0.259, -0.966, 0.966, 0.259, 214.468, 335.129)" fill="#768391"/><rect width="0.816" height="53.277" transform="translate(228.257 283.668)" fill="#768391"/><rect width="0.817" height="53.284" transform="matrix(0.966, -0.259, 0.259, 0.966, 228.256, 283.668)" fill="#768391"/><path d="M777.792,965.622l.705-.409,26.639,46.131-.705.409Z" transform="translate(-549.535 -681.954)" fill="#768391"/><rect width="0.815" height="53.277" transform="translate(228.257 283.668) rotate(-45)" fill="#768391"/><path d="M777.792,964.909l.409-.705,46.138,26.641-.409.7Z" transform="translate(-549.535 -681.241)" fill="#768391"/><rect width="0.817" height="53.276" transform="translate(228.26 283.653) rotate(-74.97)" fill="#768391"/><rect width="53.278" height="0.816" transform="translate(228.257 282.85)" fill="#768391"/><rect width="53.284" height="0.817" transform="matrix(0.966, -0.259, 0.259, 0.966, 228.045, 282.879)" fill="#768391"/><path d="M776.807,900.774l-.409-.705,46.131-26.639.409.705Z" transform="translate(-548.551 -617.106)" fill="#768391"/><rect width="53.277" height="0.815" transform="matrix(0.707, -0.707, 0.707, 0.707, 227.678, 283.092)" fill="#768391"/><rect width="53.278" height="0.815" transform="matrix(0.502, -0.865, 0.865, 0.502, 227.512, 283.238)" fill="#768391"/><rect width="53.276" height="0.818" transform="matrix(0.259, -0.966, 0.966, 0.259, 227.466, 283.457)" fill="#768391"/><rect width="0.816" height="53.277" transform="translate(430.836 226.877)" fill="#768391"/><rect width="0.817" height="53.284" transform="matrix(0.966, -0.259, 0.259, 0.966, 417.075, 228.898)" fill="#768391"/><path d="M1405.035,843.548l-.7.409-26.641-46.14.7-.409Z" transform="translate(-973.382 -563.394)" fill="#768391"/><rect width="0.816" height="53.28" transform="translate(393.404 243.056) rotate(-44.999)" fill="#768391"/><rect width="0.815" height="53.272" transform="translate(385.131 254.187) rotate(-59.898)" fill="#768391"/><rect width="0.818" height="53.284" transform="translate(379.972 267.154) rotate(-75)" fill="#768391"/><rect width="53.278" height="0.816" transform="translate(378.374 280.153)" fill="#768391"/><rect width="53.276" height="0.817" transform="matrix(0.966, -0.259, 0.259, 0.966, 380.194, 293.942)" fill="#768391"/><path d="M1359.794,954.63l.409.705-46.14,26.641-.409-.705Z" transform="translate(-928.14 -674.477)" fill="#768391"/><rect width="53.28" height="0.815" transform="matrix(0.707, -0.707, 0.707, 0.707, 393.977, 317.827)" fill="#768391"/><rect width="53.276" height="0.814" transform="matrix(0.502, -0.865, 0.865, 0.502, 404.972, 326.266)" fill="#768391"/><rect width="53.284" height="0.818" transform="matrix(0.259, -0.966, 0.966, 0.259, 417.862, 331.622)" fill="#768391"/><rect width="0.816" height="53.277" transform="translate(431.652 280.153)" fill="#768391"/><rect width="0.817" height="53.284" transform="translate(431.652 280.153) rotate(-14.999)" fill="#768391"/><path d="M1470.871,953.652l.705-.409,26.639,46.131-.705.409Z" transform="translate(-1039.218 -673.497)" fill="#768391"/><rect width="0.815" height="53.277" transform="translate(431.653 280.153) rotate(-45)" fill="#768391"/><rect width="0.815" height="53.276" transform="matrix(0.502, -0.865, 0.865, 0.502, 431.679, 280.109)" fill="#768391"/><rect width="0.817" height="53.276" transform="translate(431.656 280.14) rotate(-74.97)" fill="#768391"/><rect width="53.277" height="0.816" transform="translate(431.652 279.339)" fill="#768391"/><rect width="53.284" height="0.817" transform="translate(431.443 279.365) rotate(-15)" fill="#768391"/><path d="M1469.886,888.8l-.409-.705,46.133-26.639.409.705Z" transform="translate(-1038.233 -608.644)" fill="#768391"/><rect width="53.277" height="0.816" transform="translate(431.076 279.578) rotate(-45.002)" fill="#768391"/><rect width="53.278" height="0.815" transform="translate(430.907 279.721) rotate(-59.891)" fill="#768391"/><rect width="53.277" height="0.818" transform="matrix(0.259, -0.966, 0.966, 0.259, 430.866, 279.944)" fill="#768391"/><path d="M697.686,824.07q-.5-2.276-1.194-4.478A54.5,54.5,0,0,0,676,791.463q-1.809-1.285-3.727-2.421h0a54.235,54.235,0,0,0-67.876,10.3q-1,1.109-1.949,2.271c-.484.6-.957,1.2-1.414,1.82q-.889,1.193-1.714,2.436a54.246,54.246,0,0,0-7.117,44.158c.018.068.035.135.056.2a54.488,54.488,0,0,0,37.138,37.722c.326.1.654.191.983.279.478.132.957.255,1.441.373a54.616,54.616,0,0,0,12.822,1.535q2.588,0,5.115-.244a54.329,54.329,0,0,0,47.266-39.665c.021-.068.038-.135.056-.2a54.177,54.177,0,0,0,1.511-7.792q.246-2.056.334-4.156.049-1.131.05-2.274a54.607,54.607,0,0,0-1.282-11.733M692.019,842.1a47.255,47.255,0,0,1-.963,5.109c-.032.132-.068.264-.1.4s-.068.261-.1.393q-.269,1.021-.584,2.025c-.021.068-.041.135-.065.2a47.426,47.426,0,0,1-3.615,8.461c-.065.12-.129.238-.2.355s-.132.241-.2.358a47.81,47.81,0,0,1-6.864,9.25c-.091.1-.185.2-.282.3s-.185.194-.282.291a48.015,48.015,0,0,1-9.018,7.225c-.117.07-.232.141-.349.214s-.232.138-.346.208a47.68,47.68,0,0,1-10.618,4.684l-.393.114c-.132.041-.261.076-.393.114a47.666,47.666,0,0,1-11.507,1.778c-.135.006-.27.009-.408.012l-.408.009c-.229,0-.458.006-.687.006q-2.192,0-4.332-.2a47.478,47.478,0,0,1-6.606-1.068c-.132-.032-.264-.065-.4-.094l-.4-.1q-1.787-.453-3.516-1.036a47.72,47.72,0,0,1-7.41-3.222h0l-.364-.2c-.117-.065-.235-.129-.349-.194a47.924,47.924,0,0,1-9.482-7c-.1-.091-.2-.185-.293-.282s-.2-.188-.294-.285a47.934,47.934,0,0,1-7.354-9.232c-.07-.115-.141-.232-.214-.349s-.138-.232-.205-.349a47.452,47.452,0,0,1-4.358-9.77c-.023-.068-.044-.135-.065-.2-.094-.293-.182-.59-.267-.889-.041-.132-.076-.264-.115-.4s-.073-.261-.109-.393a47.669,47.669,0,0,1-1.667-11.727c0-.135-.006-.27-.006-.408s0-.273,0-.408a47.885,47.885,0,0,1,1.47-11.753c.032-.132.068-.264.1-.4s.068-.264.106-.393a47.545,47.545,0,0,1,4.5-10.938c.067-.12.135-.238.2-.358l.2-.349c.364-.616.742-1.227,1.133-1.825q.814-1.25,1.7-2.445c.49-.657,1-1.306,1.52-1.937q.951-1.153,1.978-2.248.427-.462.875-.907c.091-.1.188-.194.285-.291l.291-.288a47.994,47.994,0,0,1,9.353-7.146c.114-.07.232-.138.352-.205s.235-.135.355-.2a47.625,47.625,0,0,1,10.864-4.452c.129-.035.258-.07.387-.1l.4-.106a47.963,47.963,0,0,1,11.6-1.459h.123c.094,0,.188,0,.279,0,.141,0,.279,0,.417.006a47.657,47.657,0,0,1,11.524,1.582q.2.048.4.106c.132.035.264.07.393.109a47.425,47.425,0,0,1,10.588,4.44l.109.062c.117.068.232.132.346.2s.238.141.355.211q1.514.9,2.952,1.91a47.29,47.29,0,0,1,6.186,5.156c.1.091.2.188.291.288s.194.191.285.288a48.06,48.06,0,0,1,7.026,9.133c.068.12.138.238.208.358s.135.232.2.349a47.146,47.146,0,0,1,3.5,7.63q.524,1.47.954,2.985c.035.129.073.261.106.393s.073.261.106.393c.068.241.129.481.188.725a47.738,47.738,0,0,1,1.391,10.656c0,.135.006.273.006.411s0,.27,0,.4v0q0,1.078-.05,2.145-.1,2.1-.37,4.153" transform="translate(-417.066 -552.133)" fill="#8796a6"/><path d="M1372.31,779.721a56.26,56.26,0,0,0-21.831-11.9s0,0-.006,0a56.346,56.346,0,0,0-38.609,2.9q-2.056.938-4.023,2.028a56.54,56.54,0,0,0-27.759,37.141q-.321,1.457-.569,2.941-.29,1.748-.472,3.53c-.1.98-.173,1.972-.22,2.97-.047.907-.07,1.822-.07,2.741a56.369,56.369,0,0,0,2.565,16.8c.021.068.041.135.064.2a56.358,56.358,0,0,0,51.01,39.3h0q1.36.07,2.738.07a56.688,56.688,0,0,0,10.588-1q.894-.172,1.772-.37a56.543,56.543,0,0,0,41.394-38c.023-.068.044-.135.065-.2a56.305,56.305,0,0,0-16.64-59.154m9.676,59.357a49.291,49.291,0,0,1-2.908,6.5c-.062.12-.126.238-.191.355s-.132.241-.2.361a49.927,49.927,0,0,1-7.3,9.951l-.282.3c-.094.1-.188.194-.285.291a49.906,49.906,0,0,1-9.673,7.739c-.115.073-.232.144-.352.214s-.229.138-.346.208a49.568,49.568,0,0,1-11.4,4.939c-.129.041-.258.079-.39.114h0c-.129.038-.261.073-.393.109a49.822,49.822,0,0,1-12.317,1.755c-.135,0-.27.006-.408.006s-.27,0-.408,0a50.029,50.029,0,0,1-12.343-1.555c-.132-.032-.264-.067-.4-.1s-.264-.068-.393-.106a49.4,49.4,0,0,1-11.48-4.751c-.12-.068-.238-.135-.355-.205s-.235-.135-.349-.2a50.015,50.015,0,0,1-9.8-7.586c-.094-.094-.191-.188-.288-.285s-.191-.194-.288-.293c-.27-.279-.54-.561-.8-.845a49.8,49.8,0,0,1-6.656-8.992q-.106-.176-.2-.352c-.068-.117-.135-.235-.2-.355a49.446,49.446,0,0,1-3.3-7.21c-.026-.068-.05-.135-.073-.2q-.7-1.954-1.241-3.982-.057-.2-.106-.4c-.035-.132-.068-.261-.1-.393a50.023,50.023,0,0,1-1.476-12.032v-.117c0-.135,0-.27.006-.405s0-.276.006-.411c.006-.417.021-.833.038-1.247q.066-1.5.22-2.97.176-1.7.467-3.363.255-1.484.6-2.938c.12-.514.249-1.021.387-1.529.035-.132.07-.264.109-.4s.07-.258.109-.39a49.636,49.636,0,0,1,4.745-11.137c.065-.12.135-.238.208-.358s.132-.229.2-.343a50.226,50.226,0,0,1,7.413-9.52c.1-.094.191-.191.288-.285s.194-.194.293-.288a50.012,50.012,0,0,1,9.541-7.287c.117-.07.235-.138.352-.208.1-.053.194-.109.291-.164l.062-.035q1.924-1.092,3.953-2.013a49.7,49.7,0,0,1,7.108-2.6l.384-.106.405-.106a49.732,49.732,0,0,1,11.85-1.629c.135,0,.27-.006.408-.006s.27,0,.408,0a49.99,49.99,0,0,1,11.88,1.435c.132.032.264.065.4.1s.264.068.4.1q1.352.352,2.671.784h.006a49.665,49.665,0,0,1,8.458,3.642c.12.065.238.129.355.2s.241.132.358.2a50.021,50.021,0,0,1,9.655,7.131c.1.091.2.185.3.282s.2.188.293.282q1.25,1.219,2.415,2.524a49.8,49.8,0,0,1,5.142,6.861c.073.114.147.232.217.349s.141.229.211.346a49.591,49.591,0,0,1,4.927,11.064c.041.129.079.261.12.39s.076.261.112.393a49.831,49.831,0,0,1,1.91,12.02c.006.135.009.27.012.408s.009.273.009.411c.009.308.012.619.012.93A50.067,50.067,0,0,1,1383.7,833.3c-.029.132-.062.267-.094.4s-.062.264-.1.4a48.732,48.732,0,0,1-1.447,4.775c-.024.068-.047.135-.073.2" transform="translate(-903.479 -540.984)" fill="#8796a6"/><path d="M1351.291,747.606a64.829,64.829,0,0,0-21.831-9.849.01.01,0,0,0-.006,0,65.037,65.037,0,0,0-42.162,3.956q-2.051.929-4.026,2a65.291,65.291,0,0,0-32.924,44.176c-.2.971-.379,1.954-.534,2.943q-.295,1.858-.481,3.753-.15,1.475-.229,2.97-.1,1.734-.1,3.489a65.144,65.144,0,0,0,2.21,16.8q.022.1.053.2a64.732,64.732,0,0,0,4.516,11.9,65.48,65.48,0,0,0,21.834,24.986c.561.381,1.127.751,1.7,1.115a64.767,64.767,0,0,0,27.862,9.731,66.06,66.06,0,0,0,6.938.373,64.869,64.869,0,0,0,34.209-9.734q.295-.181.59-.37a65.3,65.3,0,0,0,28.053-38q.031-.1.053-.2a65.053,65.053,0,0,0-25.725-70.236m16.367,70.438a56.334,56.334,0,0,1-42.133,38q-.964.2-1.946.37a56.54,56.54,0,0,1-9.467.8q-1.193,0-2.374-.053a56.286,56.286,0,0,1-51.172-39.122c-.024-.067-.044-.135-.065-.2a56.161,56.161,0,0,1-2.574-16.8q0-1.369.068-2.723.075-1.5.223-2.97.181-1.783.47-3.524c.167-.989.355-1.969.572-2.941a56.34,56.34,0,0,1,27.645-36.986q1.963-1.092,4.02-2.028a56.127,56.127,0,0,1,38.529-2.879s0,0,.006,0a56.178,56.178,0,0,1,38.262,70.852c-.021.068-.041.135-.065.2" transform="translate(-882.459 -519.951)" fill="#001f30"/><path d="M685.2,802.434q-.44-2.346-1.051-4.631a63.461,63.461,0,0,0-23.83-34.785q-1.792-1.316-3.68-2.506a63.235,63.235,0,0,0-81.3,11.9c-.657.745-1.3,1.511-1.919,2.289q-.651.819-1.279,1.661-.885,1.193-1.72,2.427a63.237,63.237,0,0,0-9.186,49.558v0c.015.068.032.135.047.2s.029.12.044.182a63.413,63.413,0,0,0,61.628,48.733v0a63.791,63.791,0,0,0,8.59-.587,63.44,63.44,0,0,0,53.082-48.325c.015-.068.032-.135.047-.2a62.554,62.554,0,0,0,1.268-7.615q.22-2.06.3-4.155.048-1.219.05-2.451a63.675,63.675,0,0,0-1.089-11.692m-8.223,18.122a54.181,54.181,0,0,1-1.508,7.792c-.018.068-.038.135-.056.2a54.578,54.578,0,0,1-37.934,38,53.9,53.9,0,0,1-9.315,1.723q-2.575.247-5.212.252a54.681,54.681,0,0,1-13.109-1.6c-.472-.117-.945-.241-1.414-.373-.241-.065-.481-.135-.719-.205a54.578,54.578,0,0,1-37.215-37.8c-.018-.068-.038-.135-.056-.2a54.321,54.321,0,0,1,7.134-44.2q.823-1.241,1.711-2.436.687-.924,1.414-1.819.942-1.167,1.949-2.271a54.319,54.319,0,0,1,67.988-10.312q1.915,1.136,3.727,2.421a54.577,54.577,0,0,1,20.525,28.188q.691,2.2,1.191,4.475a54.634,54.634,0,0,1,1.282,11.736q0,1.145-.05,2.274-.088,2.1-.334,4.156" transform="translate(-395.39 -530.457)" fill="#001f30"/><path d="M1039.846,941.834a17.566,17.566,0,0,0-3.768-8.789.161.161,0,0,0-.021-.026c-.032-.041-.065-.082-.1-.12-.167-.205-.34-.4-.516-.6-.068-.079-.141-.156-.214-.232-.188-.205-.384-.4-.584-.6-.079-.076-.159-.153-.238-.226a16.889,16.889,0,0,0-1.423-1.2,17.62,17.62,0,0,0-14.468-3.172c-.182.038-.361.079-.537.126-.343.088-.684.185-1.018.291a17.4,17.4,0,0,0-3.346,1.467c-.156.088-.311.179-.464.273-.285.17-.566.352-.839.543h0a17.982,17.982,0,0,0-2.389,1.981,17.652,17.652,0,0,0-5.271,12.575c0,.27.006.537.021.8a17.505,17.505,0,0,0,2.072,7.53c.035.07.073.138.109.2a17.69,17.69,0,0,0,15.469,9.139h0a17.659,17.659,0,0,0,15.469-9.139c.038-.065.073-.132.109-.2a17.512,17.512,0,0,0,2.031-6.835c.041-.493.065-.995.065-1.5a17.893,17.893,0,0,0-.15-2.289m-5.423,10.623-.141.2a14.688,14.688,0,0,1-23.918,0l-.141-.2a14.619,14.619,0,0,1-2.571-7.472q-.026-.427-.026-.863a14.656,14.656,0,0,1,6.025-11.856,14.227,14.227,0,0,1,1.875-1.171,14.057,14.057,0,0,1,1.482-.675l.018-.006c.208-.082.42-.159.631-.226a14.259,14.259,0,0,1,2.448-.593c.414-.065.831-.109,1.253-.138h0c.317-.021.64-.032.963-.032a14.88,14.88,0,0,1,1.855.117s0,0,0,0a14.534,14.534,0,0,1,4.361,1.268c.423.2.83.414,1.23.649a.36.36,0,0,1,.041.029h.006c.3.179.6.37.886.569.112.076.22.156.326.235.261.191.511.39.757.6a14.659,14.659,0,0,1,5.233,11.231c0,.487-.023.966-.07,1.441a14.611,14.611,0,0,1-2.527,6.894" transform="translate(-709.818 -654.567)" fill="#8796a6"/><path d="M1028.035,961.43c-.009-.158-.012-.317-.012-.475a9.453,9.453,0,0,1,.742-3.674l-2.034-.041a11.369,11.369,0,0,0-.622,3.715c0,.147,0,.293.009.437a11.362,11.362,0,0,0,3.131,7.407h2.955a9.455,9.455,0,0,1-4.17-7.369m0,0c-.009-.158-.012-.317-.012-.475a9.453,9.453,0,0,1,.742-3.674l-2.034-.041a11.369,11.369,0,0,0-.622,3.715c0,.147,0,.293.009.437a11.362,11.362,0,0,0,3.131,7.407h2.955a9.455,9.455,0,0,1-4.17-7.369m20.478-3.255a11.383,11.383,0,0,0-13.379-8.352,11.594,11.594,0,0,0-2.016.628,11.365,11.365,0,0,0-7.008,10.5c0,.147,0,.293.009.437a11.362,11.362,0,0,0,3.131,7.407c.068.068.132.135.2.2a11.342,11.342,0,0,0,8.035,3.331v0a11.356,11.356,0,0,0,8.032-3.328c.068-.067.135-.135.2-.2a11.339,11.339,0,0,0,3.108-6.958c.023-.293.035-.587.035-.886a11.261,11.261,0,0,0-.346-2.779m-5.746,10.624c-.1.07-.205.138-.311.2-.032.021-.062.038-.094.056a9.433,9.433,0,0,1-9.846-.056c-.106-.065-.208-.132-.311-.2a9.455,9.455,0,0,1-4.17-7.369c-.009-.158-.012-.317-.012-.475a9.461,9.461,0,0,1,18.923,0c0,.288-.015.569-.041.848a9.447,9.447,0,0,1-4.138,7m-14.732-7.369c-.009-.158-.012-.317-.012-.475a9.453,9.453,0,0,1,.742-3.674l-2.034-.041a11.369,11.369,0,0,0-.622,3.715c0,.147,0,.293.009.437a11.362,11.362,0,0,0,3.131,7.407h2.955a9.455,9.455,0,0,1-4.17-7.369m0,0c-.009-.158-.012-.317-.012-.475a9.453,9.453,0,0,1,.742-3.674l-2.034-.041a11.369,11.369,0,0,0-.622,3.715c0,.147,0,.293.009.437a11.362,11.362,0,0,0,3.131,7.407h2.955a9.455,9.455,0,0,1-4.17-7.369m0,0c-.009-.158-.012-.317-.012-.475a9.453,9.453,0,0,1,.742-3.674l-2.034-.041a11.369,11.369,0,0,0-.622,3.715c0,.147,0,.293.009.437a11.362,11.362,0,0,0,3.131,7.407h2.955a9.455,9.455,0,0,1-4.17-7.369" transform="translate(-724.98 -670.909)" fill="#8796a6"/><path d="M1058.186,976.912a4.743,4.743,0,0,0-4.743-4.743h0a4.744,4.744,0,1,0,4.745,4.747Z" transform="translate(-740.938 -686.869)" fill="#8796a6"/><path d="M1374.151,568.65l-.614.069c.157.1.314.2.472.284.048-.113.092-.233.141-.352" transform="translate(-970.449 -401.769)" fill="#ec6d05"/><path d="M1361.975,569.171c-.159-.1-.314-.2-.473-.293l-4.987.552.529,4.759c.857.56,1.715,1.1,2.57,1.648.786-2.223,1.475-4.495,2.362-6.67Z" transform="translate(-958.423 -401.93)" fill="#ec7f26"/><path d="M1360.941,588.629c-.857-.55-1.715-1.086-2.57-1.648l.682,6.169a36.391,36.391,0,0,0,1.888-4.521" transform="translate(-959.733 -414.721)" fill="#ec6d05"/><path d="M1380.141,566.794l-4.851.529c-.049.12-.093.24-.143.352q1.863,1.142,3.749,2.263c.409-1.057.819-2.115,1.243-3.157Z" transform="translate(-971.586 -400.449)" fill="#ec6d05"/><path d="M1373.209,572.138q-1.886-1.121-3.749-2.263c-.881,2.175-1.576,4.445-2.362,6.67,1.14.732,2.281,1.472,3.427,2.186.968-2.161,1.828-4.377,2.686-6.593Z" transform="translate(-965.899 -402.635)" fill="#ec6d05"/><path d="M1365.98,594.785c-1.144-.716-2.292-1.454-3.427-2.188a36.36,36.36,0,0,1-1.886,4.526l.275,2.485c.61.4,1.223.807,1.833,1.2a44.529,44.529,0,0,0,3.2-6.027" transform="translate(-961.356 -418.689)" fill="#ec6d05"/><path d="M1363.438,617.728c-.61-.395-1.223-.8-1.835-1.2l.365,3.294c.527-.682,1.01-1.387,1.47-2.092" transform="translate(-962.017 -435.595)" fill="#ec6d05"/><path d="M1420.484,562.421l-4.269.472c-.176.386-.342.772-.513,1.158,1.067.739,2.141,1.468,3.231,2.175.543-1.257,1.058-2.522,1.553-3.806Z" transform="translate(-1000.24 -397.368)" fill="#ec6d05"/><path d="M1412.573,570.146c-1.088-.705-2.165-1.437-3.231-2.175-.89,2.022-1.763,4.054-2.644,6.067q1.586.923,3.173,1.853c.947-1.893,1.861-3.8,2.7-5.745" transform="translate(-993.878 -401.289)" fill="#ec6d05"/><path d="M1402.624,590.5l-3.173-1.853c-.968,2.207-1.96,4.389-3.018,6.533.945.571,1.9,1.128,2.843,1.69,1.153-2.1,2.277-4.23,3.349-6.368Z" transform="translate(-986.626 -415.896)" fill="#ec6d05"/><path d="M1379.74,633.252c-.92-.562-1.844-1.121-2.762-1.692a50.764,50.764,0,0,1-3.391,4.879q1.586,1.045,3.173,2.084,1.477-2.642,2.981-5.27" transform="translate(-970.483 -446.217)" fill="#ec6d05"/><path d="M1371.428,650.269q-1.586-1.038-3.173-2.083c-.705.881-1.421,1.763-2.2,2.6l.5,4.475q.793.5,1.586,1.014,1.613-3.022,3.293-6.007" transform="translate(-965.162 -457.964)" fill="#ec6d05"/><path d="M1369.34,673.315c-.529-.352-1.058-.682-1.587-1.014l.369,3.309c.395-.77.809-1.53,1.216-2.291Z" transform="translate(-966.362 -475.002)" fill="#ec6d05"/><path d="M1391.3,612.588c-.946-.562-1.9-1.119-2.843-1.69-1.024,2.075-2.115,4.1-3.316,6.062.918.571,1.842,1.13,2.76,1.692,1.146-2.015,2.291-4.033,3.4-6.064" transform="translate(-978.644 -431.619)" fill="#ec6d05"/><path d="M1445.242,560.841l-.434.048.369.227c.021-.1.044-.183.065-.275" transform="translate(-1020.804 -396.252)" fill="#ec6d05"/><path d="M1432.393,561.224l-.368-.227-3.76.416c-.488,1.28-1.01,2.551-1.553,3.805q2,1.3,4.054,2.535.881-3.235,1.634-6.522Z" transform="translate(-1008.019 -396.362)" fill="#ec6d05"/><path d="M1424.243,577.918q-2.045-1.234-4.054-2.535c-.839,1.939-1.763,3.852-2.7,5.743q2.457,1.431,4.918,2.885c.647-2.013,1.267-4.038,1.826-6.094Z" transform="translate(-1001.504 -406.526)" fill="#ec7f26"/><path d="M1414.385,597.848q-2.468-1.452-4.918-2.884c-1.068,2.145-2.191,4.264-3.346,6.369q2.894,1.717,5.817,3.409,1.32-3.4,2.447-6.894" transform="translate(-993.471 -420.361)" fill="#ec6d05"/><path d="M1403.757,620.038q-2.923-1.69-5.817-3.409c-1.112,2.032-2.254,4.054-3.4,6.064q3.212,1.967,6.446,3.846,1.484-3.2,2.769-6.5" transform="translate(-985.289 -435.668)" fill="#ec7f26"/><path d="M1393.8,641.163q-3.238-1.877-6.446-3.837-1.5,2.632-2.986,5.27,3.27,2.142,6.57,4.23c1.008-1.861,1.971-3.742,2.862-5.663" transform="translate(-978.1 -450.291)" fill="#ec6d05"/><path d="M1383.014,659.515q-3.3-2.087-6.573-4.23-1.681,2.984-3.289,6.007c2.115,1.387,4.187,2.85,6.256,4.338,1.287-2,2.48-4.042,3.606-6.115" transform="translate(-970.177 -462.98)" fill="#ec7f26"/><path d="M1370.237,675.761c-.407.765-.821,1.525-1.216,2.291l.129,1.16a3.815,3.815,0,0,0,4.206,3.378h0l1.6-.176q.791-1.146,1.535-2.314c-2.068-1.488-4.144-2.951-6.254-4.338" transform="translate(-967.258 -477.447)" fill="#ec6d05"/><path d="M1450.435,559.219l-4.3.476c-.021.092-.044.176-.063.275q1.832,1.126,3.638,2.277.353-1.516.726-3.027Z" transform="translate(-1021.696 -395.106)" fill="#ec6d05"/><path d="M1445.775,564.056q-1.808-1.149-3.638-2.277-.747,3.3-1.634,6.521,1.885,1.139,3.8,2.224c.49-2.163.971-4.325,1.474-6.476Z" transform="translate(-1017.762 -396.915)" fill="#ec6d05"/><path d="M1432.507,607.241q-2.054-1.246-4.118-2.457-1.125,3.5-2.447,6.894,2.265,1.31,4.548,2.616c.753-2.327,1.41-4.68,2.016-7.051Z" transform="translate(-1007.475 -427.299)" fill="#ec6d05"/><path d="M1423.822,630.891q-2.292-1.3-4.548-2.616-1.28,3.3-2.767,6.5,2.4,1.392,4.833,2.743c.943-2.172,1.763-4.382,2.482-6.622" transform="translate(-1000.808 -443.896)" fill="#ec6d05"/><path d="M1414.463,653.145q-2.426-1.35-4.833-2.743c-.9,1.92-1.865,3.809-2.872,5.662q2.353,1.5,4.722,2.945a55.186,55.186,0,0,0,2.983-5.864" transform="translate(-993.92 -459.53)" fill="#ec6d05"/><path d="M1399.66,677.387a48.314,48.314,0,0,0,3.141-4.743q-2.374-1.451-4.722-2.944c-1.125,2.077-2.32,4.118-3.6,6.115l2.583,1.86Z" transform="translate(-985.243 -473.164)" fill="#ec6d05"/><path d="M1393.357,692.4l-2.582-1.86c-.5.777-1.008,1.549-1.537,2.315Z" transform="translate(-981.542 -487.89)" fill="#ec6d05"/><path d="M1439.9,586.262q-1.914-1.086-3.8-2.224c-.561,2.048-1.179,4.077-1.828,6.09q2.061,1.216,4.116,2.457.793-3.155,1.507-6.326Z" transform="translate(-1013.366 -412.641)" fill="#ec6d05"/><path d="M1464.01,557.405l-4.815.529q-.376,1.507-.726,3.027c1.345.857,2.693,1.708,4.054,2.541Z" transform="translate(-1030.455 -393.824)" fill="#ec6d05"/><path d="M1458.977,572.083q-2.05-1.255-4.058-2.544-.751,3.226-1.474,6.476,2,1.139,4.037,2.216Z" transform="translate(-1026.907 -402.397)" fill="#ec7f26"/><path d="M1453.852,593.81q-2.036-1.068-4.035-2.21c-.479,2.115-.975,4.23-1.507,6.326q1.983,1.2,3.95,2.434Z" transform="translate(-1023.278 -417.984)" fill="#ec6d05"/><path d="M1447.413,615.6q-1.969-1.234-3.95-2.434c-.6,2.371-1.266,4.724-2.017,7.051,1.41.807,2.821,1.614,4.255,2.423Z" transform="translate(-1018.429 -433.223)" fill="#ec7f26"/><path d="M1439.717,639.618c-1.428-.809-2.841-1.616-4.255-2.424-.725,2.239-1.539,4.449-2.48,6.621q2.508,1.395,5.048,2.741Z" transform="translate(-1012.449 -450.198)" fill="#ec6d05"/><path d="M1429.836,666.709l1.026-4.218q-2.539-1.348-5.05-2.743a55.259,55.259,0,0,1-2.968,5.857q2.739,1.675,5.512,3.284a3.8,3.8,0,0,0,1.48-2.18" transform="translate(-1005.286 -466.133)" fill="#ec7f26"/><path d="M1420.8,683.015q-2.773-1.609-5.512-3.284a48.3,48.3,0,0,1-3.139,4.743l6.848-.758a3.8,3.8,0,0,0,1.8-.705Z" transform="translate(-997.727 -480.252)" fill="#ec6d05"/><path d="M1396.069,565.68c-.453-.314-.9-.634-1.349-.952l-5.559.613c-.427,1.049-.836,2.1-1.25,3.159q2.739,1.631,5.512,3.247c.882-2.016,1.749-4.045,2.644-6.067Z" transform="translate(-980.604 -398.998)" fill="#ec6d05"/><path d="M1386.973,580.834q-2.775-1.615-5.512-3.247c-.858,2.216-1.715,4.43-2.686,6.6q2.586,1.613,5.184,3.173c1.058-2.135,2.05-4.317,3.014-6.522" transform="translate(-974.15 -408.083)" fill="#ec7f26"/><path d="M1376.243,603.236q-2.6-1.567-5.182-3.185a44.617,44.617,0,0,1-3.206,6.028q2.531,1.634,5.071,3.219c1.2-1.96,2.295-3.989,3.317-6.062" transform="translate(-966.434 -423.955)" fill="#ec6d05"/><path d="M1369.391,623.8q-2.54-1.587-5.071-3.219c-.46.716-.943,1.41-1.469,2.1l.465,4.22,2.685,1.777a50.789,50.789,0,0,0,3.39-4.879" transform="translate(-962.899 -438.464)" fill="#ec7f26"/><path d="M1367.123,643.909q-1.343-.881-2.685-1.777l.485,4.378c.779-.839,1.5-1.713,2.2-2.6Z" transform="translate(-964.02 -453.687)" fill="#ec6d05"/><path d="M1412.974,564.025l-1.861.206c.448.317.9.638,1.348.952q.256-.58.513-1.158" transform="translate(-996.997 -398.502)" fill="#ec6d05"/><path d="M706.311,720.169a1.486,1.486,0,0,1-1.058-.435l-11.3-11.3a11.365,11.365,0,0,0-8.037-3.33H614.838a1.49,1.49,0,0,1,0-2.979h72.308a11.373,11.373,0,0,1,8.04,3.33l12.175,12.177a1.488,1.488,0,0,1,0,2.1h0a1.483,1.483,0,0,1-1.058.435Z" transform="translate(-433.352 -496.072)" fill="#85001e"/><path d="M788.03,801.689l-4.035-1.921c1.116-2.353,27.611-57.618,52.618-60.46l.5,4.437c-22.562,2.559-48.826,57.377-49.087,57.93Z" transform="translate(-553.918 -522.345)" fill="#da01c9"/><path d="M972.911,773.9,947.856,715.34l4.1-1.763,25.053,58.558Z" transform="translate(-669.691 -504.165)" fill="#da01c9"/><path d="M927.536,669.99l-7.2-17.258,4.121-1.717,7.2,17.258Z" transform="translate(-650.246 -459.963)" fill="#da01c9"/><path d="M841.365,597.563c9.989.9,28.807-.908,40.025-3.825,2.551-.661,3.927,3.09,1.839,4.694l-19.419,14.9c-12.282.867-20.417-2.389-25.455-8.722-2.149-2.7-.428-7.359,3.011-7.051" transform="translate(-591.655 -419.44)" fill="#85001e"/><path d="M1182.647,685.9l-1.587-15.688c-8.3,3.457-17.979,10.224-26.47,23.292a105.555,105.555,0,0,1-6.418,8.866c10.985-.786,16.06,2.69,18.03,4.689a69.973,69.973,0,0,1,16.444-21.152Z" transform="translate(-811.222 -473.525)" fill="#da01c9"/><path d="M1050.749,663.15c-19.449,29.976-39.353,29.192-40.194,29.149l-.516,7.424c.092,0,.379.025.843.025,4.072,0,21.716-1.394,39.7-23.681a105.667,105.667,0,0,0,6.413-8.865c8.487-13.077,18.168-19.835,26.47-23.292a40.805,40.805,0,0,1,19.729-3.331l1.081-7.363c-1.273-.192-31.391-4.17-53.52,29.934Z" transform="translate(-713.625 -447.222)" fill="#da01c9"/><path d="M1176.561,679.3a74.693,74.693,0,0,0-20.435,13.019,69.979,69.979,0,0,0-16.444,21.152,65.627,65.627,0,0,0-4.426,11.438c-8.066,28.469-23.946,31.4-24.618,31.515l.564,3.675-.529-3.682,1.058,7.368c.86-.124,21.208-3.393,30.688-36.84,8.292-29.259,36.547-40.594,36.826-40.705Z" transform="translate(-784.703 -479.951)" fill="#da01c9"/><path d="M1353.42,713.99c-1.394-2.792-34.758-69.946-39.6-92.69l4.366-.929c4.724,22.192,38.333,89.644,38.671,90.323Z" transform="translate(-928.258 -438.312)" fill="#da01c9"/><path d="M1339.935,560.835h-7.565l3.143-3.183,4.423.206Z" transform="translate(-941.363 -393.999)" fill="#da01c9"/><path d="M1268.425,519.052l-14.378-14.138-12.2-1.994.721-4.407,13.6,2.223,15.39,15.133Z" transform="translate(-877.406 -352.216)" fill="#da01c9"/><rect width="4.185" height="23.1" transform="translate(385.61 160.408)" fill="#da01c9"/><path d="M1389.085,545.28l-35.116,3.878a1.359,1.359,0,0,1-1.5-1.2v0l-.578-5.144a1.361,1.361,0,0,1,1.2-1.5l35.123-3.878a1.359,1.359,0,0,1,1.5,1.2v0l.569,5.144a1.359,1.359,0,0,1-1.2,1.5h0Z" transform="translate(-955.148 -379.707)" fill="#b55405"/><path d="M634.489,868.969l-47.837-35.824,1.789-2.378,47.833,35.823Z" transform="translate(-414.489 -586.963)" fill="#bac3c9"/><path d="M647.389,855.468l-47.945-34.182,1.729-2.424,50.613,36.082Z" transform="translate(-423.527 -578.552)" fill="#bac3c9"/><path d="M1295.242,942.726l-62.763-5.4.256-2.967,62.758,5.4Z" transform="translate(-870.787 -660.158)" fill="#bac3c9"/><path d="M1296.243,920.848l-61.152-6.839.34-2.966,65.811,7.362Z" transform="translate(-872.632 -643.681)" fill="#bac3c9"/><path d="M688.885,773.646a2.232,2.232,0,0,1-2.078-1.41,66.237,66.237,0,0,0-119.853-7.315,2.226,2.226,0,0,1-3.016.9l-.011-.006a2.232,2.232,0,0,1-.9-3.026h0a70.705,70.705,0,0,1,127.931,7.8,2.232,2.232,0,0,1-1.258,2.894h0a2.218,2.218,0,0,1-.818.157" transform="translate(-397.608 -512.804)" fill="#da01c9"/><path d="M1227.65,789.167a2.233,2.233,0,0,1-2.226-2.1,70.7,70.7,0,0,1,112.642-61.147,2.232,2.232,0,0,1-2.65,3.593l-.006,0a66.237,66.237,0,0,0-105.526,57.29,2.235,2.235,0,0,1-2.092,2.366h-.141Z" transform="translate(-865.707 -503.022)" fill="#da01c9"/><path d="M1458.98,934.26a8.461,8.461,0,1,0-8.461,8.461,8.461,8.461,0,0,0,8.461-8.461" transform="translate(-1018.861 -654.107)" fill="#001f30"/><path d="M940.825,698.5l-7.932,3.028a1.35,1.35,0,0,0-.779,1.743l1.024,2.679a1.349,1.349,0,0,0,1.74.78h0l7.932-3.028a1.35,1.35,0,0,0,.779-1.743l-1.026-2.681a1.349,1.349,0,0,0-1.74-.78h0Z" transform="translate(-658.505 -493.451)" fill="#85001e"/><path d="M664.095,708.674h-1.13a.979.979,0,0,1-.977-.977h0v-3.46a.977.977,0,0,0-.977-.977h-1.6a.977.977,0,0,0-.977.977v3.46a.976.976,0,0,1-.974.977h-1.013a.976.976,0,0,0-.974.977v1.6a.976.976,0,0,0,.974.974h7.651a.976.976,0,0,0,.974-.974v-1.6a.976.976,0,0,0-.974-.977m-5.191-4.942h2.609v1.018l-2.609.373Z" transform="translate(-463.111 -496.876)" fill="#85001e"/><path d="M856.119,929.965l-3.572-.07-3.026-.059-4.3-.082-8.927-.176h-.073l-6.53-.129-23.7-.464v-4.651l-2.016-2.442.235-.373-14.057,3.765-2.26.608v2.4l2.348.628L806,933.143h0l1.7.032h0l21.617.426,6.565.132h.073l8.962.176,4.3.085,2.982.059,3.3.065c-.006-.144-.009-.291-.009-.437a11.372,11.372,0,0,1,.622-3.715m0,0-3.572-.07-3.026-.059-4.3-.082-8.927-.176h-.073l-6.53-.129-23.7-.464v-4.651l-2.016-2.442.235-.373-14.057,3.765-2.26.608v2.4l2.348.628L806,933.143h0l1.7.032h0l21.617.426,6.565.132h.073l8.962.176,4.3.085,2.982.059,3.3.065c-.006-.144-.009-.291-.009-.437a11.372,11.372,0,0,1,.622-3.715m29.212,2.876c-.144-.6-.25-1.25-.349-1.94-.038-.252-.073-.511-.109-.772-.153-1.1-.311-2.251-.572-3.422v0a15.3,15.3,0,0,0-1.843-4.737c-.123-.2-.252-.4-.39-.6-.053-.076-.109-.156-.164-.232-.144-.2-.3-.4-.458-.6-.094-.114-.191-.232-.291-.346-.065-.073-.129-.147-.2-.223a14.835,14.835,0,0,0-1.852-1.717,22.966,22.966,0,0,0-5.9-3.246,38.063,38.063,0,0,0-3.654-1.215h-.012q-1.123-.313-2.362-.6h-.012c-1.737-.4-3.645-.751-5.761-1.054l-.126-.018c-.2-.029-.4-.056-.6-.085h0q-1.822-.242-3.844-.434-1.9-.181-3.988-.314c-.035,0-.073,0-.112-.006-2.917-.179-6.11-.285-9.6-.3q-2.043-.013-4.226.015-2.6.031-5.036.1h-.076q-3.574.092-6.805.241c-7.959.364-14.421.971-19.656,1.7h0c-.361.053-.722.1-1.071.156h-.006c-.379.056-.751.112-1.115.17a83.3,83.3,0,0,0-10.938,2.368h0c-.285.082-.558.167-.825.252-.3.094-.587.191-.863.285,0,0,0,0-.006,0-.258.085-.511.173-.751.261a25.939,25.939,0,0,0-3.915,1.749h0c-.264.15-.508.293-.722.434h0c-.3.194-.558.376-.778.543a0,0,0,0,1,0,0,7.55,7.55,0,0,0-.572.493,3.374,3.374,0,0,0-.555.64l-.493.789-.076.123.305.367.273.332.279.34.426.514.264.317.258.317.376.452.264.32.261.317.417.5.141.173v7.53l.214,0h0l.258.006.329.006.59.012,2.976.059h0l.845.018.848.018,10.336.2h0l1.7.035h0l1.7.032h0l21.617.426,6.565.132h.073l8.962.176,4.3.085,2.982.059,3.3.065,1.916.038,4.74.094,9.391.185,4.74.094,1.919.038,3.287.065,2.982.059,1.3.026Zm-21.59-2.726-5.588-.109-2.034-.041-3.572-.07-3.026-.059-4.3-.082-8.927-.176h-.073l-6.53-.129-23.7-.464v-4.651l-2.016-2.442.235-.373.117-.188a2.094,2.094,0,0,1,.288-.343,5.049,5.049,0,0,1,.81-.64c1.6-1.054,5.35-2.676,13.987-3.748h0q1.268-.158,2.679-.3h.006c.76-.079,1.552-.15,2.38-.217h.009q1.814-.145,3.85-.258c2.04-.115,4.249-.2,6.647-.258a.64.64,0,0,0,.073,0q1.184-.022,2.43-.041c2.439-.032,4.663,0,6.691.085a67.587,67.587,0,0,1,8.59.842q1.189.2,2.23.446c.5.117.983.241,1.438.367h0c.616.173,1.189.358,1.723.552a16.718,16.718,0,0,1,2.938,1.365l0,0c.156.091.3.182.44.276a.249.249,0,0,1,.029.021,10.01,10.01,0,0,1,1.318,1.027,8.415,8.415,0,0,1,.8.833c.1.12.2.244.288.367.006.006.009.012.012.015a7.571,7.571,0,0,1,.534.825,8.926,8.926,0,0,1,.766,1.8,18.737,18.737,0,0,1,.581,2.985c.082.6.156,1.156.276,1.652,0,.006,0,.015.006.021l.279,1.156-2.544-.05Zm-7.621-.15-3.572-.07-3.026-.059-4.3-.082-8.927-.176h-.073l-6.53-.129-23.7-.464v-4.651l-2.016-2.442.235-.373-14.057,3.765-2.26.608v2.4l2.348.628L806,933.143h0l1.7.032h0l21.617.426,6.565.132h.073l8.962.176,4.3.085,2.982.059,3.3.065c-.006-.144-.009-.291-.009-.437a11.372,11.372,0,0,1,.622-3.715m0,0-3.572-.07-3.026-.059-4.3-.082-8.927-.176h-.073l-6.53-.129-23.7-.464v-4.651l-2.016-2.442.235-.373-14.057,3.765-2.26.608v2.4l2.348.628L806,933.143h0l1.7.032h0l21.617.426,6.565.132h.073l8.962.176,4.3.085,2.982.059,3.3.065c-.006-.144-.009-.291-.009-.437a11.372,11.372,0,0,1,.622-3.715m0,0-3.572-.07-3.026-.059-4.3-.082-8.927-.176h-.073l-6.53-.129-23.7-.464v-4.651l-2.016-2.442.235-.373-14.057,3.765-2.26.608v2.4l2.348.628L806,933.143h0l1.7.032h0l21.617.426,6.565.132h.073l8.962.176,4.3.085,2.982.059,3.3.065c-.006-.144-.009-.291-.009-.437a11.372,11.372,0,0,1,.622-3.715" transform="translate(-554.367 -643.634)" fill="#da01c9"/><path d="M763.553,946.236a8.461,8.461,0,1,0-8.461,8.461,8.461,8.461,0,0,0,8.461-8.461" transform="translate(-527.519 -662.568)" fill="#001f30"/><path d="M1076.194,951.4h-23.972a4.7,4.7,0,0,1-4.7-4.7v-.508a4.7,4.7,0,0,1,4.445-4.7l18.318-.978,5.494-.5a4.7,4.7,0,0,1,5.11,4.261q.019.212.019.425v2a4.7,4.7,0,0,1-4.7,4.7h-.01" transform="translate(-740.106 -664.134)" fill="#85001e"/><path d="M911.592,588.026,835.431,566.1a10.3,10.3,0,0,1-7.029-12.711l2.2-7.645a2.321,2.321,0,0,1,2.866-1.586l83.808,24.122a10.271,10.271,0,0,1-5.681,19.74Z" transform="translate(-585.013 -384.405)" fill="#f7c6a2"/><path d="M893.174,581.759l-54.819-15.778a13.4,13.4,0,0,1-9.143-16.535l2.7-9.411,67.658,19.474A4.289,4.289,0,0,1,902.5,564.8l-4.04,14.038a4.288,4.288,0,0,1-5.288,2.926Z" transform="translate(-585.5 -381.552)" fill="#0c0861"/><path d="M1064.7,638.744l-18.543,57.463a10.27,10.27,0,1,1-19.55-6.3l18.543-57.463a10.27,10.27,0,1,1,19.548,6.307Z" transform="translate(-724.982 -441.815)" fill="#f7c6a2"/><path d="M1026.531,887.183l28.2.044a9.981,9.981,0,0,0,9.957-9.943v-3.474a9.982,9.982,0,0,0-9.929-9.957l-28.192-.044a9.98,9.98,0,0,0-9.966,9.936v3.474a9.98,9.98,0,0,0,9.934,9.966Z" transform="translate(-718.264 -610.308)" fill="#de0061"/><path d="M1026.132,862.7h3.028a9.571,9.571,0,0,0,9.557-9.527l.019-12.7a9.571,9.571,0,0,0-9.518-9.557h-3.03a9.569,9.569,0,0,0-9.557,9.519l-.021,12.7a9.571,9.571,0,0,0,9.527,9.557Z" transform="translate(-718.268 -587.064)" fill="#de0061"/><path d="M1143.226,880.825h.3a6.6,6.6,0,0,0,6.592-6.575l.018-11.159a6.6,6.6,0,0,0-6.573-6.592h-.3a6.6,6.6,0,0,0-6.592,6.571l-.018,11.161a6.6,6.6,0,0,0,6.573,6.591Z" transform="translate(-803.082 -605.143)" fill="#d9e4eb"/><path d="M1020.62,926.626l41.322.065a4.076,4.076,0,1,0,.012-8.152l-41.322-.067a4.077,4.077,0,0,0-.012,8.154" transform="translate(-718.226 -648.93)" fill="#fff"/><path d="M1038.288,861.97h0a4.7,4.7,0,1,0-4.692-4.708,4.712,4.712,0,0,0,4.692,4.708" transform="translate(-730.269 -602.368)" fill="#f9f8ec"/><path d="M1125.71,871h0a1.04,1.04,0,0,0,1.038-1.036l.012-7.826a1.039,1.039,0,0,0-2.078,0l-.012,7.828a1.04,1.04,0,0,0,1.04,1.031" transform="translate(-794.616 -608.398)" fill="#f9f8ec"/><path d="M1111.938,870.981h0a1.038,1.038,0,0,0,1.038-1.035l.012-7.828a1.039,1.039,0,0,0-2.078,0l-.012,7.828a1.04,1.04,0,0,0,1.04,1.031" transform="translate(-784.886 -608.385)" fill="#f9f8ec"/><path d="M1098.173,870.94h0a1.039,1.039,0,0,0,1.038-1.035l.012-7.826a1.037,1.037,0,1,0-2.073,0l-.012,7.828a1.039,1.039,0,0,0,1.035,1.037" transform="translate(-775.164 -608.352)" fill="#f9f8ec"/><path d="M776.936,1050.082a1.6,1.6,0,1,0-1.6,1.6,1.6,1.6,0,0,0,1.6-1.6" transform="translate(-546.674 -740.788)" fill="#0089b6"/><path d="M838.744,1023.258a1.6,1.6,0,1,0-1.6,1.6,1.6,1.6,0,0,0,1.6-1.6" transform="translate(-590.342 -721.836)" fill="#ff7605"/><path d="M717.787,964.726a1.6,1.6,0,1,0-1.6,1.6,1.6,1.6,0,0,0,1.6-1.6" transform="translate(-504.883 -680.482)" fill="#0089b6"/><path d="M854.852,1096.571a1.6,1.6,0,1,0-1.6,1.6,1.6,1.6,0,0,0,1.6-1.6" transform="translate(-601.724 -773.634)" fill="#dd0640"/><path d="M870.553,865.345a1.6,1.6,0,1,0-1.6,1.6,1.6,1.6,0,0,0,1.6-1.6" transform="translate(-612.817 -610.266)" fill="#ff7605"/><path d="M853.465,884.847a1.6,1.6,0,1,0-1.6,1.6,1.6,1.6,0,0,0,1.6-1.6" transform="translate(-600.744 -624.044)" fill="#0089b6"/><path d="M812.736,817.949a1.6,1.6,0,1,0-1.6,1.6,1.6,1.6,0,0,0,1.6-1.6" transform="translate(-571.968 -576.779)" fill="#dd0640"/><path d="M792.254,895.737a1.6,1.6,0,1,0-1.6,1.6,1.6,1.6,0,0,0,1.6-1.6" transform="translate(-557.497 -631.739)" fill="#ff7605"/><path d="M773.765,867.753a1.6,1.6,0,1,0-1.6,1.6,1.6,1.6,0,0,0,1.6-1.6" transform="translate(-544.434 -611.967)" fill="#ff7605"/><path d="M776.356,1083.267a1.718,1.718,0,0,0-3.435,0v0a1.718,1.718,0,0,0,3.435,0Z" transform="translate(-546.094 -764.15)" fill="#ff7605"/><path d="M719.367,1065.049a1.133,1.133,0,0,0-1.133-1.133h0a1.133,1.133,0,0,0-1.135,1.132v0a1.135,1.135,0,1,0,2.27,0" transform="translate(-506.652 -751.691)" fill="#dd0640"/><path d="M844.648,1078.791a1.133,1.133,0,0,0-1.133-1.133h0a1.133,1.133,0,0,0-1.135,1.132v0a1.135,1.135,0,0,0,2.27,0" transform="translate(-595.168 -761.4)" fill="#0089b6"/><path d="M726.193,1014.956a1.366,1.366,0,0,0-1.364-1.368h0a1.367,1.367,0,1,0,1.366,1.368" transform="translate(-511.151 -716.132)" fill="#ff7605"/><path d="M679.236,965.282a1.365,1.365,0,1,0-1.364,1.366,1.366,1.366,0,0,0,1.364-1.366" transform="translate(-477.974 -681.038)" fill="#0089b6"/><path d="M1470.016,1091.46a1.6,1.6,0,1,0-1.6,1.6,1.6,1.6,0,0,0,1.6-1.6" transform="translate(-1036.358 -770.023)" fill="#0089b6"/><path d="M1549.012,1030.093a1.6,1.6,0,1,0-1.6,1.6,1.6,1.6,0,0,0,1.6-1.6" transform="translate(-1092.171 -726.665)" fill="#ff7605"/><path d="M1428.05,974.642a1.6,1.6,0,1,0-1.6,1.6,1.6,1.6,0,0,0,1.6-1.6" transform="translate(-1006.707 -687.487)" fill="#0089b6"/><path d="M1551.984,1091.46a1.6,1.6,0,1,0-1.6,1.6,1.6,1.6,0,0,0,1.6-1.6" transform="translate(-1094.271 -770.023)" fill="#dd0640"/><path d="M1591.688,880.7a1.6,1.6,0,1,0-1.6,1.6,1.6,1.6,0,0,0,1.6-1.6" transform="translate(-1122.323 -621.116)" fill="#ff7605"/><path d="M1563.709,894.763a1.6,1.6,0,1,0-1.6,1.6,1.6,1.6,0,0,0,1.6-1.6" transform="translate(-1102.555 -631.05)" fill="#0089b6"/><path d="M1488.023,871.483a1.6,1.6,0,1,0-1.6,1.6,1.6,1.6,0,0,0,1.6-1.6" transform="translate(-1049.08 -614.602)" fill="#dd0640"/><path d="M1511.513,907.221a1.6,1.6,0,1,0-1.6,1.6,1.6,1.6,0,0,0,1.6-1.6" transform="translate(-1065.676 -639.852)" fill="#ff7605"/><path d="M1506.071,808.843a1.6,1.6,0,1,0-1.6,1.6,1.6,1.6,0,0,0,1.6-1.6" transform="translate(-1061.832 -570.345)" fill="#ff7605"/><path d="M1469.441,1114.993a1.718,1.718,0,0,0-3.435,0v0a1.718,1.718,0,0,0,3.435,0Z" transform="translate(-1035.781 -786.565)" fill="#ff7605"/><path d="M1419.594,1039.938a1.135,1.135,0,1,0-1.137,1.133h0a1.133,1.133,0,0,0,1.135-1.132Z" transform="translate(-1001.386 -733.948)" fill="#dd0640"/><path d="M1521.467,1039.223a1.135,1.135,0,1,0-1.137,1.133h0a1.133,1.133,0,0,0,1.135-1.132Z" transform="translate(-1073.362 -733.443)" fill="#0089b6"/><path d="M1428.371,1024.871a1.365,1.365,0,1,0-1.364,1.368A1.366,1.366,0,0,0,1428.371,1024.871Z" transform="translate(-1007.263 -723.139)" fill="#ff7605"/><path d="M1389.5,975.2a1.366,1.366,0,0,0-1.366-1.366h0a1.366,1.366,0,1,0,1.368,1.366" transform="translate(-979.798 -688.044)" fill="#0089b6"/><path d="M1225.618,497.79a5.817,5.817,0,1,0-5.817,5.817,5.817,5.817,0,0,0,5.817-5.817" transform="translate(-857.719 -347.594)" fill="#85001e"/><path d="M1173.14,505.474l-.136-.032a.719.719,0,0,1-.568-.844h0l2.831-14.57a.719.719,0,0,1,.843-.568l.141.028a.719.719,0,0,1,.569.843l-2.836,14.583a.719.719,0,0,1-.843.568Z" transform="translate(-828.355 -345.81)" fill="#0089b6"/><path d="M1165.02,503.682l-.139-.035a.719.719,0,0,1-.52-.874l0-.007,3.687-14.383a.719.719,0,0,1,.875-.518h.006l.138.035a.719.719,0,0,1,.52.874l0,.007-3.686,14.383a.717.717,0,0,1-.872.519l-.009,0" transform="translate(-822.643 -344.675)" fill="#fff"/><path d="M1158.2,501.237l-.141-.021a.718.718,0,0,1-.61-.811v0l2.077-14.7a.721.721,0,0,1,.814-.61l.141.021a.718.718,0,0,1,.612.809v0l-2.08,14.706a.719.719,0,0,1-.812.612Z" transform="translate(-817.768 -342.727)" fill="#92bc21"/><path d="M1006.331,159.308a2.323,2.323,0,1,0-2.323,2.323,2.323,2.323,0,0,0,2.323-2.323" transform="translate(-707.723 -110.916)" fill="#001f30"/><path d="M1074.5,159.308a2.323,2.323,0,1,0-2.323,2.323,2.323,2.323,0,0,0,2.323-2.323" transform="translate(-755.884 -110.916)" fill="#001f30"/><path d="M1039.381,181.651h0a1.8,1.8,0,0,1-1.8-1.8V174.6a1.8,1.8,0,0,1,1.794-1.8h0a1.8,1.8,0,0,1,1.8,1.795v5.256a1.8,1.8,0,0,1-1.793,1.8Z" transform="translate(-733.088 -122.089)" fill="#f7a86d"/><path d="M1038.354,199.961h-3.028a1.327,1.327,0,1,1,0-2.655h3.026a1.327,1.327,0,1,1,0,2.655Z" transform="translate(-730.553 -139.403)" fill="#f7a86d"/><path d="M1117.57,185.224a1.576,1.576,0,1,0-1.576,1.576,1.576,1.576,0,0,0,1.576-1.576" transform="translate(-787.373 -129.753)" fill="#fff"/><path d="M960.15,185.224a1.576,1.576,0,1,0-1.576,1.576,1.576,1.576,0,0,0,1.576-1.576" transform="translate(-676.15 -129.753)" fill="#fff"/><path d="M1000.3,144.257l-6.654.705a1.106,1.106,0,0,1-.233-2.2l6.654-.705a1.105,1.105,0,0,1,1.216.982v0a1.105,1.105,0,0,1-.982,1.216h0" transform="translate(-701.177 -100.363)" fill="#001f30"/><path d="M1066.692,144.966l6.654.7a1.106,1.106,0,0,0,.233-2.2l-6.654-.705a1.106,1.106,0,0,0-1.216.982v0a1.1,1.1,0,0,0,.982,1.216h0" transform="translate(-752.953 -100.864)" fill="#001f30"/><path d="M1000.3,182.475c0,1-1.819,1.824-4.063,1.824s-4.065-.823-4.065-1.824,1.819-1.819,4.065-1.819,4.063.818,4.063,1.824Z" transform="translate(-701.005 -127.639)" fill="#f7b29c"/><path d="M1076.4,183.509c0,1-1.819,1.824-4.065,1.824s-4.063-.823-4.063-1.824,1.819-1.819,4.063-1.819,4.065.818,4.065,1.824Z" transform="translate(-754.773 -128.369)" fill="#f7b29c"/></g></g></g></svg>