<svg xmlns="http://www.w3.org/2000/svg" width="21.858" height="26" viewBox="0 0 21.858 26"><path d="M242.034,307.12a4.034,4.034,0,1,0,4.034,4.034A4.046,4.046,0,0,0,242.034,307.12Zm0,7.172a3.138,3.138,0,1,1,3.138-3.138A3.147,3.147,0,0,1,242.034,314.292Z" transform="translate(-232.8 -292.731)" fill="#5a595a"/><path d="M293.505,334.854h.807a.448.448,0,1,0,0-.9h-.359v-.134a.448.448,0,1,0-.9,0v.224a1.213,1.213,0,0,0-.807,1.166,1.253,1.253,0,0,0,1.255,1.255.354.354,0,0,1,.359.359.386.386,0,0,1-.359.359H292.7a.448.448,0,0,0,0,.9h.359v.134a.448.448,0,1,0,.9,0v-.224a1.213,1.213,0,0,0,.807-1.166,1.253,1.253,0,0,0-1.255-1.255.354.354,0,0,1-.359-.359A.386.386,0,0,1,293.505,334.854Z" transform="translate(-284.271 -317.641)" fill="#5a595a"/><path d="M158.246,45.58l-3.855-4.169a.488.488,0,0,0-.672,0l-.4.448-4.034-8.2c0-.045-.045-.045-.045-.09v-.045a2.317,2.317,0,0,1,2.779,2.376,3.864,3.864,0,0,0,1.345,2.824,3.133,3.133,0,0,0,1.883.583,2.81,2.81,0,0,0,.493-.045.457.457,0,0,0-.179-.9,2.216,2.216,0,0,1-1.659-.4,2.988,2.988,0,0,1-.986-2.2,3.44,3.44,0,0,0-1.3-2.645,3.394,3.394,0,0,0-.807-.4c.9-.09,1.883,0,2.152.717a3.638,3.638,0,0,0,3.5,2.6,6.27,6.27,0,0,0,1.524-.224.44.44,0,1,0-.224-.852,2.868,2.868,0,0,1-3.945-1.838c-.672-1.7-3.093-1.39-4.393-1.076l2.107-4.169a.44.44,0,0,0-.583-.583l-2.152.9-1.166-1.3a.477.477,0,0,0-.538-.09l-1.479.852-1.345-1.3a.844.844,0,0,0-.359-.09.407.407,0,0,0-.314.134l-1.614,1.793-1.883-.9a.409.409,0,0,0-.493.09.42.42,0,0,0-.09.493l2.286,4.528v1.076c-.045.045-.045.045-.045.09L137,43.339a4.615,4.615,0,0,0-.493,2.017V47.15c0,2.824,2.6,5.11,5.783,5.11h6.455a6.509,6.509,0,0,0,2.914-.717v.269a.424.424,0,0,0,.448.448h3.9a.424.424,0,0,0,.448-.448V46.343h1.479a.392.392,0,0,0,.4-.269.488.488,0,0,0-.09-.493ZM142.691,32.8h5.648v.583h-5.648Zm-.762-3.631a.477.477,0,0,0,.538-.09l1.524-1.7,1.21,1.166a.408.408,0,0,0,.538.045l1.479-.852,1.121,1.3a.506.506,0,0,0,.493.134l1.345-.538-1.659,3.317h-6.007L140.9,28.725Zm6.814,22.189h-6.455c-2.69,0-4.886-1.883-4.886-4.214V45.356a3.316,3.316,0,0,1,.4-1.614l4.617-9.414h6.186l4.034,8.248-2.824,3.048a.488.488,0,0,0-.09.493.392.392,0,0,0,.4.269h1.479v4.169A5.628,5.628,0,0,1,148.743,51.363Zm7.262-5.917a.424.424,0,0,0-.448.448v5.469h-3V45.894a.424.424,0,0,0-.448-.448h-.9l2.331-2.51.493-.538L156.9,45.49h-.9Z" transform="translate(-136.505 -26.26)" fill="#5a595a"/></svg>