<svg xmlns="http://www.w3.org/2000/svg" xmlns:xlink="http://www.w3.org/1999/xlink" width="375" height="812" viewBox="0 0 375 812"><defs><radialGradient id="a" cx="0.5" cy="0.5" r="0.5" gradientUnits="objectBoundingBox"><stop offset="0" stop-color="#7801c1"/><stop offset="1" stop-color="#3c0161"/></radialGradient><clipPath id="b"><rect width="375" height="812" stroke="#707070" stroke-width="1" fill="url(#a)"/></clipPath><filter id="d" x="-254" y="302" width="614" height="614" filterUnits="userSpaceOnUse"><feOffset input="SourceAlpha"/><feGaussianBlur stdDeviation="20" result="e"/><feFlood flood-opacity="0.384"/><feComposite operator="in" in2="e"/><feComposite in="SourceGraphic"/></filter><filter id="g" x="-289" y="144" width="614" height="614" filterUnits="userSpaceOnUse"><feOffset input="SourceAlpha"/><feGaussianBlur stdDeviation="20" result="h"/><feFlood flood-opacity="0.384"/><feComposite operator="in" in2="h"/><feComposite in="SourceGraphic"/></filter><filter id="j" x="-354" y="-236" width="806" height="806" filterUnits="userSpaceOnUse"><feOffset input="SourceAlpha"/><feGaussianBlur stdDeviation="20" result="k"/><feFlood flood-opacity="0.384"/><feComposite operator="in" in2="k"/><feComposite in="SourceGraphic"/></filter><filter id="m" x="-7" y="-221" width="732" height="732" filterUnits="userSpaceOnUse"><feOffset input="SourceAlpha"/><feGaussianBlur stdDeviation="20" result="n"/><feFlood flood-opacity="0.384"/><feComposite operator="in" in2="n"/><feComposite in="SourceGraphic"/></filter><filter id="p" x="146" y="216" width="614" height="614" filterUnits="userSpaceOnUse"><feOffset input="SourceAlpha"/><feGaussianBlur stdDeviation="20" result="q"/><feFlood flood-opacity="0.384"/><feComposite operator="in" in2="q"/><feComposite in="SourceGraphic"/></filter><filter id="s" x="120" y="463" width="614" height="614" filterUnits="userSpaceOnUse"><feOffset input="SourceAlpha"/><feGaussianBlur stdDeviation="20" result="t"/><feFlood flood-opacity="0.384"/><feComposite operator="in" in2="t"/><feComposite in="SourceGraphic"/></filter></defs><g clip-path="url(#b)"><g transform="matrix(1, 0, 0, 1, 0, 0)" filter="url(#d)"><circle cx="247" cy="247" r="247" transform="translate(-194 362)" fill="url(#a)"/></g><g transform="matrix(1, 0, 0, 1, 0, 0)" filter="url(#g)"><circle cx="247" cy="247" r="247" transform="translate(-229 204)" fill="url(#a)"/></g><g transform="matrix(1, 0, 0, 1, 0, 0)" filter="url(#j)"><circle cx="343" cy="343" r="343" transform="translate(-294 -176)" fill="url(#a)"/></g><g transform="matrix(1, 0, 0, 1, 0, 0)" filter="url(#m)"><circle cx="306" cy="306" r="306" transform="translate(53 -161)" fill="url(#a)"/></g><g transform="matrix(1, 0, 0, 1, 0, 0)" filter="url(#p)"><circle cx="247" cy="247" r="247" transform="translate(206 276)" fill="url(#a)"/></g><g transform="matrix(1, 0, 0, 1, 0, 0)" filter="url(#s)"><circle cx="247" cy="247" r="247" transform="translate(180 523)" fill="url(#a)"/></g></g></svg>