<svg xmlns="http://www.w3.org/2000/svg" width="26" height="22.829" viewBox="0 0 26 22.829"><path d="M51.267,9.47l1.769-.077a.828.828,0,0,0,.615-.769V6.47H34.575a.678.678,0,0,1-.692-.615.689.689,0,0,1,.692-.692h3.538l2.462-1.154H33.5a.854.854,0,0,0-.846.846V21.163a.854.854,0,0,0,.846.846H52.806a.854.854,0,0,0,.846-.846V17.394a.854.854,0,0,0-.846-.846H50.19a2.087,2.087,0,0,1-2.077-2.154V11.547c0-1.923,1.615-2.077,3.154-2.077ZM41.113,5.163h8.462L47.96,1.932,41.114,5.163Zm9.923,0h2.615V4.855a.854.854,0,0,0-.846-.846H50.421l.615,1.154ZM49.806,2.7h3a2.135,2.135,0,0,1,2.077,2.154V8.624a1.657,1.657,0,0,1-.154.846h.461a2.135,2.135,0,0,1,2.154,2.077v2.846a2.2,2.2,0,0,1-2.154,2.154h-.461a1.522,1.522,0,0,1,.154.846v3.769a2.068,2.068,0,0,1-2.077,2.077H33.5a2.135,2.135,0,0,1-2.154-2.077V4.855A2.2,2.2,0,0,1,33.5,2.7h9.769L48.036.471a.647.647,0,0,1,.846.308L49.805,2.7Zm5.385,8.077h-5a.727.727,0,0,0-.769.769v2.846a.791.791,0,0,0,.769.846h5a.854.854,0,0,0,.846-.846V11.547A.791.791,0,0,0,55.19,10.778Z" transform="translate(-31.344 -0.41)" fill="#5a595a"/><path d="M508.5,285.718a1,1,0,1,1-1-1,1,1,0,0,1,1,1" transform="translate(-487.111 -273.119)" fill="#5a595a" fill-rule="evenodd"/></svg>